<svg xmlns="http://www.w3.org/2000/svg" xmlns:xlink="http://www.w3.org/1999/xlink" version="1.1" id="K" x="0px" y="0px" viewBox="0 0 500 500" enable-background="new 0 0 500 500" xml:space="preserve">
<circle fill="#4FBA9A" cx="250" cy="250" r="233.443"/>
<g>
  <g>
    <g>
      <path fill="#FFFFFF" d="M317.834,245.391c14.561-15.319,23.427-35.594,23.427-57.832c0-11.086-2.206-21.685-6.219-31.424     c12.116-5.082,20.628-17.055,20.628-31.016c0-18.57-15.054-33.623-33.623-33.623c-13.383,0-24.938,7.821-30.35,19.141     c-12.499-6.093-26.673-9.535-41.698-9.535c-15.023,0-29.199,3.442-41.698,9.535c-5.412-11.319-16.967-19.141-30.349-19.141     c-18.569,0-33.622,15.053-33.622,33.622c0,13.962,8.511,25.936,20.628,31.017c-4.015,9.74-6.219,20.337-6.219,31.424     c0,22.238,8.866,42.512,23.427,57.832c-25.531,24.154-66.523,63.011-56.808,101.871c4.492,17.971,16.214,25.084,28.62,25.729     c0.881-22.994,17.724-41.338,38.383-41.338c21.222,0,38.425,19.355,38.425,43.23c0,13.582-5.573,25.697-14.282,33.621     c14.991,0,31.737,0,33.495,0c3.694,0,19.407,0,33.497,0c-8.71-7.924-14.283-20.039-14.283-33.621     c0-23.875,17.202-43.23,38.426-43.23c20.658,0,37.501,18.342,38.383,41.336c12.405-0.645,24.127-7.758,28.62-25.727     C384.355,308.402,343.365,269.547,317.834,245.391z M174.43,139.074c-6.252-1.572-10.887-7.215-10.887-13.957     c0-7.958,6.451-14.41,14.41-14.41c6.525,0,12.031,4.341,13.804,10.291C185.124,126.214,179.283,132.3,174.43,139.074z      M288.425,180.354c3.98,0,7.205,3.226,7.205,7.205s-3.225,7.204-7.205,7.204c-3.979,0-7.204-3.225-7.204-7.204     S284.445,180.354,288.425,180.354z M211.575,180.354c3.98,0,7.204,3.226,7.204,7.205s-3.224,7.204-7.204,7.204     s-7.206-3.225-7.206-7.204S207.595,180.354,211.575,180.354z M250,274.016c-31.832,0-57.638-17.203-57.638-38.425     c0-21.222,25.806-38.426,57.638-38.426c31.833,0,57.639,17.204,57.639,38.426C307.639,256.812,281.833,274.016,250,274.016z      M308.243,121c1.772-5.95,7.279-10.291,13.804-10.291c7.959,0,14.41,6.451,14.41,14.409c0,6.74-4.635,12.384-10.888,13.958     C320.717,132.301,314.877,126.214,308.243,121z"/>
    </g>
  </g>
  <g>
    <g>
      <circle fill="#FFFFFF" cx="191.756" cy="377.284" r="16.812"/>
    </g>
  </g>
  <g>
    <g>
      <circle fill="#FFFFFF" cx="308.233" cy="377.284" r="16.812"/>
    </g>
  </g>
  <g>
    <g>
      <path fill="#FFFFFF" d="M250,216.378c-10.611,0-19.212,1.118-19.212,9.605c0,8.488,8.602,19.213,19.212,19.213     c10.612,0,19.213-10.725,19.213-19.213C269.213,217.496,260.611,216.378,250,216.378z"/>
    </g>
  </g>
</g>
</svg>