<svg xmlns="http://www.w3.org/2000/svg" xmlns:xlink="http://www.w3.org/1999/xlink" version="1.1" id="C" x="0px" y="0px" viewBox="0 0 500 500" enable-background="new 0 0 500 500" xml:space="preserve">
<circle fill="#54A09F" cx="250" cy="250" r="233.443"/>
<g>
  <path fill="#FFFFFF" d="M278.621,173.561c12.791,8.02,21.76,21.589,23.391,37.343c5.219,2.438,11.004,3.84,17.146,3.84   c22.404,0,40.568-18.164,40.568-40.569s-18.164-40.569-40.568-40.569C296.961,133.611,278.959,151.451,278.621,173.561z    M252.043,256.628c22.406,0,40.57-18.164,40.57-40.569s-18.164-40.57-40.57-40.57c-22.405,0-40.576,18.168-40.576,40.57   C211.467,238.464,229.638,256.628,252.043,256.628z M269.25,259.393h-34.424c-28.642,0-51.944,23.302-51.944,51.944v42.1   l0.104,0.661l2.903,0.91c27.334,8.536,51.081,11.388,70.624,11.388c38.182,0,60.305-10.889,61.674-11.583l2.709-1.369h0.291   v-42.106C321.193,282.694,297.893,259.393,269.25,259.393z M336.371,217.508h-34.156c-0.371,13.667-6.203,25.976-15.434,34.825   c25.459,7.572,44.088,31.184,44.088,59.071v12.973c33.727-1.241,53.164-10.795,54.445-11.442l2.705-1.369h0.289v-42.113   C388.309,240.811,365.006,217.508,336.371,217.508z M180.855,214.75c7.937,0,15.319-2.319,21.576-6.264   c1.989-12.969,8.941-24.303,18.873-32.02c0.04-0.763,0.114-1.514,0.114-2.279c0-22.412-18.164-40.569-40.563-40.569   c-22.411,0-40.569,18.157-40.569,40.569C140.286,196.583,158.444,214.75,180.855,214.75z M217.289,252.333   c-9.18-8.806-14.995-21.043-15.42-34.63c-1.268-0.094-2.519-0.195-3.812-0.195h-34.421c-28.643,0-51.944,23.303-51.944,51.944   v42.107l0.107,0.646l2.899,0.917c21.927,6.844,41.5,9.999,58.498,10.99v-12.709C173.203,283.517,191.822,259.911,217.289,252.333z"/>
</g>
</svg>