<svg xmlns="http://www.w3.org/2000/svg" xmlns:xlink="http://www.w3.org/1999/xlink" version="1.1" id="E" x="0px" y="0px" viewBox="0 0 500 500" enable-background="new 0 0 500 500" xml:space="preserve">
<circle fill="#C5729A" cx="250" cy="250" r="233.443"/>
<g>
  <g>
    <path fill="#FFFFFF" d="M210.152,265.184c0-3.681-2.985-6.66-6.668-6.66h-23.266c-3.679,0-6.664,2.979-6.664,6.66v23.263    c0,3.686,2.985,6.668,6.664,6.668h23.266c3.683,0,6.668-2.982,6.668-6.668V265.184L210.152,265.184z"/>
    <path fill="#FFFFFF" d="M268.296,265.184c0-3.681-2.985-6.66-6.659-6.66h-23.27c-3.679,0-6.664,2.979-6.664,6.66v23.263    c0,3.686,2.985,6.668,6.664,6.668h23.27c3.674,0,6.659-2.982,6.659-6.668V265.184z"/>
    <path fill="#FFFFFF" d="M326.445,265.184c0-3.681-2.986-6.66-6.664-6.66h-23.267c-3.683,0-6.667,2.979-6.667,6.66v23.263    c0,3.686,2.984,6.668,6.667,6.668h23.267c3.678,0,6.664-2.982,6.664-6.668V265.184z"/>
    <path fill="#FFFFFF" d="M210.152,323.335c0-3.686-2.985-6.664-6.668-6.664h-23.266c-3.679,0-6.664,2.979-6.664,6.664v23.26    c0,3.682,2.985,6.662,6.664,6.662h23.266c3.683,0,6.668-2.982,6.668-6.662V323.335L210.152,323.335z"/>
    <path fill="#FFFFFF" d="M268.296,323.335c0-3.686-2.985-6.664-6.659-6.664h-23.27c-3.679,0-6.664,2.979-6.664,6.664v23.26    c0,3.682,2.985,6.662,6.664,6.662h23.27c3.674,0,6.659-2.982,6.659-6.662V323.335z"/>
    <path fill="#FFFFFF" d="M326.445,323.335c0-3.686-2.986-6.664-6.661-6.664h-23.27c-3.683,0-6.667,2.979-6.667,6.664v23.26    c0,3.682,2.984,6.662,6.667,6.662h23.27c3.675,0,6.661-2.982,6.661-6.662V323.335L326.445,323.335z"/>
    <path fill="#FFFFFF" d="M368.047,135.837v35.532c0,16.061-13.029,29.002-29.087,29.002h-18.349    c-16.06,0-29.261-12.941-29.261-29.002v-35.66h-82.703v35.66c0,16.061-13.201,29.002-29.257,29.002h-18.353    c-16.057,0-29.085-12.941-29.085-29.002v-35.532c-14.033,0.423-25.566,12.035-25.566,26.31v208.237    c0,14.543,11.787,26.486,26.329,26.486h234.568c14.521,0,26.33-11.971,26.33-26.486V162.146    C393.613,147.872,382.081,136.26,368.047,135.837z M359.524,357.417c0,6.283-5.096,11.383-11.383,11.383H151.356    c-6.287,0-11.382-5.1-11.382-11.383V249.854c0-6.287,5.095-11.386,11.382-11.386h196.785c6.287,0,11.383,5.099,11.383,11.386    L359.524,357.417L359.524,357.417z"/>
    <path fill="#FFFFFF" d="M160.974,181.322h18.149c5.51,0,9.976-4.46,9.976-9.969v-58.251c0-5.51-4.466-9.973-9.976-9.973h-18.149    c-5.509,0-9.976,4.463-9.976,9.973v58.251C150.999,176.862,155.465,181.322,160.974,181.322z"/>
    <path fill="#FFFFFF" d="M320.378,181.322h18.149c5.506,0,9.973-4.46,9.973-9.969v-58.251c0-5.51-4.467-9.973-9.973-9.973h-18.149    c-5.509,0-9.976,4.463-9.976,9.973v58.251C310.402,176.862,314.869,181.322,320.378,181.322z"/>
  </g>
</g>
</svg>