<svg xmlns="http://www.w3.org/2000/svg" xmlns:xlink="http://www.w3.org/1999/xlink" version="1.1" id="B" x="0px" y="0px" viewBox="0 0 500 500" enable-background="new 0 0 500 500" xml:space="preserve">
<circle fill="#F4BA64" cx="250" cy="250" r="233.443"/>
<g>
  <g>
    <path fill="#FFFFFF" d="M307.581,185.188c2.682,2.681,7.03,2.681,9.709,0l79.59-79.595c2.682-2.681,2.682-7.026,0-9.711    c-2.674-2.68-7.024-2.68-9.704,0l-79.595,79.596C304.9,178.159,304.9,182.505,307.581,185.188z"/>
    <path fill="#FFFFFF" d="M376.367,245.389l-8.733-95.983l-23.961,23.963c1.394,8.899-1.321,18.317-8.176,25.171    c-11.393,11.395-29.867,11.396-41.261,0c-11.392-11.392-11.392-29.871,0-41.263c6.854-6.853,16.27-9.565,25.16-8.175l23.973-23.97    l-95.984-8.729c-3.779-0.339-7.509,1.009-10.197,3.693L82.376,274.906c-4.987,4.989-4.991,13.078,0,18.065l34.435,34.439    l16.992-16.991l48.545,48.543l-16.99,16.986l34.436,34.438c4.993,4.989,13.076,4.989,18.063,0l154.822-154.811    C375.354,252.892,376.7,249.159,376.367,245.389z"/>
  </g>
</g>
</svg>