<svg xmlns="http://www.w3.org/2000/svg" xmlns:xlink="http://www.w3.org/1999/xlink" version="1.1" id="I" x="0px" y="0px" viewBox="0 0 500 500" enable-background="new 0 0 500 500" xml:space="preserve">
<circle fill="#E79F04" cx="250" cy="233.443" r="233.443"/>
<g>
  <g>
    <path fill="#FFFFFF" d="M256.302,126.334c0-13.918-11.316-25.207-25.292-25.207c-13.958,0-25.275,11.282-25.275,25.207    c0,13.997,11.315,25.322,25.275,25.322C244.961,151.655,256.302,140.332,256.302,126.334z"/>
    <path fill="#FFFFFF" d="M359.304,151.018c-0.989-5.405-5.376-8.512-5.639-8.748L215.032,49.858    c-5.488-3.654-12.964-2.186-16.703,3.288l-7.018,10.294c-2.613,4.034-1.47,9.278,2.464,11.891    c3.959,2.648,8.298,0.656,10.846-3.383l5.351-13.336l124.253,83.086l-98.83,18.048c-7.025,1.144-12.072,8.249-10.506,15.159    l21.5,84.146l-69.533,105.512c-4.197,7.201-1.66,16.484,5.542,20.59c7.281,4.185,16.453,1.612,20.645-5.581    c0,0,72.56-110.346,72.833-111.099l3.78,15.418L268.7,371.92c-1.352,8.193,4.209,15.929,12.452,17.313    c8.221,1.396,15.982-4.172,17.382-12.365l11.238-90.347c0.357-2.179-0.089-6.973-0.607-9.031l-24.769-99.738l64.531-11.751    C355.845,164.767,360.493,158.049,359.304,151.018z"/>
  </g>
</g>
</svg>