<svg xmlns="http://www.w3.org/2000/svg" xmlns:xlink="http://www.w3.org/1999/xlink" version="1.1" id="G" x="0px" y="0px" viewBox="0 0 500 500" enable-background="new 0 0 500 500" xml:space="preserve">
<circle fill="#8DA37B" cx="250" cy="250" r="233.443"/>
<g>
  <g>
    <path fill="#FFFFFF" d="M396.167,356.336l-27.87-97.259c-0.858-2.987-3.598-5.046-6.706-5.046h-11.835v49.833    c0,11.526-9.381,20.911-20.911,20.911H171.294c-11.536,0-20.911-9.385-20.911-20.911c0,0-0.102,0.143-0.12,0.172    c0-0.059-0.02-0.111-0.02-0.172v-49.833h-11.834c-3.108,0-5.848,2.059-6.706,5.046l-27.87,97.259    c-0.604,2.104-0.191,4.363,1.132,6.114c1.309,1.749,3.381,2.775,5.562,2.775c0.025,0.003,278.947,0,278.947,0    c2.182,0,4.254-1.026,5.562-2.775C396.358,360.699,396.771,358.44,396.167,356.336z"/>
    <path fill="#FFFFFF" d="M152.194,203.054l97.742-84.038l97.74,84.038c1.971,1.693,4.392,2.525,6.794,2.525    c2.949,0,5.873-1.232,7.939-3.636c3.763-4.382,3.279-10.983-1.112-14.742l-104.549-89.9c-3.909-3.372-9.718-3.372-13.634,0    l-104.554,89.901c-4.379,3.759-4.881,10.361-1.118,14.743C141.225,206.324,147.835,206.824,152.194,203.054z"/>
    <path fill="#FFFFFF" d="M245.38,132.338l-78.782,67.974c-1.524,1.335-2.409,3.259-2.409,5.282v98.272    c0,3.852,3.121,6.967,6.966,6.967h157.551c3.857,0,6.979-3.115,6.979-6.967v-98.272c0-2.023-0.884-3.947-2.429-5.282    l-78.769-67.974C251.875,130.084,247.992,130.084,245.38,132.338z M242.958,280.008c0,3.849-3.121,6.973-6.967,6.973h-24.394    c-3.858,0-6.979-3.124-6.979-6.973V255.59c0-3.849,3.121-6.97,6.979-6.97h24.394c3.846,0,6.967,3.121,6.967,6.97V280.008z     M242.958,227.708c0,3.851-3.121,6.972-6.967,6.972h-24.394c-3.858,0-6.979-3.121-6.979-6.972v-24.416    c0-3.852,3.121-6.973,6.979-6.973h24.394c3.846,0,6.967,3.121,6.967,6.973V227.708z M256.902,203.292    c0-3.852,3.114-6.973,6.979-6.973h24.388c3.845,0,6.965,3.121,6.965,6.973v24.416c0,3.851-3.12,6.972-6.965,6.972h-24.388    c-3.865,0-6.979-3.121-6.979-6.972V203.292z M256.902,255.589c0-3.849,3.114-6.97,6.979-6.97h24.388    c3.845,0,6.965,3.121,6.965,6.97v24.419c0,3.848-3.12,6.972-6.965,6.972h-24.388c-3.865,0-6.979-3.123-6.979-6.972V255.589z"/>
  </g>
</g>
</svg>