<svg xmlns="http://www.w3.org/2000/svg" xmlns:xlink="http://www.w3.org/1999/xlink" version="1.1" id="T" x="0px" y="0px" viewBox="-170 -170 840 840" style="enable-background:new 0 0 840 840;" xml:space="preserve">
  <circle fill="#A97C50" cx="250" cy="250" r="392"/>
  <g>
    <path fill="#FFFFFF" d="m106 282h-90c-8.284 0-15 6.716-15 15v200c0 8.284 6.716 15 15 15h90c8.284 0 15-6.716 15-15v-200c0-8.284-6.716-15-15-15z"/>
    <path fill="#FFFFFF" d="m487.792 300.972c-15.082-6.894-32.857-3.691-44.582 8.035-14.093 14.095-33.597 33.6-50.793 50.799-.161 37.093-30.38 67.223-67.51 67.223h-76.907c-8.284 0-15-6.716-15-15s6.716-15 15-15h76.908c20.719 0 37.516-16.796 37.516-37.516 0-20.724-16.801-37.523-37.525-37.52l-53.357.007c-37.177-21.347-81.33-24.406-120.542-9.136v164.238c35.075 8.161 71.027 12.299 106.988 12.299 34.572 0 69.237-3.833 103.04-11.394 21.271-4.767 40.671-15.419 56.104-30.808l82.197-82.006c19.615-19.569 13.662-52.703-11.537-64.221z"/>
    <path fill="#FFFFFF" d="m174.577 233.971 12.352-7.132c7.49 5.679 15.535 10.359 24.07 14v14.161c0 8.284 6.716 15 15 15h60c8.284 0 15-6.716 15-15v-14.161c8.535-3.641 16.58-8.321 24.07-14l12.352 7.132c7.174 4.142 16.348 1.684 20.49-5.49l30-51.962c4.142-7.174 1.684-16.348-5.49-20.49l-12.3-7.102c.585-4.671.879-9.327.879-13.927s-.294-9.256-.877-13.927l12.3-7.102c7.174-4.142 9.632-13.316 5.49-20.49l-30-51.962c-4.142-7.174-13.316-9.633-20.49-5.49l-12.353 7.131c-7.488-5.678-15.535-10.359-24.07-14v-14.16c0-8.284-6.716-15-15-15h-60c-8.284 0-15 6.716-15 15v14.16c-8.535 3.641-16.582 8.322-24.07 14l-12.352-7.132c-7.174-4.142-16.348-1.684-20.49 5.49l-30 51.962c-4.142 7.174-1.684 16.348 5.49 20.49l12.3 7.102c-.584 4.672-.878 9.328-.878 13.928s.294 9.256.877 13.927l-12.3 7.102c-7.174 4.142-9.632 13.316-5.49 20.49l30 51.962c4.142 7.175 13.316 9.633 20.49 5.49zm81.423-143.971c24.813 0 45 20.187 45 45s-20.187 45-45 45-45-20.187-45-45 20.187-45 45-45z"/>
  </g>
</svg>