<svg xmlns="http://www.w3.org/2000/svg" xmlns:xlink="http://www.w3.org/1999/xlink" version="1.1" id="J" x="0px" y="0px" viewBox="0 0 500 500" enable-background="new 0 0 500 500" xml:space="preserve">
<circle fill="#438CCB" cx="250" cy="250" r="233.443"/>
<g>
  <g>
    <path fill="#FFFFFF" d="M284.521,294.381c0,2.672-0.979,4.984-2.93,6.936c-1.953,1.953-4.266,2.93-6.936,2.93h-49.311    c-2.673,0-4.983-0.977-6.936-2.93c-1.952-1.949-2.928-4.264-2.928-6.936v-24.654H111.927v73.969c0,6.779,2.413,12.58,7.242,17.41    c4.829,4.828,10.634,7.242,17.414,7.242h226.835c6.779,0,12.584-2.414,17.412-7.242c4.832-4.83,7.242-10.631,7.242-17.41v-73.969    H284.521V294.381L284.521,294.381z"/>
    <rect x="230.273" y="269.727" fill="#FFFFFF" width="39.453" height="19.725"/>
    <path fill="#FFFFFF" d="M380.83,178.345c-4.828-4.829-10.633-7.243-17.412-7.243h-54.244v-24.656c0-4.11-1.438-7.602-4.316-10.479    c-2.873-2.875-6.367-4.314-10.475-4.314H205.62c-4.109,0-7.601,1.439-10.478,4.314c-2.878,2.875-4.315,6.368-4.315,10.479v24.656    h-54.244c-6.779,0-12.585,2.414-17.414,7.243s-7.242,10.631-7.242,17.412v59.175h276.145v-59.175    C388.072,188.976,385.662,183.174,380.83,178.345z M289.451,171.102h-78.9v-19.726h78.9V171.102z"/>
  </g>
</g>
</svg>