<svg xmlns="http://www.w3.org/2000/svg" xmlns:xlink="http://www.w3.org/1999/xlink" version="1.1" id="M" x="0px" y="0px" viewBox="0 0 500 500" enable-background="new 0 0 500 500" xml:space="preserve">
<circle fill="#606D80" cx="250" cy="250" r="233.443"/>
<g>
  <path fill="#FFFFFF" d="M231.022,302.983h-95.507c-2.22,0-4.027-1.809-4.027-4.028V143.569c0-2.22,1.808-4.027,4.027-4.027h228.96   c2.221,0,4.027,1.808,4.027,4.027v34.031c6.706,0.792,12.989,2.989,18.333,6.602v-40.633c0-12.331-10.034-22.361-22.361-22.361   H135.516c-12.326,0-22.361,10.03-22.361,22.361v155.385c0,12.331,10.035,22.362,22.361,22.362h76.743v29.976h-12.102   c-7.592,0-13.751,6.154-13.751,13.75s6.159,13.75,13.751,13.75h38.6c-4.824-6.785-7.733-15.021-7.733-23.964L231.022,302.983   L231.022,302.983z"/>
  <path fill="#FFFFFF" d="M307.972,364.925v-19.806h-40.283V218.617c0-2.668,2.167-4.839,4.834-4.839h91.147   c2.667,0,4.833,2.171,4.833,4.839v39.15h6.867c4.198,0,8.084,1.213,11.466,3.191v-42.342c0-12.779-10.393-23.173-23.167-23.173   h-91.146c-12.773,0-23.167,10.394-23.167,23.173v136.21c0,12.779,10.393,23.172,23.167,23.172h39.585   C309.583,374.374,307.972,369.322,307.972,364.925z"/>
  <path fill="#FFFFFF" d="M375.37,269.227h-44.464c-6.329,0-11.477,5.151-11.477,11.48v84.218c0,6.329,5.147,11.477,11.477,11.477   h44.464c6.329,0,11.476-5.147,11.476-11.477v-84.219C386.846,274.378,381.699,269.227,375.37,269.227z M333.18,282.977h39.916v72.8   H333.18V282.977z M353.143,370.824c-1.263,0-2.39-0.511-3.249-1.298c-0.977-0.887-1.603-2.132-1.603-3.551   c0-2.676,2.166-4.843,4.852-4.843c2.668,0,4.834,2.167,4.834,4.843c0,1.419-0.627,2.664-1.593,3.551   C355.523,370.313,354.396,370.824,353.143,370.824z"/>
</g>
</svg>