<svg xmlns="http://www.w3.org/2000/svg" xmlns:xlink="http://www.w3.org/1999/xlink" version="1.1" id="N" x="0px" y="0px" viewBox="0 0 500 500" enable-background="new 0 0 500 500" xml:space="preserve">
<circle fill="#447D9C" cx="250" cy="250" r="233.443"/>
<g>
  <g>
    <path fill="#FFFFFF" d="M373.779,331.788V134.287c0-5.839-7.361-7.362-7.361-7.362H214.104c-22.086,0-22.086,23.608-22.086,23.608    v61.179c40.871,6.093,72.35,41.379,72.35,83.774c0,19.801-6.854,38.078-18.277,52.547h96.211c4.316,0,7.87-3.553,7.87-7.869    h15.739C374.287,340.165,373.779,331.788,373.779,331.788z M349.917,325.694V158.657c0-4.315-3.554-7.87-7.87-7.87h-13.454v71.588    c0,0.507-0.254,1.015-0.761,1.269c-0.509,0.254-1.016,0-1.523-0.254l-21.832-22.085l-21.832,21.831    c-0.254,0.254-0.508,0.508-1.016,0.508c-0.254,0-0.254,0-0.508,0c-0.507-0.254-0.762-0.762-0.762-1.269v-71.588h-72.602    c0-5.331,4.569-8.123,8.123-8.123s134.291,0,134.291,0c8.377,0,8.123,7.362,8.123,7.362v169.83l0,0    C358.294,319.856,358.801,325.694,349.917,325.694z"/>
    <path fill="#FFFFFF" d="M178.31,223.391c-39.855,0-72.096,32.24-72.096,71.843c0,39.602,32.24,71.84,71.841,71.84    c39.855,0.254,72.096-31.984,72.096-71.84C250.151,255.631,217.911,223.391,178.31,223.391z M187.956,232.529l-5.077,27.417    c-2.285-0.254-4.315-0.254-6.093-0.254c-1.777,0-3.808,0.508-6.093,1.016l-7.87-26.909    C171.202,231.514,179.833,231.261,187.956,232.529z M178.31,323.665c-15.74,0-28.433-12.693-28.433-28.178    c0-15.74,12.693-28.434,28.433-28.434c15.738,0,28.431,12.693,28.431,28.434C206.488,310.972,193.795,323.665,178.31,323.665z"/>
    <path fill="#FFFFFF" d="M178.31,284.825c-5.839,0-10.408,4.822-10.408,10.408c0,5.584,4.823,10.406,10.408,10.406    c5.838,0,10.408-4.822,10.408-10.406C188.718,289.394,183.895,284.825,178.31,284.825z"/>
  </g>
</g>
</svg>