<svg xmlns="http://www.w3.org/2000/svg" xmlns:xlink="http://www.w3.org/1999/xlink" version="1.1" id="R" x="0px" y="0px" viewBox="0 0 500 500" enable-background="new 0 0 500 500" xml:space="preserve">
<circle fill="#29665B" cx="250" cy="250" r="233.443"/>
<g>
  <path fill="#FFFFFF" d="M141.166,375.765c0,0-0.267,6.683,6.262,6.683c8.123,0,75.364-0.09,75.364-0.09l0.109-61.751   c0,0-1.062-10.181,8.819-10.181h31.27c11.685,0,10.967,10.181,10.967,10.181l-0.135,61.552c0,0,63.756,0,73.771,0   c8.286,0,7.912-8.32,7.912-8.32V259.99l-103.968-92.479L141.166,259.99V375.765z"/>
  <path fill="#FFFFFF" d="M100.513,251.383c0,0,9.372,17.272,29.808,0l122.136-103.324l114.51,102.682   c23.657,17.062,32.521,0,32.521,0L252.456,117.553L100.513,251.383z"/>
  <polygon fill="#FFFFFF" points="364.19,147.815 334.734,147.815 334.857,183.533 364.19,208.417  "/>
</g>
</svg>