<svg xmlns="http://www.w3.org/2000/svg" viewBox="0 0 101 79" fill="none" id="add_image">
<g clip-path="url(#clip0_62_38)">
<path d="M69.6691 16.1748H49.7777L45.761 9.42693C45.3681 8.76719 44.6572 8.36298 43.8894 8.36298H31.2564C30.4886 8.36298 29.7775 8.76719 29.3848 9.42693L25.3681 16.1748H18.8409V14.6875C18.8409 13.4847 17.8657 12.5095 16.6628 12.5095H8.60382C7.40073 12.5095 6.42579 13.4847 6.42579 14.6875V16.1748H5.47701C2.45191 16.1748 0 18.6269 0 21.6515V61.3061C0 64.331 2.45191 66.7831 5.47676 66.7831H69.6691C72.6939 66.7831 75.1461 64.331 75.1461 61.3061V21.6515C75.1463 18.6269 72.6939 16.1748 69.6691 16.1748ZM37.5729 57.0684C28.963 57.0684 21.9833 50.0888 21.9833 41.4786C21.9833 32.8689 28.963 25.889 37.5729 25.889C46.1829 25.889 53.1625 32.8689 53.1625 41.4786C53.1625 50.0888 46.1829 57.0684 37.5729 57.0684ZM66.252 27.4662H59.4271C58.2243 27.4662 57.2491 26.491 57.2491 25.2879C57.2491 24.0849 58.2243 23.1097 59.4271 23.1097H66.252C67.4553 23.1097 68.4303 24.0849 68.4303 25.2879C68.4303 26.491 67.4551 27.4662 66.252 27.4662Z" fill="#C0C0C0"/>
<path d="M37.5729 52.3695C43.5878 52.3695 48.4638 47.4935 48.4638 41.4786C48.4638 35.4637 43.5878 30.5877 37.5729 30.5877C31.558 30.5877 26.682 35.4637 26.682 41.4786C26.682 47.4935 31.558 52.3695 37.5729 52.3695Z" fill="#C0C0C0"/>
</g>
<path d="M100.195 57.8049C100.195 69.5106 90.7057 79 79 79C67.2942 79 57.8049 69.5106 57.8049 57.8049C57.8049 46.0991 67.2942 36.6097 79 36.6097C90.7057 36.6097 100.195 46.0991 100.195 57.8049Z" fill="#7DB974"/>
<g clip-path="url(#clip1_62_38)">
<path d="M86.9406 56.1114H80.6935V49.8642C80.6935 48.9289 79.9353 48.1707 79 48.1707C78.0647 48.1707 77.3065 48.9289 77.3065 49.8642V56.1114H71.0593C70.124 56.1114 69.3658 56.8696 69.3658 57.8049C69.3658 58.7402 70.124 59.4984 71.0593 59.4984H77.3065V65.7455C77.3065 66.6808 78.0647 67.439 79 67.439C79.9353 67.439 80.6935 66.6808 80.6935 65.7455V59.4984H86.9406C87.8759 59.4984 88.6341 58.7402 88.6341 57.8049C88.6341 56.8696 87.8759 56.1114 86.9406 56.1114Z" fill="white"/>
</g>
<defs>
<clipPath id="clip0_62_38">
<rect width="75.1463" height="75.1463" fill="white"/>
</clipPath>
<clipPath id="clip1_62_38">
<rect width="19.2683" height="19.2683" fill="white" transform="translate(69.3658 48.1707)"/>
</clipPath>
</defs>
</svg>