<svg xmlns="http://www.w3.org/2000/svg" fill="none" viewBox="0.15 0 98.99 99" id="aqs_very_low">
<mask id="mask0_29_2" style="mask-type:luminance" maskUnits="userSpaceOnUse" x="0" y="0" width="100" height="99">
<path d="M0.151855 0H99.1392V99H0.151855V0Z" fill="white"/>
</mask>
<g mask="url(#mask0_29_2)">
<path d="M49.6519 0C46.4008 0 43.175 0.328902 39.9871 0.961407C36.7993 1.59392 33.7127 2.53003 30.7019 3.76974C27.7039 5.02211 24.8576 6.54012 22.1505 8.34909C19.4433 10.1581 16.9512 12.2074 14.6489 14.4971C12.3466 16.7994 10.2973 19.3041 8.50095 21.9986C6.69198 24.7057 5.16131 27.552 3.9216 30.5627C2.68188 33.5608 1.73312 36.6601 1.10062 39.8479C0.468108 43.0358 0.151855 46.2489 0.151855 49.5C0.151855 52.7511 0.468108 55.9642 1.10062 59.1521C1.73312 62.3399 2.68188 65.4392 3.9216 68.4373C5.16131 71.448 6.69198 74.2943 8.50095 77.0014C10.2973 79.6959 12.3466 82.2006 14.6489 84.5029C16.9512 86.7926 19.4433 88.8419 22.1505 90.6509C24.8576 92.4599 27.7039 93.9779 30.7019 95.2303C33.7127 96.47 36.7993 97.4061 39.9871 98.0386C43.175 98.6837 46.4008 99 49.6519 99C52.9029 99 56.1161 98.6837 59.3039 98.0386C62.4917 97.4061 65.591 96.47 68.5891 95.2303C71.5872 93.9779 74.4461 92.4599 77.1406 90.6509C79.8477 88.8419 82.3525 86.7926 84.6421 84.5029C86.9445 82.2006 88.9938 79.6959 90.8028 77.0014C92.6117 74.2943 94.1297 71.448 95.3695 68.4373C96.6218 65.4392 97.5579 62.3399 98.1904 59.1521C98.823 55.9642 99.1392 52.7511 99.1392 49.5C99.1392 46.2489 98.823 43.0358 98.1778 39.8479C97.5453 36.6601 96.6092 33.5735 95.3568 30.5627C94.1171 27.5647 92.5864 24.7184 90.7901 22.0112C88.9811 19.3168 86.9318 16.812 84.6295 14.5224C82.3272 12.22 79.8351 10.1707 77.128 8.36174C74.4335 6.55277 71.5872 5.03475 68.5765 3.78239C65.5784 2.54268 62.4917 1.60657 59.3039 0.961407C56.1161 0.328902 52.9029 0.0126493 49.6519 0ZM49.6519 91.9286C46.8562 91.9286 44.0984 91.6503 41.366 91.1063C38.6336 90.5624 35.9897 89.7654 33.4091 88.6901C30.8411 87.6275 28.3996 86.3246 26.0846 84.7686C23.757 83.2253 21.6191 81.4669 19.6457 79.4935C17.6849 77.5327 15.9266 75.3822 14.3706 73.0672C12.8273 70.7522 11.5243 68.3108 10.4491 65.7301C9.38646 63.1622 8.57685 60.5056 8.04554 57.7732C7.50159 55.0408 7.22328 52.283 7.22328 49.5C7.22328 46.717 7.50159 43.9592 8.04554 41.2268C8.57685 38.4944 9.38646 35.8378 10.4491 33.2699C11.5243 30.6892 12.8273 28.2478 14.3706 25.9328C15.9266 23.6178 17.6849 21.4673 19.6457 19.5065C21.6191 17.5331 23.757 15.7747 26.0846 14.2314C28.3996 12.6754 30.8411 11.3725 33.4091 10.3099C35.9897 9.2346 38.6336 8.43764 41.366 7.89369C44.0984 7.34973 46.8562 7.07143 49.6519 7.07143C52.4349 7.07143 55.1926 7.34973 57.925 7.89369C60.6575 8.43764 63.314 9.2346 65.882 10.3099C68.4626 11.3725 70.9041 12.6754 73.2191 14.2314C75.534 15.7747 77.6719 17.5331 79.6453 19.5065C81.6188 21.4673 83.3771 23.6178 84.9204 25.9328C86.4638 28.2478 87.7794 30.6892 88.842 33.2699C89.9046 35.8378 90.7142 38.4944 91.2582 41.2268C91.8021 43.9592 92.0678 46.717 92.0678 49.5C92.0678 52.283 91.7895 55.0408 91.2455 57.7732C90.7016 60.5056 89.892 63.1622 88.8293 65.7301C87.7667 68.2981 86.4511 70.7396 84.9078 73.0546C83.3645 75.3695 81.6061 77.5201 79.6327 79.4808C77.6593 81.4543 75.5214 83.2126 73.2064 84.7559C70.8914 86.3119 68.45 87.6149 65.882 88.6775C63.3014 89.7527 60.6575 90.5624 57.925 91.1063C55.1926 91.6503 52.4349 91.9159 49.6519 91.9286Z" fill="#FF5757"/>
</g>
<path d="M49.6518 53.042C47.1976 53.0547 44.8068 53.4721 42.4918 54.2818C40.1768 55.104 38.0642 56.2805 36.1414 57.8111C34.2312 59.3418 32.612 61.1508 31.3091 63.2254C30.0061 65.3127 29.07 67.5391 28.526 69.93C28.4122 70.398 28.4122 70.8534 28.4881 71.3088C28.564 71.7769 28.7284 72.207 28.9814 72.5992C29.2344 73.004 29.5507 73.3329 29.9302 73.5985C30.3097 73.8768 30.7398 74.0539 31.1952 74.1678C31.6506 74.269 32.106 74.2816 32.5741 74.1931C33.0295 74.1172 33.4596 73.9527 33.8644 73.6997C34.2565 73.4467 34.5854 73.1305 34.8638 72.751C35.1294 72.3715 35.3192 71.954 35.4204 71.4859C35.7872 69.8794 36.4071 68.3614 37.2799 66.9572C38.1528 65.553 39.2407 64.3386 40.531 63.3013C41.834 62.264 43.2508 61.467 44.8194 60.9231C46.388 60.3791 47.9946 60.1008 49.6518 60.1008C51.3089 60.1008 52.9155 60.3791 54.4715 60.9231C56.0401 61.467 57.4696 62.264 58.7599 63.3013C60.0502 64.3386 61.1381 65.553 62.0109 66.9572C62.8965 68.3614 63.5163 69.8794 63.8705 71.4859C64.0603 72.2956 64.4651 72.9534 65.1102 73.472C65.7554 73.9907 66.5017 74.2437 67.324 74.2437C67.5897 74.2437 67.8427 74.2184 68.1083 74.1678C68.5637 74.0539 68.9812 73.8768 69.3733 73.5985C69.7528 73.3329 70.0691 72.9913 70.3221 72.5992C70.5751 72.1944 70.7395 71.7642 70.8154 71.3088C70.8913 70.8408 70.8787 70.3854 70.7775 69.9173C70.2209 67.5265 69.2974 65.3 67.9818 63.2254C66.6789 61.1381 65.0596 59.3418 63.1495 57.8111C61.2266 56.2805 59.1141 55.104 56.7991 54.2818C54.4841 53.4595 52.1059 53.0547 49.6518 53.042Z" fill="#FF5757"/>
<path d="M42.5804 37.1282C42.5804 37.8239 42.4412 38.507 42.1756 39.1522C41.9099 39.81 41.5178 40.3793 41.0244 40.8726C40.5311 41.3786 39.9492 41.7581 39.304 42.0238C38.6588 42.2894 37.9757 42.4286 37.28 42.4286C36.5716 42.4286 35.8885 42.2894 35.2433 42.0238C34.5982 41.7581 34.0162 41.3786 33.5229 40.8726C33.0295 40.3793 32.65 39.81 32.3717 39.1522C32.1061 38.507 31.9669 37.8239 31.9669 37.1282C31.9669 36.4198 32.1061 35.7493 32.3717 35.0915C32.65 34.4463 33.0295 33.8771 33.5229 33.3711C34.0162 32.8777 34.5982 32.4982 35.2433 32.2326C35.8885 31.9543 36.5716 31.8278 37.28 31.8278C37.9757 31.8278 38.6588 31.9543 39.304 32.2326C39.9492 32.4982 40.5311 32.8777 41.0244 33.3711C41.5178 33.8771 41.9099 34.4463 42.1756 35.0915C42.4412 35.7493 42.5804 36.4198 42.5804 37.1282Z" fill="#FF5757"/>
<path d="M67.324 37.1282C67.324 37.8239 67.1849 38.507 66.9192 39.1522C66.6536 39.81 66.2741 40.3793 65.7681 40.8726C65.2747 41.3786 64.7054 41.7581 64.0476 42.0238C63.4025 42.2894 62.7194 42.4286 62.0236 42.4286C61.3152 42.4286 60.6448 42.2894 59.9869 42.0238C59.3418 41.7581 58.7725 41.3786 58.2665 40.8726C57.7732 40.3793 57.3937 39.81 57.128 39.1522C56.8497 38.507 56.7232 37.8239 56.7232 37.1282C56.7232 36.4198 56.8497 35.7493 57.128 35.0915C57.3937 34.4463 57.7732 33.8771 58.2665 33.3711C58.7725 32.8777 59.3418 32.4982 59.9869 32.2326C60.6448 31.9543 61.3152 31.8278 62.0236 31.8278C62.7194 31.8278 63.4025 31.9543 64.0476 32.2326C64.7054 32.4982 65.2747 32.8777 65.7681 33.3711C66.2741 33.8771 66.6536 34.4463 66.9192 35.0915C67.1849 35.7493 67.324 36.4198 67.324 37.1282Z" fill="#FF5757"/>
</svg>