<svg xmlns="http://www.w3.org/2000/svg" xmlns:xlink="http://www.w3.org/1999/xlink" zoomAndPan="magnify" preserveAspectRatio="xMidYMid meet" version="1.0" viewBox="37.88 37.95 24.33 12.25" id="aqs"><defs><clipPath id="e7592b9a88"><path d="M 37.882812 37.949219 L 62.214844 37.949219 L 62.214844 50.113281 L 37.882812 50.113281 Z M 37.882812 37.949219 " clip-rule="nonzero"/></clipPath><clipPath id="4d1b92f977"><path d="M 37.882812 50.113281 C 37.882812 43.394531 43.328125 37.949219 50.046875 37.949219 C 56.765625 37.949219 62.214844 43.394531 62.214844 50.113281 L 57.832031 50.113281 C 57.832031 45.8125 54.347656 42.328125 50.046875 42.328125 C 45.75 42.328125 42.261719 45.8125 42.261719 50.113281 L 37.882812 50.113281 " clip-rule="nonzero"/></clipPath><clipPath id="e0e271ff08"><path d="M 42.546875 41.964844 L 51.347656 41.964844 L 51.347656 50.195312 L 42.546875 50.195312 Z M 42.546875 41.964844 " clip-rule="nonzero"/></clipPath><clipPath id="f844bad31a"><path d="M 50.871094 48.003906 C 51.191406 48.296875 51.332031 48.738281 51.234375 49.164062 C 51.140625 49.585938 50.824219 49.929688 50.410156 50.058594 C 49.996094 50.1875 49.542969 50.085938 49.222656 49.792969 L 42.640625 42.410156 C 42.578125 42.351562 42.550781 42.261719 42.566406 42.175781 C 42.585938 42.09375 42.648438 42.023438 42.734375 42 C 42.816406 41.972656 42.90625 41.992188 42.96875 42.050781 L 50.871094 48.003906 " clip-rule="nonzero"/></clipPath></defs><g clip-path="url(#e7592b9a88)"><g clip-path="url(#4d1b92f977)"><path fill="#004aad" d="M 37.882812 37.949219 L 62.214844 37.949219 L 62.214844 50.113281 L 37.882812 50.113281 Z M 37.882812 37.949219 " fill-opacity="1" fill-rule="nonzero"/></g></g><g clip-path="url(#e0e271ff08)"><g clip-path="url(#f844bad31a)"><path fill="#ff8500" d="M 37.882812 37.949219 L 62.214844 37.949219 L 62.214844 50.113281 L 37.882812 50.113281 Z M 37.882812 37.949219 " fill-opacity="1" fill-rule="nonzero"/></g></g></svg>