<svg xmlns="http://www.w3.org/2000/svg" fill="none" viewBox="0.01 0 98.99 98.97" id="aqs_very_high">
<mask id="mask0_29_38" style="mask-type:luminance" maskUnits="userSpaceOnUse" x="0" y="0" width="99" height="99">
<path d="M0.0126648 0H99V98.9747H0.0126648V0Z" fill="white"/>
</mask>
<g mask="url(#mask0_29_38)">
<path d="M49.5063 4.93292C24.9429 4.93292 4.94559 24.9302 4.94559 49.4937C4.94559 74.0571 24.9429 94.0418 49.5063 94.0418C74.0698 94.0418 94.0671 74.0571 94.0671 49.4937C94.0671 24.9302 74.0698 4.93292 49.5063 4.93292ZM49.5063 98.9747C22.2235 98.9747 0.0126648 76.7765 0.0126648 49.4937C0.0126648 22.1982 22.2235 0 49.5063 0C76.8018 0 99 22.1982 99 49.4937C99 76.7765 76.8018 98.9747 49.5063 98.9747Z" fill="#00BF63"/>
</g>
<path d="M69.023 57.1713C69.023 67.9226 60.2829 76.6627 49.5316 76.6627C38.7298 76.6627 30.0023 67.9226 30.0023 57.1713H69.023Z" fill="#00BF63"/>
<path d="M42.0311 41.0698C40.665 41.0698 39.5646 39.9567 39.5646 38.6033C39.5646 36.1368 37.5661 34.1384 35.0997 34.1384C32.6458 34.1384 30.6347 36.1368 30.6347 38.6033C30.6347 39.9567 29.5343 41.0698 28.1683 41.0698C26.8149 41.0698 25.7018 39.9567 25.7018 38.6033C25.7018 33.4174 29.9264 29.2054 35.0997 29.2054C40.2856 29.2054 44.4975 33.4174 44.4975 38.6033C44.4975 39.9567 43.3971 41.0698 42.0311 41.0698Z" fill="#00BF63"/>
<path d="M70.8443 41.0698C69.4782 41.0698 68.3778 39.9567 68.3778 38.6033C68.3778 36.1368 66.3667 34.1384 63.9129 34.1384C61.4464 34.1384 59.448 36.1368 59.448 38.6033C59.448 39.9567 58.3475 41.0698 56.9815 41.0698C55.6155 41.0698 54.515 39.9567 54.515 38.6033C54.515 33.4174 58.7397 29.2054 63.9129 29.2054C69.0861 29.2054 73.3107 33.4174 73.3107 38.6033C73.3107 39.9567 72.1977 41.0698 70.8443 41.0698Z" fill="#00BF63"/>
</svg>