<svg xmlns="http://www.w3.org/2000/svg" fill="none" viewBox="0.63 0 98.99 98.99" id="aqs_low">
<mask id="mask0_29_12" style="mask-type:luminance" maskUnits="userSpaceOnUse" x="0" y="0" width="100" height="99">
<path d="M0.627991 0H99.6153V98.9873H0.627991V0Z" fill="white"/>
</mask>
<g mask="url(#mask0_29_12)">
<path d="M50.1153 0C46.8643 0 43.6511 0.316253 40.4633 0.948758C37.2754 1.58127 34.1762 2.51738 31.1781 3.76974C28.18 5.00945 25.3211 6.52747 22.6266 8.33644C19.9195 10.1454 17.4147 12.1947 15.1251 14.4971C12.8227 16.7867 10.7734 19.2915 8.96443 21.9986C7.15546 24.6931 5.63745 27.552 4.39773 30.5501C3.14537 33.5482 2.20926 36.6475 1.57675 39.8353C0.944243 43.0231 0.627991 46.2363 0.627991 49.4873C0.627991 52.7384 0.944243 55.9642 1.57675 59.1521C2.20926 62.3399 3.14537 65.4265 4.39773 68.4373C5.63745 71.4353 7.15546 74.2816 8.96443 76.9888C10.7734 79.6959 12.8227 82.188 15.1251 84.4903C17.4147 86.7926 19.9195 88.8419 22.6266 90.6383C25.3211 92.4472 28.18 93.9779 31.1781 95.2176C34.1762 96.4573 37.2754 97.4061 40.4633 98.0386C43.6511 98.6711 46.8643 98.9873 50.1153 98.9873C53.3664 98.9873 56.5922 98.6711 59.78 98.0386C62.9679 97.4061 66.0545 96.4573 69.0653 95.2176C72.0633 93.9779 74.9096 92.4472 77.6167 90.6383C80.3239 88.8419 82.816 86.7926 85.1183 84.4903C87.4206 82.188 89.4699 79.6959 91.2662 76.9888C93.0752 74.2816 94.6059 71.4353 95.8456 68.4373C97.0853 65.4265 98.0341 62.3399 98.6666 59.1521C99.2991 55.9642 99.6153 52.7384 99.6153 49.4873C99.6153 46.2363 99.2864 43.0231 98.6539 39.8353C98.0214 36.6475 97.0727 33.5608 95.8329 30.5627C94.5806 27.552 93.0626 24.7057 91.2536 22.0112C89.4446 19.3041 87.3953 16.812 85.1056 14.5097C82.8033 12.2074 80.2986 10.1581 77.6041 8.34909C74.897 6.55277 72.0507 5.02211 69.0526 3.78239C66.0545 2.53003 62.9552 1.59392 59.7674 0.961408C56.5796 0.316253 53.3664 0 50.1153 0ZM50.1153 91.9159C47.3323 91.9159 44.5746 91.6376 41.8421 91.0937C39.1097 90.5624 36.4532 89.7527 33.8852 88.6901C31.3046 87.6149 28.8631 86.3119 26.5481 84.7686C24.2332 83.2126 22.0953 81.4543 20.1219 79.4935C18.1484 77.5201 16.3901 75.3822 14.8467 73.0546C13.2908 70.7396 11.9878 68.2981 10.9252 65.7301C9.86259 63.1495 9.05299 60.5056 8.50903 57.7732C7.96507 55.0408 7.69942 52.2704 7.69942 49.4873C7.69942 46.7043 7.96507 43.9466 8.50903 41.2142C9.05299 38.4817 9.86259 35.8252 10.9252 33.2572C11.9878 30.6766 13.2908 28.2351 14.8467 25.9201C16.3901 23.6052 18.1484 21.4673 20.1219 19.4939C22.0953 17.5204 24.2332 15.7621 26.5481 14.2188C28.8631 12.6754 31.3046 11.3598 33.8852 10.2972C36.4532 9.2346 39.1097 8.42499 41.8421 7.88104C44.5746 7.33708 47.3323 7.07143 50.1153 7.07143C52.8984 7.07143 55.6688 7.33708 58.4012 7.88104C61.121 8.42499 63.7775 9.2346 66.3581 10.2972C68.9261 11.3598 71.3676 12.6754 73.6826 14.2188C76.0102 15.7621 78.1481 17.5204 80.1215 19.4939C82.0822 21.4673 83.8406 23.6052 85.3966 25.9201C86.9399 28.2351 88.2429 30.6766 89.3181 33.2572C90.3807 35.8252 91.1777 38.4817 91.7217 41.2142C92.2656 43.9466 92.5439 46.7043 92.5439 49.4873C92.5439 52.2704 92.2656 55.0281 91.7217 57.7605C91.1777 60.493 90.3681 63.1495 89.3055 65.7175C88.2302 68.2855 86.9273 70.7396 85.3839 73.0546C83.828 75.3695 82.0696 77.5074 80.1088 79.4808C78.1354 81.4416 75.9975 83.2 73.6826 84.7559C71.3676 86.2993 68.9135 87.6022 66.3455 88.6775C63.7775 89.7401 61.121 90.5497 58.3885 91.0937C55.6561 91.6376 52.8984 91.9159 50.1153 91.9159Z" fill="#FF5757"/>
</g>
<path d="M50.1154 56.5588C34.2521 56.5588 29.736 64.6675 29.2806 65.591C29.0782 65.9958 28.9517 66.4259 28.9264 66.8813C28.8884 67.3493 28.9517 67.7921 29.0908 68.2222C29.23 68.665 29.445 69.0571 29.7486 69.3987C30.0396 69.7529 30.3938 70.0312 30.7986 70.2336C31.2034 70.4486 31.6462 70.5878 32.1016 70.6257C32.5696 70.6637 33.025 70.6257 33.4678 70.4992C33.9105 70.3601 34.3153 70.1577 34.6695 69.8667C35.0364 69.5758 35.3273 69.2342 35.555 68.8294C35.6815 68.6144 38.667 63.6302 50.1154 63.6302C61.5637 63.6302 64.5492 68.6144 64.6251 68.7535C64.8401 69.171 65.1184 69.5252 65.4726 69.8414C65.8268 70.145 66.2316 70.3727 66.6744 70.5245C67.1171 70.6763 67.5725 70.7269 68.0406 70.7016C68.5087 70.6637 68.9514 70.5372 69.3815 70.3348C69.799 70.1197 70.1532 69.8414 70.4694 69.4872C70.773 69.133 71.0007 68.7282 71.1525 68.2855C71.3043 67.8427 71.3549 67.3873 71.317 66.9192C71.2917 66.4512 71.1652 66.0084 70.9628 65.591C70.4947 64.6675 65.9913 56.5588 50.1154 56.5588Z" fill="#FF5757"/>
<path d="M43.0439 37.1155C43.0439 37.8239 42.9174 38.4944 42.6391 39.1522C42.3735 39.7973 41.994 40.3666 41.5006 40.8726C40.9946 41.366 40.4254 41.7455 39.7802 42.0111C39.1224 42.2894 38.4519 42.4159 37.7435 42.4159C37.0478 42.4159 36.3647 42.2894 35.7195 42.0111C35.0617 41.7455 34.4924 41.366 33.9991 40.8726C33.4931 40.3666 33.1136 39.7973 32.8479 39.1522C32.5823 38.4944 32.4431 37.8239 32.4431 37.1155C32.4431 36.4198 32.5823 35.7366 32.8479 35.0915C33.1136 34.4337 33.4931 33.8644 33.9991 33.3711C34.4924 32.8651 35.0617 32.4856 35.7195 32.2199C36.3647 31.9543 37.0478 31.8151 37.7435 31.8151C38.4519 31.8151 39.1224 31.9543 39.7802 32.2199C40.4254 32.4856 40.9946 32.8651 41.5006 33.3711C41.994 33.8644 42.3735 34.4337 42.6391 35.0915C42.9174 35.7366 43.0439 36.4198 43.0439 37.1155Z" fill="#FF5757"/>
<path d="M67.8003 37.1155C67.8003 37.8239 67.6611 38.4944 67.3955 39.1522C67.1172 39.7973 66.7377 40.3666 66.2443 40.8726C65.751 41.366 65.1691 41.7455 64.5239 42.0111C63.8661 42.2894 63.1956 42.4159 62.4872 42.4159C61.7915 42.4159 61.1084 42.2894 60.4632 42.0111C59.8181 41.7455 59.2361 41.366 58.7428 40.8726C58.2494 40.3666 57.8573 39.7973 57.5916 39.1522C57.326 38.4944 57.1868 37.8239 57.1868 37.1155C57.1868 36.4198 57.326 35.7366 57.5916 35.0915C57.8573 34.4337 58.2494 33.8644 58.7428 33.3711C59.2361 32.8651 59.8181 32.4856 60.4632 32.2199C61.1084 31.9543 61.7915 31.8151 62.4872 31.8151C63.1956 31.8151 63.8661 31.9543 64.5239 32.2199C65.1691 32.4856 65.751 32.8651 66.2443 33.3711C66.7377 33.8644 67.1172 34.4337 67.3955 35.0915C67.6611 35.7366 67.8003 36.4198 67.8003 37.1155Z" fill="#FF5757"/>
</svg>