<svg xmlns="http://www.w3.org/2000/svg" fill="none" viewBox="0.8 0 98.99 99" id="aqs_high">
<path d="M50.2911 4.93243C25.7242 4.93243 5.72989 24.9268 5.72989 49.4937C5.72989 74.0712 25.7242 94.0549 50.2911 94.0549C74.858 94.0549 94.8524 74.0712 94.8524 49.4937C94.8524 24.9268 74.858 4.93243 50.2911 4.93243ZM50.2911 98.9979C23.004 98.9979 0.797455 76.7914 0.797455 49.4937C0.797455 22.2065 23.004 0 50.2911 0C77.5889 0 99.7848 22.2065 99.7848 49.4937C99.7848 76.7914 77.5889 98.9979 50.2911 98.9979Z" fill="#00BF63"/>
<path d="M50.2911 79.1306C37.3144 79.1306 27.1426 72.3141 27.1426 63.603C27.1426 62.2376 28.254 61.1368 29.6088 61.1368C30.9742 61.1368 32.075 62.2376 32.075 63.603C32.075 69.3504 40.4263 74.1982 50.2911 74.1982C60.1666 74.1982 68.5073 69.3504 68.5073 63.603C68.5073 62.2376 69.6081 61.1368 70.9735 61.1368C72.3389 61.1368 73.4397 62.2376 73.4397 63.603C73.4397 72.3141 63.2785 79.1306 50.2911 79.1306Z" fill="#00BF63"/>
<path d="M64.6968 47.1227C59.5209 47.1227 55.3082 42.9206 55.3082 37.7342C55.3082 36.3687 56.409 35.2679 57.7744 35.2679C59.1399 35.2679 60.2407 36.3687 60.2407 37.7342C60.2407 40.1898 62.2412 42.1903 64.6968 42.1903C67.163 42.1903 69.1635 40.1898 69.1635 37.7342C69.1635 36.3687 70.2643 35.2679 71.6297 35.2679C72.9951 35.2679 74.0959 36.3687 74.0959 37.7342C74.0959 42.9206 69.8832 47.1227 64.6968 47.1227Z" fill="#00BF63"/>
<path d="M35.8854 47.1227C30.7095 47.1227 26.4863 42.9206 26.4863 37.7342C26.4863 36.3687 27.5977 35.2679 28.9525 35.2679C30.3179 35.2679 31.4293 36.3687 31.4293 37.7342C31.4293 40.1898 33.4298 42.1903 35.8854 42.1903C38.341 42.1903 40.3521 40.1898 40.3521 37.7342C40.3521 36.3687 41.4529 35.2679 42.8183 35.2679C44.1732 35.2679 45.2845 36.3687 45.2845 37.7342C45.2845 42.9206 41.0613 47.1227 35.8854 47.1227Z" fill="#00BF63"/>
</svg>