<svg xmlns="http://www.w3.org/2000/svg" xmlns:xlink="http://www.w3.org/1999/xlink" viewBox="0 0 30.51 33.028" id="bell--blue">
  <defs>
    <filter id="Path_5" x="0" y="0" width="30.51" height="30.51" filterUnits="userSpaceOnUse">
      <feOffset dy="3" input="SourceAlpha"/>
      <feGaussianBlur stdDeviation="3" result="blur"/>
      <feFlood flood-color="#25408f" flood-opacity="0.149"/>
      <feComposite operator="in" in2="blur"/>
      <feComposite in="SourceGraphic"/>
    </filter>
    <filter id="Path_6" x="3.699" y="13.686" width="23.111" height="19.343" filterUnits="userSpaceOnUse">
      <feOffset dy="3" input="SourceAlpha"/>
      <feGaussianBlur stdDeviation="3" result="blur-2"/>
      <feFlood flood-color="#25408f" flood-opacity="0.149"/>
      <feComposite operator="in" in2="blur-2"/>
      <feComposite in="SourceGraphic"/>
    </filter>
  </defs>
  <g id="notification" transform="translate(5.222 -146.428)">
    <path id="Path_1" data-name="Path 1" d="M1751.359,150.329a.588.588,0,0,0-.832.831,8.8,8.8,0,0,1,2.594,6.263.588.588,0,0,0,1.176,0A9.968,9.968,0,0,0,1751.359,150.329Z" transform="translate(-1734.232 0)" fill="#293286"/>
    <path id="Path_2" data-name="Path 2" d="M3.77,150.333a.588.588,0,0,0-.831,0A9.968,9.968,0,0,0,0,157.428a.588.588,0,0,0,1.176,0,8.8,8.8,0,0,1,2.594-6.263A.588.588,0,0,0,3.77,150.333Z" transform="translate(0 -0.004)" fill="#293286"/>
    <path id="Path_3" data-name="Path 3" d="M1557.172,343.651a.588.588,0,0,0,0,.831,6.3,6.3,0,0,1,1.857,4.482.588.588,0,1,0,1.176,0,7.464,7.464,0,0,0-2.2-5.314A.588.588,0,0,0,1557.172,343.651Z" transform="translate(-1542.658 -191.541)" fill="#293286"/>
    <path id="Path_4" data-name="Path 4" d="M276.453,343.685a.588.588,0,0,0-.831,0,7.466,7.466,0,0,0-2.2,5.313.588.588,0,1,0,1.176,0,6.3,6.3,0,0,1,1.856-4.482A.588.588,0,0,0,276.453,343.685Z" transform="translate(-270.902 -191.575)" fill="#293286"/>
    <g transform="matrix(1, 0, 0, 1, -5.22, 146.43)" filter="url(#Path_5)">
      <path id="Path_5-2" data-name="Path 5" d="M421.389,405.956v-3.01a4.95,4.95,0,0,0-1.011-3.012,5.046,5.046,0,0,0-2.153-1.635,1.847,1.847,0,0,0-3.664,0,5.047,5.047,0,0,0-2.153,1.635,4.95,4.95,0,0,0-1.011,3.012v3.01l-1.2,2.394a.588.588,0,0,0,.526.851h11.334a.588.588,0,0,0,.526-.851Z" transform="translate(-401.14 -390.69)" fill="#293286"/>
    </g>
    <g transform="matrix(1, 0, 0, 1, -5.22, 146.43)" filter="url(#Path_6)">
      <path id="Path_6-2" data-name="Path 6" d="M814.3,1883.706a3.1,3.1,0,0,0,2.555-1.343H811.74A3.1,3.1,0,0,0,814.3,1883.706Z" transform="translate(-799.04 -1862.68)" fill="#293286"/>
    </g>
  </g>
</svg>