<svg xmlns="http://www.w3.org/2000/svg" viewBox="0 0 512 142" fill="none" id="bestseller2">
<path d="M0 23.6667C0 10.5959 10.6232 0 23.7276 0H506.06C510.567 0 513.428 4.81693 511.262 8.75991L477.069 71L511.262 133.24C513.428 137.183 510.567 142 506.06 142H23.7275C10.6232 142 0 131.404 0 118.333V23.6667Z" fill="url(#bestseller2_paint0_linear_198_18)"/>
<path d="M411.902 65.7588C407.914 65.7588 405.237 67.0572 403.869 69.6538C403.104 71.1144 402.721 73.3632 402.721 76.4004V94.5188H392.74V56.6127H402.199V63.2202C403.73 60.6931 405.063 58.9659 406.199 58.0385C408.053 56.4852 410.465 55.7085 413.432 55.7085C413.618 55.7085 413.768 55.7201 413.884 55.7433C414.023 55.7433 414.313 55.7549 414.754 55.778V65.9327C414.128 65.8632 413.571 65.8168 413.084 65.7936C412.597 65.7704 412.203 65.7588 411.902 65.7588Z" fill="white"/>
<path d="M385.646 83.3904C385.39 85.6393 384.22 87.9229 382.133 90.2413C378.887 93.9276 374.343 95.7707 368.501 95.7707C363.679 95.7707 359.424 94.2174 355.738 91.1107C352.052 88.004 350.208 82.9499 350.208 75.9483C350.208 69.3871 351.866 64.3562 355.182 60.8554C358.52 57.3546 362.844 55.6042 368.153 55.6042C371.306 55.6042 374.146 56.1954 376.673 57.3777C379.2 58.5601 381.287 60.4265 382.933 62.9767C384.417 65.2256 385.379 67.8338 385.819 70.8014C386.074 72.5402 386.179 75.0441 386.132 78.3131H360.189C360.328 82.1153 361.522 84.7814 363.771 86.3116C365.139 87.2621 366.785 87.7374 368.709 87.7374C370.75 87.7374 372.407 87.1578 373.682 85.9986C374.378 85.3726 374.992 84.5032 375.526 83.3904H385.646ZM375.839 71.7751C375.676 69.1553 374.876 67.1731 373.439 65.8284C372.025 64.4605 370.263 63.7766 368.153 63.7766C365.858 63.7766 364.073 64.4953 362.798 65.9327C361.546 67.3701 360.757 69.3176 360.433 71.7751H375.839Z" fill="white"/>
<path d="M333.585 43.2586H343.497V94.5188H333.585V43.2586Z" fill="white"/>
<path d="M313.763 43.2586H323.674V94.5188H313.763V43.2586Z" fill="white"/>
<path d="M306.355 83.3904C306.1 85.6393 304.93 87.9229 302.843 90.2413C299.597 93.9276 295.053 95.7707 289.211 95.7707C284.388 95.7707 280.134 94.2174 276.448 91.1107C272.762 88.004 270.918 82.9499 270.918 75.9483C270.918 69.3871 272.576 64.3562 275.891 60.8554C279.23 57.3546 283.554 55.6042 288.863 55.6042C292.016 55.6042 294.856 56.1954 297.383 57.3777C299.91 58.5601 301.997 60.4265 303.643 62.9767C305.127 65.2256 306.089 67.8338 306.529 70.8014C306.784 72.5402 306.889 75.0441 306.842 78.3131H280.899C281.038 82.1153 282.232 84.7814 284.481 86.3116C285.849 87.2621 287.495 87.7374 289.419 87.7374C291.46 87.7374 293.117 87.1578 294.392 85.9986C295.088 85.3726 295.702 84.5032 296.236 83.3904H306.355ZM296.549 71.7751C296.386 69.1553 295.586 67.1731 294.149 65.8284C292.735 64.4605 290.973 63.7766 288.863 63.7766C286.568 63.7766 284.783 64.4953 283.507 65.9327C282.256 67.3701 281.467 69.3176 281.143 71.7751H296.549Z" fill="white"/>
<path d="M245.81 87.1115C248.337 87.1115 250.389 86.8333 251.966 86.2768C254.956 85.2104 256.452 83.2281 256.452 80.3301C256.452 78.6376 255.71 77.3277 254.226 76.4004C252.742 75.4962 250.412 74.6963 247.236 74.0008L241.811 72.7836C236.479 71.5781 232.792 70.2682 230.752 68.8539C227.298 66.4891 225.57 62.7913 225.57 57.7603C225.57 53.1698 227.24 49.356 230.578 46.3189C233.917 43.2818 238.82 41.7632 245.289 41.7632C250.691 41.7632 255.293 43.2006 259.095 46.0755C262.92 48.9271 264.926 53.0771 265.111 58.5254H254.817C254.632 55.4419 253.287 53.251 250.783 51.9527C249.114 51.0948 247.039 50.6659 244.558 50.6659C241.799 50.6659 239.597 51.2224 237.951 52.3352C236.305 53.448 235.482 55.0014 235.482 56.9952C235.482 58.8268 236.293 60.1946 237.916 61.0988C238.959 61.7016 241.185 62.4087 244.593 63.2202L253.426 65.3415C257.298 66.2689 260.219 67.5092 262.19 69.0626C265.25 71.4737 266.78 74.963 266.78 79.5302C266.78 84.2134 264.984 88.1084 261.39 91.2151C257.82 94.2986 252.766 95.8403 246.228 95.8403C239.551 95.8403 234.299 94.3217 230.474 91.2846C226.649 88.2243 224.736 84.028 224.736 78.6956H234.96C235.285 81.0372 235.922 82.7876 236.873 83.9468C238.612 86.0566 241.591 87.1115 245.81 87.1115Z" fill="white"/>
<path d="M200.219 87.4592V94.8665L195.524 95.0404C190.841 95.2027 187.641 94.3913 185.925 92.6061C184.813 91.4701 184.256 89.7197 184.256 87.3549V64.02H178.97V56.9604H184.256V46.3884H194.063V56.9604H200.219V64.02H194.063V84.0511C194.063 85.6045 194.26 86.5782 194.654 86.9723C195.048 87.3433 196.254 87.5288 198.271 87.5288C198.572 87.5288 198.885 87.5288 199.21 87.5288C199.558 87.5056 199.894 87.4824 200.219 87.4592Z" fill="white"/>
<path d="M169.337 58.3515C172.305 60.2526 174.009 63.5216 174.449 68.1584H164.538C164.399 66.8833 164.04 65.8747 163.46 65.1329C162.37 63.7882 160.516 63.1158 157.896 63.1158C155.74 63.1158 154.198 63.452 153.27 64.1243C152.366 64.7967 151.914 65.5849 151.914 66.4891C151.914 67.6252 152.401 68.4482 153.375 68.9582C154.349 69.4915 157.791 70.4073 163.703 71.7056C167.645 72.6329 170.601 74.0356 172.571 75.9135C174.519 77.8146 175.493 80.191 175.493 83.0426C175.493 86.7985 174.09 89.8704 171.285 92.2583C168.502 94.6231 164.19 95.8055 158.348 95.8055C152.389 95.8055 147.984 94.5536 145.133 92.0497C142.304 89.5226 140.89 86.3116 140.89 82.4167H150.94C151.149 84.1787 151.601 85.4306 152.297 86.1725C153.526 87.494 155.798 88.1547 159.113 88.1547C161.06 88.1547 162.602 87.8649 163.738 87.2853C164.897 86.7057 165.477 85.8363 165.477 84.6771C165.477 83.5643 165.013 82.7181 164.086 82.1384C163.159 81.5588 159.716 80.5619 153.757 79.1477C149.468 78.0812 146.443 76.7481 144.681 75.1484C142.919 73.5719 142.038 71.2998 142.038 68.3323C142.038 64.8315 143.406 61.8291 146.141 59.3252C148.9 56.7981 152.772 55.5346 157.757 55.5346C162.486 55.5346 166.346 56.4736 169.337 58.3515Z" fill="white"/>
<path d="M136.021 83.3904C135.766 85.6393 134.596 87.9229 132.509 90.2413C129.263 93.9276 124.719 95.7707 118.877 95.7707C114.054 95.7707 109.8 94.2174 106.114 91.1107C102.428 88.004 100.584 82.9499 100.584 75.9483C100.584 69.3871 102.242 64.3562 105.557 60.8554C108.896 57.3546 113.22 55.6042 118.529 55.6042C121.682 55.6042 124.522 56.1954 127.049 57.3777C129.576 58.5601 131.663 60.4265 133.309 62.9767C134.793 65.2256 135.755 67.8338 136.195 70.8014C136.45 72.5402 136.555 75.0441 136.508 78.3131H110.565C110.704 82.1153 111.898 84.7814 114.147 86.3116C115.515 87.2621 117.161 87.7374 119.085 87.7374C121.126 87.7374 122.783 87.1578 124.058 85.9986C124.754 85.3726 125.368 84.5032 125.902 83.3904H136.021ZM126.215 71.7751C126.052 69.1553 125.252 67.1731 123.815 65.8284C122.401 64.4605 120.639 63.7766 118.529 63.7766C116.234 63.7766 114.449 64.4953 113.173 65.9327C111.922 67.3701 111.133 69.3176 110.809 71.7751H126.215Z" fill="white"/>
<path d="M76.3106 94.5188H53.0801V43.2586H77.9799C84.2628 43.3513 88.7142 45.1713 91.334 48.7184C92.9105 50.8978 93.6988 53.506 93.6988 56.5431C93.6988 59.673 92.9105 62.1885 91.334 64.0896C90.453 65.156 89.1547 66.1298 87.439 67.0108C90.0588 67.9613 92.0295 69.4683 93.351 71.5317C94.6957 73.5951 95.368 76.099 95.368 79.0434C95.368 82.0805 94.6029 84.8046 93.0728 87.2158C92.099 88.8155 90.8819 90.1602 89.4213 91.2498C87.7752 92.5018 85.8277 93.3596 83.5789 93.8233C81.3532 94.2869 78.9304 94.5188 76.3106 94.5188ZM76.0672 71.949H63.3043V85.6161H75.8933C78.1422 85.6161 79.8926 85.3147 81.1445 84.7119C83.4166 83.599 84.5526 81.4661 84.5526 78.3131C84.5526 75.6469 83.4513 73.8153 81.2489 72.8184C80.0201 72.262 78.2929 71.9722 76.0672 71.949ZM81.388 62.1769C82.779 61.3422 83.4745 59.8469 83.4745 57.6907C83.4745 55.3028 82.5472 53.7262 80.6924 52.9612C79.0927 52.4279 77.0525 52.1613 74.5718 52.1613H63.3043V63.4636H75.8933C78.1422 63.4636 79.9737 63.0347 81.388 62.1769Z" fill="white"/>
<defs>
<linearGradient id="bestseller2_paint0_linear_198_18" x1="0" y1="71" x2="516.074" y2="71" gradientUnits="userSpaceOnUse">
<stop stop-color="#EE2F2F"/>
<stop offset="1" stop-color="#FF6972"/>
</linearGradient>
</defs>
</svg>