<svg xmlns="http://www.w3.org/2000/svg" xmlns:xlink="http://www.w3.org/1999/xlink" version="1.1" id="H" x="0px" y="0px" viewBox="0 0 500 500" enable-background="new 0 0 500 500" xml:space="preserve">
<circle fill="#3A468D" cx="250" cy="250" r="233.443"/>
<g>
	<g>
		<path fill="#FFFFFF" d="M390.107,211.769c-1.39-1.687-3.459-2.679-5.629-2.679h-27.586c-6.812-17.961-15.679-35.554-25.758-42.188    c-34.88-22.951-127.377-22.951-162.257,0c-10.086,6.648-18.918,24.255-25.765,42.188h-27.587c-2.189,0-4.252,0.992-5.627,2.679    c-1.375,1.688-1.929,3.913-1.482,6.054l4.09,19.804c0.695,3.374,3.672,5.784,7.103,5.784h8.173    c-7.889,9.1-11.71,20.554-11.767,32.023c-0.05,14.176,5.33,26.977,15.169,36.035c0.105,0.085,0.212,0.155,0.318,0.255v27.7    c0,5.996,4.877,10.887,10.887,10.887h25.446c6.011,0,10.888-4.891,10.888-10.887v-11.129h142.552v11.129    c0,5.996,4.877,10.887,10.887,10.887h25.446c5.997,0,10.888-4.891,10.888-10.887v-27.162c10.44-9.555,15.423-22.709,15.486-35.836    c0.05-11.865-3.955-23.745-12.305-33.03h8.719c3.444,0,6.422-2.41,7.102-5.798l4.098-19.79    C392.014,215.682,391.482,213.47,390.107,211.769z M180.834,185.077c27.8-18.287,110.53-18.287,138.315,0    c5.401,3.543,12.347,17.861,18.712,35.396H162.137C168.488,202.952,175.434,188.634,180.834,185.077z M148.273,278.169    c0-11.837,9.597-21.42,21.42-21.42c11.837,0,21.42,9.583,21.42,21.42c0,11.823-9.583,21.42-21.42,21.42    C157.87,299.589,148.273,289.992,148.273,278.169z M330.589,299.589c-11.822,0-21.42-9.597-21.42-21.42    c0-11.837,9.598-21.42,21.42-21.42c11.837,0,21.42,9.583,21.42,21.42C352.009,289.992,342.412,299.589,330.589,299.589z"/>
	</g>
</g>
</svg>