<svg xmlns="http://www.w3.org/2000/svg" viewBox="0 0 162.26 162.256" id="chat_alt_two"><g transform="translate(0 -0.006)"><g transform="translate(0 49.125)"><g transform="translate(0)"><path d="M66.867,155C30.171,155,0,180.233,0,211.252A52.388,52.388,0,0,0,13.63,246.02L1.175,260.253a4.756,4.756,0,0,0,3.579,7.883H71.621c27.095,0,62.114-23.331,62.114-56.883C133.735,180.233,103.564,155,66.867,155ZM38.029,219.965a9.507,9.507,0,1,1,9.507-9.507A9.519,9.519,0,0,1,38.029,219.965Zm28.839,0a9.507,9.507,0,1,1,9.507-9.507A9.519,9.519,0,0,1,66.867,219.965Zm28.839,0a9.507,9.507,0,1,1,9.507-9.507A9.519,9.519,0,0,1,95.706,219.965Z" transform="translate(0 -154.998)" fill="#fff"/></g></g><g transform="translate(38.848 0.006)"><g transform="translate(0 0)"><path d="M244.844,96.735,233.652,83.677A47.22,47.22,0,0,0,245.991,52.3c0-28.832-27.723-52.289-61.8-52.289-30.812,0-56.989,19.2-61.611,44.194a87.956,87.956,0,0,1,28.02-4.582c41.628,0,75.828,29.075,76.328,64.967h14.307A4.759,4.759,0,0,0,244.844,96.735Z" transform="translate(-122.583 -0.006)" fill="#fff"/></g></g></g></svg>