<svg xmlns="http://www.w3.org/2000/svg" xmlns:xlink="http://www.w3.org/1999/xlink" version="1.1" id="L" x="0px" y="0px" viewBox="0 0 500 500" enable-background="new 0 0 500 500" xml:space="preserve">
<circle fill="#83619E" cx="250" cy="250" r="233.443"/>
<g>
	<path fill="#FFFFFF" d="M264.006,216.195c1.759,0,3.455,0.282,5.087,0.753l30.46-37.335c1.945-2.387,5.557-2.826,7.912-0.816   c2.292,1.915,2.605,5.339,0.691,7.662l-30.113,36.928c2.04,2.827,3.265,6.312,3.265,10.079c0,7.004-4.208,13.063-10.206,15.764   h118.163c4.334,0,7.85-3.517,7.85-7.85v-99.386c0-4.333-3.516-7.85-7.85-7.85H239.167c-4.333,0-7.851,3.517-7.851,7.85v65.252   l7.097,8.981h25.592V216.195z"/>
	<circle fill="#FFFFFF" cx="166.096" cy="141.147" r="32.155"/>
	<g>
		<path fill="#FFFFFF" d="M199.068,383.157c0,4.331-3.518,7.851-7.851,7.851h-13.188c-4.333,0-7.851-3.52-7.851-7.851v-65.818    c0-2.322-1.884-4.206-4.208-4.206l0,0c-2.324,0-4.208,1.884-4.208,4.206v65.502c0,4.493-3.673,8.167-8.164,8.167h-12.906    c-4.333,0-7.85-3.52-7.85-7.851l-0.063-158.892c0-2.136-1.727-3.893-3.894-3.893l0,0c-2.136,0-3.894,1.728-3.894,3.893v61.107    c0,4.333-3.516,7.85-7.85,7.85h-6.406c-4.333,0-7.851-3.517-7.851-7.85v-83.779c0-9.955,8.07-17.993,17.993-17.993h71.501    c7.662,0,14.916,3.519,19.688,9.516l19.218,24.242l4.051,5.118c0,0,18.212,0,28.7,0.031c4.333,0,7.85,3.517,7.85,7.85v6.249    c0,4.334-3.517,7.85-7.85,7.85h-33.976c-3.36,0-6.531-1.538-8.604-4.176l-14.319-18.401c-0.722-0.941-1.884-1.507-3.078-1.507    h-0.973c-2.135,0-3.893,1.728-3.893,3.894L199.068,383.157z"/>
	</g>
</g>
</svg>