<svg xmlns="http://www.w3.org/2000/svg" xmlns:xlink="http://www.w3.org/1999/xlink" version="1.1" width="512" height="512" x="0" y="0" viewBox="0 0 24 24" style="enable-background:new 0 0 512 512" xml:space="preserve" class=""><g><g fill="#fff"><path d="M23.096 1.98 22.02.904c-.591-.59-1.617-.52-2.288.151l-5.128 5.13c-.1.1-.17.226-.202.363l-.633 2.785a.75.75 0 0 0 .897.898l2.785-.633a.748.748 0 0 0 .364-.202l5.13-5.128c.672-.672.74-1.698.15-2.288zm-7.6 6.524.26-1.14c.234.344.536.646.88.88zm2.388-1.297c-.478-.139-.952-.613-1.091-1.09l2.432-2.432 1.09 1.09zm4.002-4-.51.508-1.091-1.091.508-.508c.1-.1.195-.116.172-.146L22 2.981c.002.02-.01.12-.114.226z" fill="#fff" opacity="1" data-original="#fff" class=""/><path d="M2.31 13.085H4V23.5h6.5v-6.75h3v6.75H20V13.085h1.69c1.085 0 1.465-.526 1.595-.839.13-.313.232-.954-.535-1.721l-1.512-1.513-1.061 1.06 1.512 1.513H18.5V22H15v-6.75H9V22H5.5V11.585H2.31l9.513-9.512a.25.25 0 0 1 .354 0l1.875 1.875 1.06-1.06-1.875-1.876a1.751 1.751 0 0 0-2.474 0L1.25 10.525c-.768.767-.665 1.408-.535 1.721.13.313.51.84 1.595.84z" fill="#fff" opacity="1" data-original="#fff" class=""/></g></g></svg>