<svg xmlns="http://www.w3.org/2000/svg" version="1.1" xmlns:xlink="http://www.w3.org/1999/xlink" width="512" height="512" x="0" y="0" viewBox="0 0 512 512" style="enable-background:new 0 0 512 512" xml:space="preserve" class=""><g><path d="M177.258 389.662a8 8 0 0 1 8-8h124.466a8 8 0 0 1 0 16H185.258a8 8 0 0 1-8-8zm8 42.996h62.232a8 8 0 0 0 0-16h-62.232a8 8 0 0 0 0 16zm0-79.81h62.232a8 8 0 0 0 0-16h-62.232a8 8 0 0 0 0 16zm0-79.809h62.232a8 8 0 0 0 0-16h-62.232a8 8 0 0 0 0 16zm0-114.808h124.466a8 8 0 0 0 0-16H185.258a8 8 0 1 0 0 16zm0 34.998h62.232a8 8 0 0 0 0-16h-62.232a8 8 0 1 0 0 16zm-47.112 111.789-27.508 27.766-12.778-12.456a8.001 8.001 0 0 0-11.168 11.458l18.46 17.994a7.971 7.971 0 0 0 5.584 2.271 7.98 7.98 0 0 0 5.684-2.369l33.093-33.404a7.999 7.999 0 0 0-.054-11.313 7.999 7.999 0 0 0-11.313.053zm0-79.811-27.508 27.768-12.778-12.456a8.001 8.001 0 0 0-11.168 11.457l18.46 17.995a7.971 7.971 0 0 0 5.584 2.271 7.973 7.973 0 0 0 5.684-2.371l33.093-33.403a7.999 7.999 0 0 0-.054-11.313 8 8 0 0 0-11.313.052zM97.86 160.709a8 8 0 1 0-11.168 11.458l18.46 17.994a7.971 7.971 0 0 0 5.584 2.271c2.061 0 4.12-.792 5.684-2.37l33.093-33.404a8 8 0 0 0-11.367-11.26l-27.508 27.768zm40.286 224.119-27.508 27.766-12.778-12.455a8.001 8.001 0 0 0-11.168 11.458l18.46 17.994a7.971 7.971 0 0 0 5.584 2.271 7.98 7.98 0 0 0 5.684-2.369l33.093-33.404a7.999 7.999 0 0 0-.054-11.313 7.999 7.999 0 0 0-11.313.052zm372.839-125.094v36.711a8 8 0 0 1-8 8h-12.076a100.196 100.196 0 0 1-10.05 24.246l8.545 8.543a7.997 7.997 0 0 1-.001 11.314l-25.96 25.959a8 8 0 0 1-11.313 0l-8.543-8.545a100.126 100.126 0 0 1-24.244 10.051v12.076a8 8 0 0 1-8 8h-10.357v86.99c0 15.67-12.749 28.42-28.42 28.42H29.435c-15.671 0-28.42-12.75-28.42-28.42V73.1c0-15.671 12.749-28.42 28.42-28.42h131.43L149.422 28.5c-3.852-5.444-4.345-12.501-1.284-18.414C151.198 4.173 157.242.5 163.913.5h63.777c6.671 0 12.716 3.673 15.775 9.586 3.061 5.912 2.568 12.969-1.283 18.414L230.74 44.68h141.825c15.671 0 28.42 12.749 28.42 28.42v86.99h10.357a8 8 0 0 1 8 8v12.077a100.122 100.122 0 0 1 24.242 10.05l8.546-8.546a8.002 8.002 0 0 1 11.314 0l25.959 25.961a8 8 0 0 1 0 11.313l-8.545 8.545a100.226 100.226 0 0 1 10.05 24.244h12.076a8 8 0 0 1 8.001 8zM372.565 60.68h-93.122v17.274h80.269a8 8 0 0 1 8 8v78.131a7.99 7.99 0 0 1 6.918-3.995h10.355V73.1c0-6.849-5.571-12.42-12.42-12.42zM128.161 91.053h135.282V60.68h-48.16a8 8 0 0 1-6.531-12.62l20.368-28.799c.413-.584.459-1.197.137-1.821-.323-.623-.851-.939-1.566-.939h-63.777c-.716 0-1.243.316-1.565.939-.323.624-.277 1.236.137 1.821l20.368 28.799a8 8 0 0 1-6.531 12.62h-48.16v30.373zm-8 16a8 8 0 0 1-8-8v-5.099H50.288v368.272h252.551v-40.873a8 8 0 0 1 8-8h40.873v-42.637a100.427 100.427 0 0 1-9.326-4.752l-8.546 8.545a8 8 0 0 1-11.313 0l-25.96-25.961a8 8 0 0 1 0-11.314l8.545-8.543a100.537 100.537 0 0 1-5.409-10.84H185.258a8 8 0 0 1 0-16h91.844a7.96 7.96 0 0 1-2.116-5.406v-36.711a8 8 0 0 1 8-8h12.075a100.121 100.121 0 0 1 4.766-13.693H185.258a8 8 0 0 1 0-16h114.405l-3.097-3.097a8 8 0 0 1 0-11.313l25.96-25.96a8.002 8.002 0 0 1 11.314 0l8.544 8.545a100.195 100.195 0 0 1 9.327-4.752v-91.51h-72.269v5.099a8 8 0 0 1-8 8zm198.678 322.301v21.56l21.559-21.56zm66.146-33.264H374.63a7.991 7.991 0 0 1-6.918-3.995v29.259a8 8 0 0 1-2.343 5.656l-48.873 48.873a8.003 8.003 0 0 1-5.657 2.344H42.288a8 8 0 0 1-8-8V85.954a8 8 0 0 1 8-8h69.873V60.68H29.435c-6.848 0-12.42 5.571-12.42 12.42v409.98c0 6.848 5.572 12.42 12.42 12.42h343.131c6.849 0 12.42-5.572 12.42-12.42v-86.99zm110-128.356h-10.42a8.001 8.001 0 0 1-7.846-6.436 84.512 84.512 0 0 0-12.658-30.537 8.003 8.003 0 0 1 .997-10.099l7.375-7.374-14.646-14.647-7.375 7.375a8 8 0 0 1-10.098.998c-9.318-6.219-19.593-10.477-30.536-12.657a8 8 0 0 1-6.437-7.846V176.09H382.63v10.422a8 8 0 0 1-6.436 7.845 84.551 84.551 0 0 0-30.538 12.656 7.998 7.998 0 0 1-10.099-.997l-7.374-7.374-14.646 14.646 7.375 7.374a8.002 8.002 0 0 1 .997 10.098c-6.217 9.316-10.476 19.591-12.658 30.539a8.002 8.002 0 0 1-7.846 6.436h-10.419v20.711h10.419c3.815 0 7.1 2.695 7.846 6.436a84.516 84.516 0 0 0 12.658 30.539 8.002 8.002 0 0 1-.997 10.098l-7.375 7.375 14.646 14.646 7.375-7.375a7.998 7.998 0 0 1 10.097-.996c9.319 6.217 19.594 10.475 30.538 12.656a7.998 7.998 0 0 1 6.437 7.846v10.42h20.713v-10.42a8 8 0 0 1 6.436-7.846 84.495 84.495 0 0 0 30.537-12.658 7.998 7.998 0 0 1 10.099.998l7.373 7.373 14.646-14.645-7.375-7.375a8.002 8.002 0 0 1-.997-10.098c6.216-9.314 10.476-19.59 12.658-30.539a8.002 8.002 0 0 1 7.846-6.436h10.42v-20.711zm-36.8 10.356c0 35.951-29.248 65.201-65.199 65.201s-65.2-29.25-65.2-65.201 29.249-65.199 65.2-65.199 65.199 29.248 65.199 65.199zm-16 0c0-27.128-22.07-49.199-49.199-49.199s-49.2 22.071-49.2 49.199c0 27.129 22.071 49.201 49.2 49.201s49.199-22.072 49.199-49.201z" fill="#000000" opacity="1" data-original="#000000" class=""></path></g></svg>