<svg version="1.2" xmlns="http://www.w3.org/2000/svg" viewBox="0 0 77 90" width="77" height="90">
	<title>favorite-svg</title>
	<style>
		.s0 { fill: #ffb32c } 
		.s1 { fill: #fffcee } 
	</style>
	<g id="Layer">
		<path id="Layer" class="s0" d="m8.8 89.3l26.5-13.3q0.6-0.3 1.3-0.5 0.7-0.2 1.4-0.2 0.7 0 1.4 0.2 0.7 0.2 1.3 0.5l26.5 13.3c0.9 0.5 2 0.7 3 0.7 1-0.1 2-0.4 2.9-0.9 0.9-0.5 1.6-1.3 2.1-2.2 0.5-0.9 0.8-1.9 0.8-3v-76.9q0-1.4-0.5-2.7-0.6-1.3-1.5-2.2-1-1-2.3-1.6-1.3-0.5-2.7-0.5h-62q-1.4 0-2.7 0.5-1.3 0.6-2.2 1.6-1 0.9-1.6 2.2-0.5 1.3-0.5 2.7v76.9c0 1.1 0.3 2.1 0.8 3 0.5 0.9 1.2 1.7 2.1 2.2 0.9 0.5 1.9 0.8 2.9 0.9 1 0 2.1-0.2 3-0.7z"/>
		<path id="Layer" class="s1" d="m56.5 34q0.3-0.3 0.4-0.7 0.1-0.4 0-0.8-0.1-0.4-0.4-0.6-0.4-0.3-0.8-0.4l-10.6-1.5q-0.2 0-0.3-0.1-0.2-0.1-0.3-0.2-0.2-0.1-0.3-0.2-0.1-0.1-0.2-0.3l-4.7-9.6q-0.2-0.4-0.5-0.6-0.4-0.2-0.8-0.2-0.4 0-0.8 0.2-0.3 0.2-0.5 0.6l-4.7 9.6q-0.1 0.2-0.2 0.3-0.1 0.1-0.3 0.2-0.1 0.1-0.3 0.2-0.1 0.1-0.3 0.1l-10.6 1.5q-0.4 0.1-0.8 0.4-0.3 0.2-0.4 0.6-0.1 0.4 0 0.8 0.1 0.4 0.4 0.7l7.6 7.5q0.2 0.1 0.3 0.2 0.1 0.2 0.1 0.4 0.1 0.1 0.1 0.3 0 0.2 0 0.3l-1.9 10.6q0 0.4 0.1 0.8 0.2 0.4 0.5 0.6 0.4 0.3 0.8 0.3 0.4 0 0.7-0.2l9.5-5q0.2 0 0.4-0.1 0.1 0 0.3 0 0.2 0 0.3 0 0.2 0.1 0.4 0.1l9.5 5q0.3 0.2 0.7 0.2 0.5 0 0.8-0.3 0.3-0.2 0.5-0.6 0.1-0.4 0.1-0.8l-1.9-10.6q0-0.1 0-0.3 0-0.2 0.1-0.3 0-0.2 0.1-0.4 0.1-0.1 0.3-0.2z"/>
	</g>
</svg>