<svg xmlns="http://www.w3.org/2000/svg" xmlns:xlink="http://www.w3.org/1999/xlink" version="1.1" id="placeholder--gray" x="0px" y="0px" viewBox="0 0 512 512" style="enable-background:new 0 0 512 512;" xml:space="preserve"><g><g>
	<g>
		<path d="M256.1,0h-0.2C147.88,0,60,87.88,60,195.9c0,41.97,13.832,83.602,38.946,117.228L247.482,512h17.037l148.535-198.872    C438.168,279.502,452,237.87,452,195.9C452,87.88,364.12,0,256.1,0z M389.018,295.175L256,473.272L122.982,295.175    C101.713,266.699,90,231.443,90,195.9C90,104.423,164.422,30,255.9,30h0.2C347.578,30,422,104.423,422,195.9    C422,231.443,410.287,266.699,389.018,295.175z" data-original="#000000" class="active-path" data-old_color="#000000" fill="#565656"/>
	</g>
</g><g>
	<g>
		<path d="M256,131c-33.084,0-60,26.916-60,60s26.916,60,60,60c33.084,0,60-26.916,60-60S289.084,131,256,131z M256,221    c-16.542,0-30-13.458-30-30s13.458-30,30-30s30,13.458,30,30S272.542,221,256,221z" data-original="#000000" class="active-path" data-old_color="#000000" fill="#565656"/>
	</g>
</g></g> </svg>