<svg xmlns="http://www.w3.org/2000/svg" viewBox="0 0 100 100" fill="none" id="paf_select">
<g clip-path="url(#clip0_62_11)">
<g clip-path="url(#clip1_62_11)">
<path d="M75.9387 52.4183C75.9387 52.4183 40.4647 38.2289 40.3942 38.2007C39.0876 37.6781 37.6461 39.0067 38.2007 40.3949C38.2007 40.3949 52.3903 75.8674 52.4191 75.9394C53.0037 77.4008 55.1761 77.2856 55.6096 75.7756L60.0887 60.0904C60.0887 60.0904 75.7178 55.6245 75.7754 55.608C77.2851 55.1766 77.3948 53.0015 75.9387 52.4183Z" fill="#C0C0C0"/>
<path d="M30.2971 27.9117C29.6379 27.2525 28.5701 27.2525 27.9109 27.9117C27.2517 28.5709 27.2517 29.6396 27.9109 30.2979L32.6504 35.0366C32.9798 35.366 33.4113 35.5308 33.8429 35.531C35.3192 35.5315 36.0826 33.6951 35.0366 32.6504L30.2971 27.9117Z" fill="#C0C0C0"/>
<path d="M45.6923 35.5252C46.1264 35.5251 46.5602 35.3618 46.8854 35.0367L51.6249 30.298C52.2841 29.6396 52.2841 28.5709 51.6249 27.9117C50.9657 27.2526 49.8978 27.2526 49.2387 27.9117C49.2387 27.9117 44.5213 32.6283 44.4992 32.6503C43.4593 33.6901 44.2338 35.5255 45.6923 35.5252Z" fill="#C0C0C0"/>
<path d="M32.6504 44.4991C32.6504 44.4991 27.933 49.2157 27.9109 49.2377C26.8776 50.2708 27.6507 52.1184 29.104 52.1184C29.5357 52.1184 29.9675 51.9536 30.2971 51.6241L35.0366 46.8854C35.6958 46.227 35.6958 45.1583 35.0366 44.4991C34.3774 43.84 33.3096 43.84 32.6504 44.4991Z" fill="#C0C0C0"/>
<path d="M32.3834 39.7679C32.3834 38.836 31.6287 38.0804 30.6959 38.0804H24.6875C23.7548 38.0804 23 38.836 23 39.7679C23 40.6998 23.7548 41.4554 24.6875 41.4554H30.6959C31.6287 41.4554 32.3834 40.6998 32.3834 39.7679Z" fill="#C0C0C0"/>
<path d="M39.7679 32.3834C40.7006 32.3834 41.4554 31.6279 41.4554 30.6959V24.6875C41.4554 23.7556 40.7006 23 39.7679 23C38.8352 23 38.0804 23.7556 38.0804 24.6875V30.6959C38.0804 31.6278 38.8352 32.3834 39.7679 32.3834Z" fill="#C0C0C0"/>
</g>
<path fill-rule="evenodd" clip-rule="evenodd" d="M15.3846 0H84.6154C93.1121 0 100 6.88793 100 15.3846V84.6154C100 93.1121 93.1121 100 84.6154 100H15.3846C6.88792 100 0 93.1121 0 84.6154V15.3846C0 6.88792 6.88793 0 15.3846 0ZM15.3846 7.69231C11.1363 7.69231 7.69231 11.1363 7.69231 15.3846V84.6154C7.69231 88.8637 11.1363 92.3077 15.3846 92.3077H84.6154C88.8637 92.3077 92.3077 88.8637 92.3077 84.6154V15.3846C92.3077 11.1363 88.8637 7.69231 84.6154 7.69231H15.3846Z" fill="#C0C0C0"/>
</g>
<defs>
<clipPath id="clip0_62_11">
<rect width="100" height="100" rx="4" fill="white"/>
</clipPath>
<clipPath id="clip1_62_11">
<rect width="54" height="54" fill="white" transform="translate(23 23)"/>
</clipPath>
</defs>
</svg>