<svg xmlns="http://www.w3.org/2000/svg" viewBox="0 0 100 100" fill="none" id="paf_stack">
<g clip-path="url(#clip0_62_2)">
<path d="M44.91 84.3007C38.2109 86.0873 31.3255 82.0084 29.5649 75.2103L18.8713 33.9195L5.88971 40.8124C2.7118 42.6339 1.58963 46.7516 3.39861 50.0069L26.8622 91.7196C28.3999 94.4114 31.5249 95.6314 34.3441 94.8795C34.873 94.7385 35.3933 94.5284 35.8883 94.2444L62.8828 79.5074L44.91 84.3007Z" fill="#C0C0C0"/>
<path d="M55.6253 73.0692C47.7785 73.0692 41.3919 66.5881 41.3919 58.6253V10.2603L25.2128 14.0191C21.214 15.0862 18.8161 19.2699 19.8744 23.3651L33.7461 75.924C34.6671 79.3225 37.7448 81.5724 41.047 81.5724C41.6666 81.5724 42.2962 81.4942 42.9191 81.3277L76.6773 73.0692H55.6253Z" fill="#C0C0C0"/>
<path d="M63.1606 30.5871C66.8546 30.5871 69.8587 27.5386 69.8587 23.79C69.8587 20.0414 66.8546 16.9929 63.1606 16.9929C59.4667 16.9929 56.4626 20.0414 56.4626 23.79C56.4626 27.5386 59.4667 30.5871 63.1606 30.5871Z" fill="#C0C0C0"/>
<path d="M100 10.1957C100 4.56427 95.5022 0 89.9529 0H86.2455H56.4626C50.9132 0 46.4155 4.56427 46.4155 10.1957V57.7756C46.4155 63.4071 50.9132 67.9713 56.4626 67.9713H89.9529C95.5022 67.9713 100 63.4071 100 57.7756V10.1957ZM56.4626 6.79713H89.9529C91.8015 6.79713 93.3019 8.31969 93.3019 10.1957V32.0791L90.7566 29.4962C88.4626 27.1681 84.7418 27.1681 82.4511 29.4962L66.5097 45.6733L62.2899 41.3911C59.9958 39.0631 56.275 39.0631 53.9843 41.3911L53.1135 42.2748V10.1957C53.1135 8.31969 54.6139 6.79713 56.4626 6.79713Z" fill="#C0C0C0"/>
</g>
<defs>
<clipPath id="clip0_62_2">
<rect width="100" height="100" fill="white"/>
</clipPath>
</defs>
</svg>