<svg xmlns="http://www.w3.org/2000/svg" viewBox="0 0 100 100" fill="none" id="paf_tips">
<g clip-path="url(#clip0_62_33)">
<path d="M95.1833 52.4417C94.4791 50.8875 94.4791 49.1083 95.1833 47.5542L98.9125 39.3542C100.3 36.3 100.362 32.7708 99.0791 29.6708C97.7958 26.5708 95.2583 24.1167 92.1208 22.9417L83.6833 19.775C82.0874 19.175 80.8291 17.9167 80.2291 16.3167L77.0625 7.88333C75.8875 4.74167 73.4333 2.20417 70.3333 0.920833C67.2333 -0.3625 63.7041 -0.304166 60.6541 1.0875L52.45 4.81667C50.8916 5.52083 49.1125 5.51667 47.5625 4.81667L39.3541 1.09167C36.3 -0.3 32.7708 -0.354167 29.6708 0.925C26.575 2.2125 24.1208 4.75 22.9458 7.8875L19.7791 16.325C19.1791 17.9208 17.9208 19.1792 16.3208 19.7792L7.88745 22.9458C4.74995 24.1208 2.21246 26.575 0.929122 29.675C-0.354211 32.775 -0.295878 36.3042 1.09579 39.3542L4.82079 47.5583C5.52495 49.1125 5.52495 50.8917 4.82079 52.4458L1.09162 60.6458C-0.295878 63.7 -0.358378 67.2292 0.924955 70.3292C2.20829 73.4292 4.74579 75.8833 7.88329 77.0583L16.3208 80.225C17.9166 80.825 19.175 82.0833 19.775 83.6833L22.9416 92.1167C24.1166 95.2583 26.5708 97.7958 29.6708 99.0792C31.1541 99.6917 32.7375 100 34.3208 100C36.0416 100 37.7625 99.6375 39.35 98.9125L47.5541 95.1875C49.1083 94.4792 50.8875 94.4833 52.4416 95.1875L60.6416 98.9167C63.6958 100.308 67.225 100.362 70.325 99.0833C73.425 97.8 75.8791 95.2625 77.0541 92.125L80.2208 83.6875C80.8208 82.0917 82.0791 80.8333 83.6791 80.2333L92.1124 77.0667C95.2541 75.8917 97.7916 73.4375 99.075 70.3375C100.358 67.2375 100.3 63.7083 98.9083 60.6583L95.1833 52.4417ZM58.5 70.3792C58.5 72.9208 56.4166 75.0042 53.8333 75.0042H46.1666C43.9166 75.0042 41.5 73.3375 41.5 69.6292V67.3792H58.5V70.3792ZM61.875 58.0458C60.125 59.4625 59 61.2958 58.625 63.2125H41.4166C41.125 61.3375 40.0833 59.5875 38.375 58.2542C33.75 54.6292 31.125 49.1708 31.25 43.2542C31.4583 33.3375 39.75 25.1292 49.7083 25.0042C54.75 24.8792 59.5833 26.8375 63.2083 30.4208C66.7916 33.9208 68.75 38.6292 68.75 43.6292C68.75 49.2542 66.2541 54.5042 61.875 58.0458Z" fill="#C0C0C0"/>
</g>
<defs>
<clipPath id="clip0_62_33">
<rect width="100" height="100" fill="white"/>
</clipPath>
</defs>
</svg>