<svg xmlns="http://www.w3.org/2000/svg" viewBox="0 0 100 100" fill="none" id="paf_drag">
<g clip-path="url(#clip0_62_24)">
<path d="M70.409 54.3615L73.0697 27.9728C73.1413 27.3219 72.672 26.8553 72.0213 26.9311L45.7985 29.7442C45.148 29.8199 45.1028 30.1036 45.6974 30.3782L57.6543 36.2072L36.2074 57.654L30.3785 45.6971C30.1041 45.1025 29.8202 45.1479 29.7444 45.7982L26.9312 72.0212C26.8554 72.6719 27.3219 73.1412 27.9731 73.0697L54.3618 70.4091C55.0127 70.3375 55.0593 70.0551 54.4659 69.7782L42.5768 63.9238L63.9238 42.5768L69.7782 54.466C70.0551 55.0591 70.3378 55.0124 70.409 54.3615Z" fill="#C0C0C0"/>
</g>
<path fill-rule="evenodd" clip-rule="evenodd" d="M15.3846 0H84.6154C93.1121 0 100 6.88793 100 15.3846V84.6154C100 93.1121 93.1121 100 84.6154 100H15.3846C6.88792 100 0 93.1121 0 84.6154V15.3846C0 6.88792 6.88793 0 15.3846 0ZM15.3846 7.69231C11.1363 7.69231 7.69231 11.1363 7.69231 15.3846V84.6154C7.69231 88.8637 11.1363 92.3077 15.3846 92.3077H84.6154C88.8637 92.3077 92.3077 88.8637 92.3077 84.6154V15.3846C92.3077 11.1363 88.8637 7.69231 84.6154 7.69231H15.3846Z" fill="#C0C0C0"/>
<defs>
<clipPath id="clip0_62_24">
<rect width="46.1538" height="46.1538" fill="white" transform="translate(26.923 26.923)"/>
</clipPath>
</defs>
</svg>