<svg xmlns="http://www.w3.org/2000/svg" xmlns:xlink="http://www.w3.org/1999/xlink" version="1.1" id="premium_gallery_ad" x="0px" y="0px" viewBox="0 0 100 100" enable-background="new 0 0 100 100" xml:space="preserve">
<circle fill="#13C1AC" cx="50" cy="49.653" r="49.653"/>
<g>
	<g id="c84_landscape_1_">
		<path fill="#FFFFFF" d="M27.755,68.366V32.76h-3.981c-0.527,0-0.958,0.429-0.958,0.958v39.32c0,0.533,0.432,0.964,0.958,0.964    h45.444c0.529,0,0.961-0.431,0.961-0.964v-3.714H28.717C28.181,69.324,27.755,68.891,27.755,68.366z"/>
		<path fill="#FFFFFF" d="M76.242,26H30.801c-0.531,0-0.958,0.431-0.958,0.958v39.319c0,0.528,0.429,0.965,0.958,0.965h45.441    c0.529,0,0.961-0.435,0.961-0.965V26.958C77.201,26.431,76.771,26,76.242,26z M42.574,29.575c2.811,0,5.096,2.282,5.096,5.1    c0,2.82-2.283,5.092-5.096,5.092c-2.814,0-5.098-2.272-5.098-5.092C37.479,31.857,39.76,29.575,42.574,29.575z M74.086,55.366    h-0.062H36.494h-3.008v-0.393l8.012-9.153l4.508,3.04l5.254-9.003l6.102,4.329l5.52-11.434l11.205,22.189V55.366z"/>
	</g>
	<g id="Capa_1_1_">
	</g>
</g>
</svg>