<svg xmlns="http://www.w3.org/2000/svg" version="1.1" xmlns:xlink="http://www.w3.org/1999/xlink" width="512" height="512" x="0" y="0" viewBox="0 0 32 32" style="enable-background:new 0 0 512 512" xml:space="preserve" class=""><g><path d="M3.999 18.786c.3 0 .597-.134.793-.39l.435-.565a10.924 10.924 0 0 0 7.196 8.499 10.914 10.914 0 0 0 12.69-4.274 1 1 0 0 0-1.668-1.105 8.914 8.914 0 0 1-10.365 3.49 8.92 8.92 0 0 1-5.903-7.125l.856.659a1 1 0 0 0 1.22-1.585l-2.371-1.825c-.497-.383-1.204-.598-1.654-.011l-2.02 2.623a.999.999 0 0 0 .791 1.609zM7.169 11.331c.459.305 1.08.179 1.387-.281a8.919 8.919 0 0 1 10.365-3.49 8.92 8.92 0 0 1 5.903 7.125l-.856-.659a.999.999 0 1 0-1.22 1.585l2.371 1.825c.506.389 1.197.607 1.654.011l2.02-2.623a.999.999 0 1 0-1.584-1.219l-.435.565a10.924 10.924 0 0 0-7.196-8.499 10.918 10.918 0 0 0-12.69 4.273 1.002 1.002 0 0 0 .281 1.387z" fill="#000000" opacity="1" data-original="#000000" class=""></path></g></svg>