<svg xmlns="http://www.w3.org/2000/svg" xmlns:xlink="http://www.w3.org/1999/xlink" version="1.1" id="S" x="0px" y="0px" viewBox="0 0 500 500" enable-background="new 0 0 500 500" xml:space="preserve">
<circle fill="#9760A9" cx="250" cy="250" r="233.443"/>
<g>
	<g>
		<path fill="#FFFFFF" d="M320.661,299.213c-8.869-8.761-19.943-8.761-28.756,0c-6.724,6.663-13.446,13.33-20.055,20.111    c-1.81,1.862-3.333,2.259-5.537,1.017c-4.351-2.375-8.983-4.294-13.164-6.892c-19.492-12.261-35.819-28.023-50.281-45.763    c-7.174-8.812-13.559-18.248-18.024-28.869c-0.902-2.147-0.733-3.56,1.019-5.312c6.724-6.498,13.277-13.163,19.886-19.828    c9.209-9.266,9.209-20.115-0.056-29.435c-5.255-5.312-10.509-10.508-15.761-15.819c-5.425-5.424-10.792-10.904-16.272-16.271    c-8.87-8.645-19.944-8.645-28.757,0.057c-6.778,6.666-13.276,13.502-20.169,20.055c-6.384,6.045-9.604,13.447-10.282,22.09    c-1.073,14.068,2.374,27.344,7.231,40.283c9.944,26.778,25.085,50.562,43.446,72.37c24.803,29.49,54.406,52.825,89.037,69.657    c15.592,7.572,31.751,13.392,49.319,14.353c12.091,0.676,22.601-2.375,31.018-11.811c5.762-6.438,12.26-12.313,18.361-18.473    c9.039-9.151,9.095-20.224,0.113-29.264C342.242,320.681,331.452,309.945,320.661,299.213z"/>
		<path fill="#FFFFFF" d="M309.871,254.183l20.846-3.558c-3.276-19.151-12.316-36.496-26.043-50.281    c-14.521-14.519-32.88-23.671-53.108-26.496l-2.938,20.96c15.65,2.202,29.889,9.265,41.131,20.506    C300.378,225.938,307.329,239.381,309.871,254.183z"/>
		<path fill="#FFFFFF" d="M342.467,163.564c-24.066-24.066-54.518-39.264-88.131-43.953l-2.938,20.959    c29.039,4.068,55.364,17.232,76.155,37.964c19.718,19.718,32.654,44.632,37.344,72.032l20.847-3.558    C380.265,215.258,365.294,186.447,342.467,163.564z"/>
	</g>
</g>
</svg>