<svg xmlns="http://www.w3.org/2000/svg" viewBox="0 0 100 100" fill="none" id="spotlight-white">
<path d="M14.0664 42.3066C3.78516 52.5879 3.78516 69.3145 14.0664 79.5957C15.1211 80.6504 16.2637 81.6152 17.4727 82.4727V61.5234C17.4727 59.9063 18.7852 58.5938 20.4023 58.5938H32.1211C33.7383 58.5938 35.0508 59.9063 35.0508 61.5234V87.2188C41.209 86.6856 46.9121 84.0391 51.3535 79.5957L65.8555 65.0938L28.5664 27.8047L14.0664 42.3066Z" fill="white"/>
<path d="M43.0684 0.875C41.5312 -0.662109 38.9062 -0.0449215 38.2168 2.01953L31.4297 22.3828C33.5424 24.4953 68.9689 59.9221 71.2793 62.2324L91.6406 55.4453C93.7031 54.7578 94.3262 52.1328 92.7871 50.5938L43.0684 0.875Z" fill="white"/>
<path d="M81.0676 16.7199L86.9269 10.8605C88.0711 9.71641 88.0711 7.86152 86.9269 6.71738C85.783 5.57324 83.9279 5.57324 82.7838 6.71738L76.9244 12.5768C75.7802 13.7209 75.7802 15.5758 76.9244 16.7199C78.0685 17.8643 79.9236 17.8641 81.0676 16.7199Z" fill="white"/>
<path d="M81.9258 26.3672C81.9258 27.9852 83.2375 29.2969 84.8555 29.2969H90.7148C92.3328 29.2969 93.6445 27.9852 93.6445 26.3672C93.6445 24.7492 92.3328 23.4375 90.7148 23.4375H84.8555C83.2373 23.4375 81.9258 24.7492 81.9258 26.3672Z" fill="white"/>
<path d="M67.2773 11.7188C68.8953 11.7188 70.207 10.407 70.207 8.78906V2.92969C70.207 1.31172 68.8953 0 67.2773 0C65.6594 0 64.3477 1.31172 64.3477 2.92969V8.78906C64.3477 10.407 65.6592 11.7188 67.2773 11.7188Z" fill="white"/>
<path d="M37.9805 94.1406H29.1914V64.4531H23.332V94.1406H14.543C12.925 94.1406 11.6133 95.4523 11.6133 97.0703C11.6133 98.6883 12.925 100 14.543 100H37.9805C39.5984 100 40.9102 98.6883 40.9102 97.0703C40.9102 95.4523 39.5984 94.1406 37.9805 94.1406Z" fill="white"/>
</svg>