<?xml version="1.0" encoding="utf-8"?>
<svg xmlns="http://www.w3.org/2000/svg" xmlns:xlink="http://www.w3.org/1999/xlink" id="svg-root" viewBox="0 0 512 512">
    <defs>
		<style>
svg > svg { display: none; }
svg > svg:target { display: inline; }
</style>
					<linearGradient id="hashtag--highlight_SVGID_2_" gradientUnits="userSpaceOnUse" x1="0" y1="50" x2="512" y2="50">
			<stop offset="0" style="stop-color:#E8465B"/>
			<stop offset="1" style="stop-color:#E85B3F"/>
		</linearGradient>
					<linearGradient xmlns="http://www.w3.org/2000/svg" id="info_c_SVGID_1_" gradientUnits="userSpaceOnUse" x1="256" x2="256" y1="512" y2="0">
      <stop stop-opacity="1" stop-color="#ffffff" offset="0.0006431063916874127"/>
      <stop stop-opacity="1" stop-color="#ffffff" offset="1"/>
    </linearGradient>
					<linearGradient xmlns="http://www.w3.org/2000/svg" id="info_c_SVGID_2_" gradientUnits="userSpaceOnUse" x1="256" x2="256" y1="391" y2="91">
      <stop stop-opacity="1" stop-color="#3faae2" offset="0"/>
      <stop stop-opacity="1" stop-color="#3faae2" offset="1"/>
    </linearGradient>
					<linearGradient id="notification_SVGID_1_" gradientUnits="userSpaceOnUse" x1="228.382" y1="110.8574" x2="321.162" y2="-43.7726" gradientTransform="matrix(1.0667 0 0 -1.0667 3.267 557.5334)">
	<stop offset="0" style="stop-color:#FFC200"/>
	<stop offset="0.268" style="stop-color:#FFBB00"/>
	<stop offset="0.659" style="stop-color:#FFA801"/>
	<stop offset="1" style="stop-color:#FF9102"/>
</linearGradient>
					<linearGradient id="notification_SVGID_2_" gradientUnits="userSpaceOnUse" x1="320.4345" y1="26.8998" x2="197.0945" y2="150.2398" gradientTransform="matrix(1.0667 0 0 -1.0667 3.267 557.5334)">
	<stop offset="0" style="stop-color:#FFC200;stop-opacity:0"/>
	<stop offset="0.203" style="stop-color:#FFBB00;stop-opacity:0.203"/>
	<stop offset="0.499" style="stop-color:#FFA700;stop-opacity:0.499"/>
	<stop offset="0.852" style="stop-color:#FF8800;stop-opacity:0.852"/>
	<stop offset="1" style="stop-color:#FF7800"/>
</linearGradient>
					<linearGradient id="notification_SVGID_3_" gradientUnits="userSpaceOnUse" x1="182.8628" y1="237.0479" x2="414.4429" y2="-148.9121" gradientTransform="matrix(1.0667 0 0 -1.0667 3.267 557.5334)">
	<stop offset="0" style="stop-color:#FFC200"/>
	<stop offset="0.268" style="stop-color:#FFBB00"/>
	<stop offset="0.659" style="stop-color:#FFA801"/>
	<stop offset="1" style="stop-color:#FF9102"/>
</linearGradient>
					<linearGradient id="notification_SVGID_4_" gradientUnits="userSpaceOnUse" x1="182.14" y1="328.1452" x2="393.4199" y2="129.1352" gradientTransform="matrix(1.0667 0 0 -1.0667 3.267 557.5334)">
	<stop offset="0" style="stop-color:#FFC200"/>
	<stop offset="0.268" style="stop-color:#FFBB00"/>
	<stop offset="0.659" style="stop-color:#FFA801"/>
	<stop offset="1" style="stop-color:#FF9102"/>
</linearGradient>
					<linearGradient id="notification_SVGID_5_" gradientUnits="userSpaceOnUse" x1="433.7985" y1="142.993" x2="-2.9415" y2="97.923" gradientTransform="matrix(1.0667 0 0 -1.0667 3.267 557.5334)">
	<stop offset="0" style="stop-color:#FFC200;stop-opacity:0"/>
	<stop offset="0.203" style="stop-color:#FFBB00;stop-opacity:0.203"/>
	<stop offset="0.499" style="stop-color:#FFA700;stop-opacity:0.499"/>
	<stop offset="0.852" style="stop-color:#FF8800;stop-opacity:0.852"/>
	<stop offset="1" style="stop-color:#FF7800"/>
</linearGradient>
					<linearGradient id="notification_SVGID_6_" gradientUnits="userSpaceOnUse" x1="433.6726" y1="215.738" x2="356.0627" y2="293.348" gradientTransform="matrix(1.0667 0 0 -1.0667 3.267 557.5334)">
	<stop offset="0" style="stop-color:#FFC200;stop-opacity:0"/>
	<stop offset="0.203" style="stop-color:#FFBB00;stop-opacity:0.203"/>
	<stop offset="0.499" style="stop-color:#FFA700;stop-opacity:0.499"/>
	<stop offset="0.852" style="stop-color:#FF8800;stop-opacity:0.852"/>
	<stop offset="1" style="stop-color:#FF7800"/>
</linearGradient>
					<linearGradient id="notification_SVGID_7_" gradientUnits="userSpaceOnUse" x1="342.7278" y1="443.2198" x2="409.7978" y2="283.4499" gradientTransform="matrix(1.0667 0 0 -1.0667 3.267 557.5334)">
	<stop offset="0" style="stop-color:#D63305"/>
	<stop offset="0.366" style="stop-color:#CF3004"/>
	<stop offset="0.899" style="stop-color:#BC2602"/>
	<stop offset="1" style="stop-color:#B72401"/>
</linearGradient>
					<linearGradient id="VIP_logo_SVGID_1_" gradientUnits="userSpaceOnUse" x1="52.5166" y1="110.7246" x2="52.5166" y2="197.6328"><stop offset="0" style="stop-color:#4C4C4C" id="stop8"/><stop offset="1" style="stop-color:#000000" id="stop10"/></linearGradient>
					<linearGradient id="VIP_logo_SVGID_2_" gradientUnits="userSpaceOnUse" x1="100.6572" y1="110.7246" x2="100.6572" y2="197.6328"><stop offset="0" style="stop-color:#4C4C4C" id="stop15"/><stop offset="1" style="stop-color:#000000" id="stop17"/></linearGradient>
					<linearGradient id="VIP_logo_SVGID_3_" gradientUnits="userSpaceOnUse" x1="152.1738" y1="110.7246" x2="152.1738" y2="197.6328"><stop offset="0" style="stop-color:#4C4C4C" id="stop22"/><stop offset="1" style="stop-color:#000000" id="stop24"/></linearGradient>
					<linearGradient xmlns="http://www.w3.org/2000/svg" id="info_c_SVGID_1_" gradientUnits="userSpaceOnUse" x1="256" x2="256" y1="512" y2="0">
      <stop stop-opacity="1" stop-color="#ffffff" offset="0.0006431063916874127"/>
      <stop stop-opacity="1" stop-color="#ffffff" offset="1"/>
    </linearGradient>
					<linearGradient xmlns="http://www.w3.org/2000/svg" id="info_c_SVGID_2_" gradientUnits="userSpaceOnUse" x1="256" x2="256" y1="391" y2="91">
      <stop stop-opacity="1" stop-color="#3faae2" offset="0"/>
      <stop stop-opacity="1" stop-color="#3faae2" offset="1"/>
    </linearGradient>
					<linearGradient id="notification_SVGID_1_" gradientUnits="userSpaceOnUse" x1="228.382" y1="110.8574" x2="321.162" y2="-43.7726" gradientTransform="matrix(1.0667 0 0 -1.0667 3.267 557.5334)">
	<stop offset="0" style="stop-color:#FFC200"/>
	<stop offset="0.268" style="stop-color:#FFBB00"/>
	<stop offset="0.659" style="stop-color:#FFA801"/>
	<stop offset="1" style="stop-color:#FF9102"/>
</linearGradient>
					<linearGradient id="notification_SVGID_2_" gradientUnits="userSpaceOnUse" x1="320.4345" y1="26.8998" x2="197.0945" y2="150.2398" gradientTransform="matrix(1.0667 0 0 -1.0667 3.267 557.5334)">
	<stop offset="0" style="stop-color:#FFC200;stop-opacity:0"/>
	<stop offset="0.203" style="stop-color:#FFBB00;stop-opacity:0.203"/>
	<stop offset="0.499" style="stop-color:#FFA700;stop-opacity:0.499"/>
	<stop offset="0.852" style="stop-color:#FF8800;stop-opacity:0.852"/>
	<stop offset="1" style="stop-color:#FF7800"/>
</linearGradient>
					<linearGradient id="notification_SVGID_3_" gradientUnits="userSpaceOnUse" x1="182.8628" y1="237.0479" x2="414.4429" y2="-148.9121" gradientTransform="matrix(1.0667 0 0 -1.0667 3.267 557.5334)">
	<stop offset="0" style="stop-color:#FFC200"/>
	<stop offset="0.268" style="stop-color:#FFBB00"/>
	<stop offset="0.659" style="stop-color:#FFA801"/>
	<stop offset="1" style="stop-color:#FF9102"/>
</linearGradient>
					<linearGradient id="notification_SVGID_4_" gradientUnits="userSpaceOnUse" x1="182.14" y1="328.1452" x2="393.4199" y2="129.1352" gradientTransform="matrix(1.0667 0 0 -1.0667 3.267 557.5334)">
	<stop offset="0" style="stop-color:#FFC200"/>
	<stop offset="0.268" style="stop-color:#FFBB00"/>
	<stop offset="0.659" style="stop-color:#FFA801"/>
	<stop offset="1" style="stop-color:#FF9102"/>
</linearGradient>
					<linearGradient id="notification_SVGID_5_" gradientUnits="userSpaceOnUse" x1="433.7985" y1="142.993" x2="-2.9415" y2="97.923" gradientTransform="matrix(1.0667 0 0 -1.0667 3.267 557.5334)">
	<stop offset="0" style="stop-color:#FFC200;stop-opacity:0"/>
	<stop offset="0.203" style="stop-color:#FFBB00;stop-opacity:0.203"/>
	<stop offset="0.499" style="stop-color:#FFA700;stop-opacity:0.499"/>
	<stop offset="0.852" style="stop-color:#FF8800;stop-opacity:0.852"/>
	<stop offset="1" style="stop-color:#FF7800"/>
</linearGradient>
					<linearGradient id="notification_SVGID_6_" gradientUnits="userSpaceOnUse" x1="433.6726" y1="215.738" x2="356.0627" y2="293.348" gradientTransform="matrix(1.0667 0 0 -1.0667 3.267 557.5334)">
	<stop offset="0" style="stop-color:#FFC200;stop-opacity:0"/>
	<stop offset="0.203" style="stop-color:#FFBB00;stop-opacity:0.203"/>
	<stop offset="0.499" style="stop-color:#FFA700;stop-opacity:0.499"/>
	<stop offset="0.852" style="stop-color:#FF8800;stop-opacity:0.852"/>
	<stop offset="1" style="stop-color:#FF7800"/>
</linearGradient>
					<linearGradient id="notification_SVGID_7_" gradientUnits="userSpaceOnUse" x1="342.7278" y1="443.2198" x2="409.7978" y2="283.4499" gradientTransform="matrix(1.0667 0 0 -1.0667 3.267 557.5334)">
	<stop offset="0" style="stop-color:#D63305"/>
	<stop offset="0.366" style="stop-color:#CF3004"/>
	<stop offset="0.899" style="stop-color:#BC2602"/>
	<stop offset="1" style="stop-color:#B72401"/>
</linearGradient>
					<linearGradient id="not_test_SVGID_1_" gradientUnits="userSpaceOnUse" x1="228.382" y1="110.8574" x2="321.162" y2="-43.7726" gradientTransform="matrix(1.0667 0 0 -1.0667 3.267 557.5334)"><stop offset="0" style="stop-color:#FFC200" id="stop4"/><stop offset="0.268" style="stop-color:#FFBB00" id="stop6"/><stop offset="0.659" style="stop-color:#FFA801" id="stop8"/><stop offset="1" style="stop-color:#FF9102" id="stop10"/></linearGradient>
					<linearGradient id="not_test_SVGID_2_" gradientUnits="userSpaceOnUse" x1="320.4345" y1="26.8998" x2="197.0945" y2="150.2398" gradientTransform="matrix(1.0667 0 0 -1.0667 3.267 557.5334)"><stop offset="0" style="stop-color:#FFC200;stop-opacity:0" id="stop15"/><stop offset="0.203" style="stop-color:#FFBB00;stop-opacity:0.203" id="stop17"/><stop offset="0.499" style="stop-color:#FFA700;stop-opacity:0.499" id="stop19"/><stop offset="0.852" style="stop-color:#FF8800;stop-opacity:0.852" id="stop21"/><stop offset="1" style="stop-color:#FF7800" id="stop23"/></linearGradient>
					<linearGradient id="not_test_SVGID_3_" gradientUnits="userSpaceOnUse" x1="182.8628" y1="237.0479" x2="414.4429" y2="-148.9121" gradientTransform="matrix(1.0667 0 0 -1.0667 3.267 557.5334)"><stop offset="0" style="stop-color:#FFC200" id="stop28"/><stop offset="0.268" style="stop-color:#FFBB00" id="stop30"/><stop offset="0.659" style="stop-color:#FFA801" id="stop32"/><stop offset="1" style="stop-color:#FF9102" id="stop34"/></linearGradient>
					<linearGradient id="not_test_SVGID_4_" gradientUnits="userSpaceOnUse" x1="182.14" y1="328.1452" x2="393.4199" y2="129.1352" gradientTransform="matrix(1.0667 0 0 -1.0667 3.267 557.5334)"><stop offset="0" style="stop-color:#FFC200" id="stop39"/><stop offset="0.268" style="stop-color:#FFBB00" id="stop41"/><stop offset="0.659" style="stop-color:#FFA801" id="stop43"/><stop offset="1" style="stop-color:#FF9102" id="stop45"/></linearGradient>
					<linearGradient id="not_test_SVGID_5_" gradientUnits="userSpaceOnUse" x1="433.7985" y1="142.993" x2="-2.9415" y2="97.923" gradientTransform="matrix(1.0667 0 0 -1.0667 3.267 557.5334)"><stop offset="0" style="stop-color:#FFC200;stop-opacity:0" id="stop50"/><stop offset="0.203" style="stop-color:#FFBB00;stop-opacity:0.203" id="stop52"/><stop offset="0.499" style="stop-color:#FFA700;stop-opacity:0.499" id="stop54"/><stop offset="0.852" style="stop-color:#FF8800;stop-opacity:0.852" id="stop56"/><stop offset="1" style="stop-color:#FF7800" id="stop58"/></linearGradient>
					<linearGradient id="not_test_SVGID_6_" gradientUnits="userSpaceOnUse" x1="433.6726" y1="215.738" x2="356.0627" y2="293.348" gradientTransform="matrix(1.0667 0 0 -1.0667 3.267 557.5334)"><stop offset="0" style="stop-color:#FFC200;stop-opacity:0" id="stop63"/><stop offset="0.203" style="stop-color:#FFBB00;stop-opacity:0.203" id="stop65"/><stop offset="0.499" style="stop-color:#FFA700;stop-opacity:0.499" id="stop67"/><stop offset="0.852" style="stop-color:#FF8800;stop-opacity:0.852" id="stop69"/><stop offset="1" style="stop-color:#FF7800" id="stop71"/></linearGradient>
					<linearGradient id="not_test_SVGID_7_" gradientUnits="userSpaceOnUse" x1="342.7278" y1="443.2198" x2="409.7978" y2="283.4499" gradientTransform="matrix(1.0667 0 0 -1.0667 3.267 557.5334)"><stop offset="0" style="stop-color:#D63305" id="stop76"/><stop offset="0.366" style="stop-color:#CF3004" id="stop78"/><stop offset="0.899" style="stop-color:#BC2602" id="stop80"/><stop offset="1" style="stop-color:#B72401" id="stop82"/></linearGradient>
					<linearGradient id="VIP_crown_black_SVGID_1_" gradientUnits="userSpaceOnUse" x1="52.516602" y1="110.7246" x2="52.516602" y2="197.6328"><stop offset="0" style="stop-color:#4C4C4C" id="stop8"/><stop offset="1" style="stop-color:#000000" id="stop10"/></linearGradient>
					<linearGradient id="VIP_crown_black_SVGID_2_" gradientUnits="userSpaceOnUse" x1="100.6572" y1="110.7246" x2="100.6572" y2="197.6328"><stop offset="0" style="stop-color:#4C4C4C" id="stop15"/><stop offset="1" style="stop-color:#000000" id="stop17"/></linearGradient>
					<linearGradient id="VIP_crown_black_SVGID_3_" gradientUnits="userSpaceOnUse" x1="152.1738" y1="110.7246" x2="152.1738" y2="197.6328"><stop offset="0" style="stop-color:#4C4C4C" id="stop22"/><stop offset="1" style="stop-color:#000000" id="stop24"/></linearGradient>
					<linearGradient id="chat--green_chat_green" gradientUnits="objectBoundingBox" x2=".533" y2="1"><stop offset="0" stop-color="#fcd459"/><stop offset="1" stop-color="#389d69"/></linearGradient>
					<linearGradient id="close--grad_grad1" x1="0%" y1="0%" x2="0%" y2="100%" spreadMethod="pad"> 
		<stop offset="0" style="stop-color:#e72371;stop-opacity:1"/> 
		<stop offset="1" style="stop-color:#fabb00;stop-opacity:1"/>
	</linearGradient>
					<linearGradient id="face_happy_gradient_SVGID_1_" gradientUnits="userSpaceOnUse" x1="342.5" y1="1" x2="811.5" y2="1" gradientTransform="matrix(1 0 0 -1 -321 257)">
		<stop offset="0" style="stop-color:#6C96FF"/>
		<stop offset="1" style="stop-color:#8352FF"/>
	</linearGradient>
					<linearGradient id="hashtag--highlight_SVGID_2_" gradientUnits="userSpaceOnUse" x1="0" y1="50" x2="512" y2="50">
			<stop offset="0" style="stop-color:#E8465B"/>
			<stop offset="1" style="stop-color:#E85B3F"/>
		</linearGradient>
					<linearGradient id="heart--grad_a" gradientUnits="objectBoundingBox" x1=".167" x2=".825" y1=".143" y2=".897"><stop offset="0" stop-color="#e72370"/><stop offset="1" stop-color="#fbbb00"/></linearGradient>
					<linearGradient id="location--grad_SVGID_1_" x1="0%" y1="0%" x2="100%" y2="0%">
		<stop offset="0%" stop-color="#e72371"/>
		<stop offset="100%" stop-color="#fabb00"/>
	</linearGradient>
					<linearGradient id="no_SVGID_1_" gradientUnits="userSpaceOnUse" x1="12" y1="256" x2="500" y2="256">
		<stop offset="0" style="stop-color:#6C96FF"/>
		<stop offset="1" style="stop-color:#8352FF"/>
	</linearGradient>
					<linearGradient id="no_SVGID_2_" gradientUnits="userSpaceOnUse" x1="148.8315" y1="256" x2="363.1689" y2="256">
			<stop offset="0" style="stop-color:#6C96FF"/>
			<stop offset="1" style="stop-color:#8352FF"/>
		</linearGradient>
					<linearGradient id="warning--highlight_SVGID_1_" gradientUnits="userSpaceOnUse" x1="-44.9132" y1="615.9688" x2="10.8338" y2="615.9688" gradientTransform="matrix(10.6667 0 0 -10.6667 473.6667 6826.3335)">
	<stop offset="0" style="stop-color:#E93E3A"/>
	<stop offset="0.359" style="stop-color:#ED683C"/>
	<stop offset="0.702" style="stop-color:#F3903F"/>
	<stop offset="1" style="stop-color:#FDC70C"/>
</linearGradient>
					<linearGradient id="warning--highlight_SVGID_2_" gradientUnits="userSpaceOnUse" x1="-44.9132" y1="618.9486" x2="10.8338" y2="618.9486" gradientTransform="matrix(10.6667 0 0 -10.6667 473.6667 6826.3335)">
		<stop offset="0" style="stop-color:#E93E3A"/>
		<stop offset="0.359" style="stop-color:#ED683C"/>
		<stop offset="0.702" style="stop-color:#F3903F"/>
		<stop offset="1" style="stop-color:#FDC70C"/>
	</linearGradient>
					<linearGradient id="warning--highlight_SVGID_3_" gradientUnits="userSpaceOnUse" x1="-44.9132" y1="617.9688" x2="10.8338" y2="617.9688" gradientTransform="matrix(10.6667 0 0 -10.6667 473.6667 6826.3335)">
		<stop offset="0" style="stop-color:#E93E3A"/>
		<stop offset="0.359" style="stop-color:#ED683C"/>
		<stop offset="0.702" style="stop-color:#F3903F"/>
		<stop offset="1" style="stop-color:#FDC70C"/>
	</linearGradient>
					<linearGradient id="warning--highlight_SVGID_4_" gradientUnits="userSpaceOnUse" x1="-44.9132" y1="609.9688" x2="10.8338" y2="609.9688" gradientTransform="matrix(10.6667 0 0 -10.6667 473.6667 6826.3335)">
		<stop offset="0" style="stop-color:#E93E3A"/>
		<stop offset="0.359" style="stop-color:#ED683C"/>
		<stop offset="0.702" style="stop-color:#F3903F"/>
		<stop offset="1" style="stop-color:#FDC70C"/>
	</linearGradient>
					<linearGradient id="hashtag--highlight_SVGID_2_" gradientUnits="userSpaceOnUse" x1="0" y1="50" x2="512" y2="50">
			<stop offset="0" style="stop-color:#E8465B"/>
			<stop offset="1" style="stop-color:#E85B3F"/>
		</linearGradient>
					<linearGradient xmlns="http://www.w3.org/2000/svg" id="info_c_SVGID_1_" gradientUnits="userSpaceOnUse" x1="256" x2="256" y1="512" y2="0">
      <stop stop-opacity="1" stop-color="#ffffff" offset="0.0006431063916874127"/>
      <stop stop-opacity="1" stop-color="#ffffff" offset="1"/>
    </linearGradient>
					<linearGradient xmlns="http://www.w3.org/2000/svg" id="info_c_SVGID_2_" gradientUnits="userSpaceOnUse" x1="256" x2="256" y1="391" y2="91">
      <stop stop-opacity="1" stop-color="#3faae2" offset="0"/>
      <stop stop-opacity="1" stop-color="#3faae2" offset="1"/>
    </linearGradient>
					<linearGradient id="notification_SVGID_1_" gradientUnits="userSpaceOnUse" x1="228.382" y1="110.8574" x2="321.162" y2="-43.7726" gradientTransform="matrix(1.0667 0 0 -1.0667 3.267 557.5334)">
	<stop offset="0" style="stop-color:#FFC200"/>
	<stop offset="0.268" style="stop-color:#FFBB00"/>
	<stop offset="0.659" style="stop-color:#FFA801"/>
	<stop offset="1" style="stop-color:#FF9102"/>
</linearGradient>
					<linearGradient id="notification_SVGID_2_" gradientUnits="userSpaceOnUse" x1="320.4345" y1="26.8998" x2="197.0945" y2="150.2398" gradientTransform="matrix(1.0667 0 0 -1.0667 3.267 557.5334)">
	<stop offset="0" style="stop-color:#FFC200;stop-opacity:0"/>
	<stop offset="0.203" style="stop-color:#FFBB00;stop-opacity:0.203"/>
	<stop offset="0.499" style="stop-color:#FFA700;stop-opacity:0.499"/>
	<stop offset="0.852" style="stop-color:#FF8800;stop-opacity:0.852"/>
	<stop offset="1" style="stop-color:#FF7800"/>
</linearGradient>
					<linearGradient id="notification_SVGID_3_" gradientUnits="userSpaceOnUse" x1="182.8628" y1="237.0479" x2="414.4429" y2="-148.9121" gradientTransform="matrix(1.0667 0 0 -1.0667 3.267 557.5334)">
	<stop offset="0" style="stop-color:#FFC200"/>
	<stop offset="0.268" style="stop-color:#FFBB00"/>
	<stop offset="0.659" style="stop-color:#FFA801"/>
	<stop offset="1" style="stop-color:#FF9102"/>
</linearGradient>
					<linearGradient id="notification_SVGID_4_" gradientUnits="userSpaceOnUse" x1="182.14" y1="328.1452" x2="393.4199" y2="129.1352" gradientTransform="matrix(1.0667 0 0 -1.0667 3.267 557.5334)">
	<stop offset="0" style="stop-color:#FFC200"/>
	<stop offset="0.268" style="stop-color:#FFBB00"/>
	<stop offset="0.659" style="stop-color:#FFA801"/>
	<stop offset="1" style="stop-color:#FF9102"/>
</linearGradient>
					<linearGradient id="notification_SVGID_5_" gradientUnits="userSpaceOnUse" x1="433.7985" y1="142.993" x2="-2.9415" y2="97.923" gradientTransform="matrix(1.0667 0 0 -1.0667 3.267 557.5334)">
	<stop offset="0" style="stop-color:#FFC200;stop-opacity:0"/>
	<stop offset="0.203" style="stop-color:#FFBB00;stop-opacity:0.203"/>
	<stop offset="0.499" style="stop-color:#FFA700;stop-opacity:0.499"/>
	<stop offset="0.852" style="stop-color:#FF8800;stop-opacity:0.852"/>
	<stop offset="1" style="stop-color:#FF7800"/>
</linearGradient>
					<linearGradient id="notification_SVGID_6_" gradientUnits="userSpaceOnUse" x1="433.6726" y1="215.738" x2="356.0627" y2="293.348" gradientTransform="matrix(1.0667 0 0 -1.0667 3.267 557.5334)">
	<stop offset="0" style="stop-color:#FFC200;stop-opacity:0"/>
	<stop offset="0.203" style="stop-color:#FFBB00;stop-opacity:0.203"/>
	<stop offset="0.499" style="stop-color:#FFA700;stop-opacity:0.499"/>
	<stop offset="0.852" style="stop-color:#FF8800;stop-opacity:0.852"/>
	<stop offset="1" style="stop-color:#FF7800"/>
</linearGradient>
					<linearGradient id="notification_SVGID_7_" gradientUnits="userSpaceOnUse" x1="342.7278" y1="443.2198" x2="409.7978" y2="283.4499" gradientTransform="matrix(1.0667 0 0 -1.0667 3.267 557.5334)">
	<stop offset="0" style="stop-color:#D63305"/>
	<stop offset="0.366" style="stop-color:#CF3004"/>
	<stop offset="0.899" style="stop-color:#BC2602"/>
	<stop offset="1" style="stop-color:#B72401"/>
</linearGradient>
					<linearGradient id="VIP_logo_SVGID_1_" gradientUnits="userSpaceOnUse" x1="52.5166" y1="110.7246" x2="52.5166" y2="197.6328"><stop offset="0" style="stop-color:#4C4C4C" id="stop8"/><stop offset="1" style="stop-color:#000000" id="stop10"/></linearGradient>
					<linearGradient id="VIP_logo_SVGID_2_" gradientUnits="userSpaceOnUse" x1="100.6572" y1="110.7246" x2="100.6572" y2="197.6328"><stop offset="0" style="stop-color:#4C4C4C" id="stop15"/><stop offset="1" style="stop-color:#000000" id="stop17"/></linearGradient>
					<linearGradient id="VIP_logo_SVGID_3_" gradientUnits="userSpaceOnUse" x1="152.1738" y1="110.7246" x2="152.1738" y2="197.6328"><stop offset="0" style="stop-color:#4C4C4C" id="stop22"/><stop offset="1" style="stop-color:#000000" id="stop24"/></linearGradient>
					<linearGradient xmlns="http://www.w3.org/2000/svg" id="info_c_SVGID_1_" gradientUnits="userSpaceOnUse" x1="256" x2="256" y1="512" y2="0">
      <stop stop-opacity="1" stop-color="#ffffff" offset="0.0006431063916874127"/>
      <stop stop-opacity="1" stop-color="#ffffff" offset="1"/>
    </linearGradient>
					<linearGradient xmlns="http://www.w3.org/2000/svg" id="info_c_SVGID_2_" gradientUnits="userSpaceOnUse" x1="256" x2="256" y1="391" y2="91">
      <stop stop-opacity="1" stop-color="#3faae2" offset="0"/>
      <stop stop-opacity="1" stop-color="#3faae2" offset="1"/>
    </linearGradient>
					<linearGradient id="notification_SVGID_1_" gradientUnits="userSpaceOnUse" x1="228.382" y1="110.8574" x2="321.162" y2="-43.7726" gradientTransform="matrix(1.0667 0 0 -1.0667 3.267 557.5334)">
	<stop offset="0" style="stop-color:#FFC200"/>
	<stop offset="0.268" style="stop-color:#FFBB00"/>
	<stop offset="0.659" style="stop-color:#FFA801"/>
	<stop offset="1" style="stop-color:#FF9102"/>
</linearGradient>
					<linearGradient id="notification_SVGID_2_" gradientUnits="userSpaceOnUse" x1="320.4345" y1="26.8998" x2="197.0945" y2="150.2398" gradientTransform="matrix(1.0667 0 0 -1.0667 3.267 557.5334)">
	<stop offset="0" style="stop-color:#FFC200;stop-opacity:0"/>
	<stop offset="0.203" style="stop-color:#FFBB00;stop-opacity:0.203"/>
	<stop offset="0.499" style="stop-color:#FFA700;stop-opacity:0.499"/>
	<stop offset="0.852" style="stop-color:#FF8800;stop-opacity:0.852"/>
	<stop offset="1" style="stop-color:#FF7800"/>
</linearGradient>
					<linearGradient id="notification_SVGID_3_" gradientUnits="userSpaceOnUse" x1="182.8628" y1="237.0479" x2="414.4429" y2="-148.9121" gradientTransform="matrix(1.0667 0 0 -1.0667 3.267 557.5334)">
	<stop offset="0" style="stop-color:#FFC200"/>
	<stop offset="0.268" style="stop-color:#FFBB00"/>
	<stop offset="0.659" style="stop-color:#FFA801"/>
	<stop offset="1" style="stop-color:#FF9102"/>
</linearGradient>
					<linearGradient id="notification_SVGID_4_" gradientUnits="userSpaceOnUse" x1="182.14" y1="328.1452" x2="393.4199" y2="129.1352" gradientTransform="matrix(1.0667 0 0 -1.0667 3.267 557.5334)">
	<stop offset="0" style="stop-color:#FFC200"/>
	<stop offset="0.268" style="stop-color:#FFBB00"/>
	<stop offset="0.659" style="stop-color:#FFA801"/>
	<stop offset="1" style="stop-color:#FF9102"/>
</linearGradient>
					<linearGradient id="notification_SVGID_5_" gradientUnits="userSpaceOnUse" x1="433.7985" y1="142.993" x2="-2.9415" y2="97.923" gradientTransform="matrix(1.0667 0 0 -1.0667 3.267 557.5334)">
	<stop offset="0" style="stop-color:#FFC200;stop-opacity:0"/>
	<stop offset="0.203" style="stop-color:#FFBB00;stop-opacity:0.203"/>
	<stop offset="0.499" style="stop-color:#FFA700;stop-opacity:0.499"/>
	<stop offset="0.852" style="stop-color:#FF8800;stop-opacity:0.852"/>
	<stop offset="1" style="stop-color:#FF7800"/>
</linearGradient>
					<linearGradient id="notification_SVGID_6_" gradientUnits="userSpaceOnUse" x1="433.6726" y1="215.738" x2="356.0627" y2="293.348" gradientTransform="matrix(1.0667 0 0 -1.0667 3.267 557.5334)">
	<stop offset="0" style="stop-color:#FFC200;stop-opacity:0"/>
	<stop offset="0.203" style="stop-color:#FFBB00;stop-opacity:0.203"/>
	<stop offset="0.499" style="stop-color:#FFA700;stop-opacity:0.499"/>
	<stop offset="0.852" style="stop-color:#FF8800;stop-opacity:0.852"/>
	<stop offset="1" style="stop-color:#FF7800"/>
</linearGradient>
					<linearGradient id="notification_SVGID_7_" gradientUnits="userSpaceOnUse" x1="342.7278" y1="443.2198" x2="409.7978" y2="283.4499" gradientTransform="matrix(1.0667 0 0 -1.0667 3.267 557.5334)">
	<stop offset="0" style="stop-color:#D63305"/>
	<stop offset="0.366" style="stop-color:#CF3004"/>
	<stop offset="0.899" style="stop-color:#BC2602"/>
	<stop offset="1" style="stop-color:#B72401"/>
</linearGradient>
					<linearGradient id="not_test_SVGID_1_" gradientUnits="userSpaceOnUse" x1="228.382" y1="110.8574" x2="321.162" y2="-43.7726" gradientTransform="matrix(1.0667 0 0 -1.0667 3.267 557.5334)"><stop offset="0" style="stop-color:#FFC200" id="stop4"/><stop offset="0.268" style="stop-color:#FFBB00" id="stop6"/><stop offset="0.659" style="stop-color:#FFA801" id="stop8"/><stop offset="1" style="stop-color:#FF9102" id="stop10"/></linearGradient>
					<linearGradient id="not_test_SVGID_2_" gradientUnits="userSpaceOnUse" x1="320.4345" y1="26.8998" x2="197.0945" y2="150.2398" gradientTransform="matrix(1.0667 0 0 -1.0667 3.267 557.5334)"><stop offset="0" style="stop-color:#FFC200;stop-opacity:0" id="stop15"/><stop offset="0.203" style="stop-color:#FFBB00;stop-opacity:0.203" id="stop17"/><stop offset="0.499" style="stop-color:#FFA700;stop-opacity:0.499" id="stop19"/><stop offset="0.852" style="stop-color:#FF8800;stop-opacity:0.852" id="stop21"/><stop offset="1" style="stop-color:#FF7800" id="stop23"/></linearGradient>
					<linearGradient id="not_test_SVGID_3_" gradientUnits="userSpaceOnUse" x1="182.8628" y1="237.0479" x2="414.4429" y2="-148.9121" gradientTransform="matrix(1.0667 0 0 -1.0667 3.267 557.5334)"><stop offset="0" style="stop-color:#FFC200" id="stop28"/><stop offset="0.268" style="stop-color:#FFBB00" id="stop30"/><stop offset="0.659" style="stop-color:#FFA801" id="stop32"/><stop offset="1" style="stop-color:#FF9102" id="stop34"/></linearGradient>
					<linearGradient id="not_test_SVGID_4_" gradientUnits="userSpaceOnUse" x1="182.14" y1="328.1452" x2="393.4199" y2="129.1352" gradientTransform="matrix(1.0667 0 0 -1.0667 3.267 557.5334)"><stop offset="0" style="stop-color:#FFC200" id="stop39"/><stop offset="0.268" style="stop-color:#FFBB00" id="stop41"/><stop offset="0.659" style="stop-color:#FFA801" id="stop43"/><stop offset="1" style="stop-color:#FF9102" id="stop45"/></linearGradient>
					<linearGradient id="not_test_SVGID_5_" gradientUnits="userSpaceOnUse" x1="433.7985" y1="142.993" x2="-2.9415" y2="97.923" gradientTransform="matrix(1.0667 0 0 -1.0667 3.267 557.5334)"><stop offset="0" style="stop-color:#FFC200;stop-opacity:0" id="stop50"/><stop offset="0.203" style="stop-color:#FFBB00;stop-opacity:0.203" id="stop52"/><stop offset="0.499" style="stop-color:#FFA700;stop-opacity:0.499" id="stop54"/><stop offset="0.852" style="stop-color:#FF8800;stop-opacity:0.852" id="stop56"/><stop offset="1" style="stop-color:#FF7800" id="stop58"/></linearGradient>
					<linearGradient id="not_test_SVGID_6_" gradientUnits="userSpaceOnUse" x1="433.6726" y1="215.738" x2="356.0627" y2="293.348" gradientTransform="matrix(1.0667 0 0 -1.0667 3.267 557.5334)"><stop offset="0" style="stop-color:#FFC200;stop-opacity:0" id="stop63"/><stop offset="0.203" style="stop-color:#FFBB00;stop-opacity:0.203" id="stop65"/><stop offset="0.499" style="stop-color:#FFA700;stop-opacity:0.499" id="stop67"/><stop offset="0.852" style="stop-color:#FF8800;stop-opacity:0.852" id="stop69"/><stop offset="1" style="stop-color:#FF7800" id="stop71"/></linearGradient>
					<linearGradient id="not_test_SVGID_7_" gradientUnits="userSpaceOnUse" x1="342.7278" y1="443.2198" x2="409.7978" y2="283.4499" gradientTransform="matrix(1.0667 0 0 -1.0667 3.267 557.5334)"><stop offset="0" style="stop-color:#D63305" id="stop76"/><stop offset="0.366" style="stop-color:#CF3004" id="stop78"/><stop offset="0.899" style="stop-color:#BC2602" id="stop80"/><stop offset="1" style="stop-color:#B72401" id="stop82"/></linearGradient>
		
	</defs>
  	
<!-- Generator: Adobe Illustrator 16.0.4, SVG Export Plug-In . SVG Version: 6.00 Build 0)  -->
<svg xmlns="http://www.w3.org/2000/svg" xmlns:xlink="http://www.w3.org/1999/xlink" version="1.1" id="B" x="0px" y="0px" viewBox="0 0 500 500" enable-background="new 0 0 500 500" xml:space="preserve">
<circle fill="#F4BA64" cx="250" cy="250" r="233.443"/>
<g>
	<g>
		<path fill="#FFFFFF" d="M307.581,185.188c2.682,2.681,7.03,2.681,9.709,0l79.59-79.595c2.682-2.681,2.682-7.026,0-9.711    c-2.674-2.68-7.024-2.68-9.704,0l-79.595,79.596C304.9,178.159,304.9,182.505,307.581,185.188z"/>
		<path fill="#FFFFFF" d="M376.367,245.389l-8.733-95.983l-23.961,23.963c1.394,8.899-1.321,18.317-8.176,25.171    c-11.393,11.395-29.867,11.396-41.261,0c-11.392-11.392-11.392-29.871,0-41.263c6.854-6.853,16.27-9.565,25.16-8.175l23.973-23.97    l-95.984-8.729c-3.779-0.339-7.509,1.009-10.197,3.693L82.376,274.906c-4.987,4.989-4.991,13.078,0,18.065l34.435,34.439    l16.992-16.991l48.545,48.543l-16.99,16.986l34.436,34.438c4.993,4.989,13.076,4.989,18.063,0l154.822-154.811    C375.354,252.892,376.7,249.159,376.367,245.389z"/>
	</g>
</g>
</svg>

  	
<!-- Generator: Adobe Illustrator 19.0.0, SVG Export Plug-In . SVG Version: 6.00 Build 0)  -->
<svg xmlns="http://www.w3.org/2000/svg" xmlns:xlink="http://www.w3.org/1999/xlink" version="1.1" id="casual" x="0px" y="0px" viewBox="0 0 512 512" style="enable-background:new 0 0 512 512;" xml:space="preserve">
<circle style="fill:#FF5722;" cx="256" cy="256" r="256"/>
<path style="fill:#FFFFFF;" d="M274.618,377.018c0,15.421-12.507,27.927-27.927,27.927H134.982  c-15.425,0-27.927-12.507-27.927-27.927V134.982c0-15.421,12.502-27.927,27.927-27.927h111.709  c15.421,0,27.927,12.507,27.927,27.927V377.018z"/>
<rect x="116.364" y="162.909" style="fill:#2C0900;" width="148.945" height="186.182"/>
<polygon style="fill:#7A1C05;" points="116.364,349.091 116.364,162.909 265.309,162.909 "/>
<g>
	<circle style="fill:#FFC7B2;" cx="158.255" cy="139.636" r="4.655"/>
	<path style="fill:#FFC7B2;" d="M228.073,139.636c0,2.574-2.085,4.655-4.655,4.655h-46.545c-2.569,0-4.655-2.081-4.655-4.655   c0-2.569,2.085-4.655,4.655-4.655h46.545C225.987,134.982,228.073,137.067,228.073,139.636z"/>
	<circle style="fill:#FFC7B2;" cx="190.836" cy="377.018" r="18.618"/>
</g>
<g>
	<rect x="181.527" y="367.709" style="fill:#FFFFFF;" width="18.618" height="18.618"/>
	<path style="fill:#FFFFFF;" d="M311.855,162.909c-51.414,0-93.091,29.417-93.091,65.713c0,17.762,10.031,33.852,26.261,45.675   l-21.606,56.176l56.329-40.239c10.026,2.607,20.806,4.096,32.107,4.096c51.414,0,93.091-29.417,93.091-65.708   C404.945,192.326,363.269,162.909,311.855,162.909z"/>
</g>
<path style="fill:#FF2F00;" d="M311.868,204.479c-10.473-16.37-41.882-10.524-41.882,18.716  c0.652,26.61,41.882,46.769,41.882,46.769s41.225-20.159,41.877-46.774C353.745,193.955,322.332,188.109,311.868,204.479z"/>
<g>
</g>
<g>
</g>
<g>
</g>
<g>
</g>
<g>
</g>
<g>
</g>
<g>
</g>
<g>
</g>
<g>
</g>
<g>
</g>
<g>
</g>
<g>
</g>
<g>
</g>
<g>
</g>
<g>
</g>
</svg>

  	
<!-- Generator: Adobe Illustrator 16.0.4, SVG Export Plug-In . SVG Version: 6.00 Build 0)  -->
<svg xmlns="http://www.w3.org/2000/svg" xmlns:xlink="http://www.w3.org/1999/xlink" version="1.1" id="C" x="0px" y="0px" viewBox="0 0 500 500" enable-background="new 0 0 500 500" xml:space="preserve">
<circle fill="#54A09F" cx="250" cy="250" r="233.443"/>
<g>
	<path fill="#FFFFFF" d="M278.621,173.561c12.791,8.02,21.76,21.589,23.391,37.343c5.219,2.438,11.004,3.84,17.146,3.84   c22.404,0,40.568-18.164,40.568-40.569s-18.164-40.569-40.568-40.569C296.961,133.611,278.959,151.451,278.621,173.561z    M252.043,256.628c22.406,0,40.57-18.164,40.57-40.569s-18.164-40.57-40.57-40.57c-22.405,0-40.576,18.168-40.576,40.57   C211.467,238.464,229.638,256.628,252.043,256.628z M269.25,259.393h-34.424c-28.642,0-51.944,23.302-51.944,51.944v42.1   l0.104,0.661l2.903,0.91c27.334,8.536,51.081,11.388,70.624,11.388c38.182,0,60.305-10.889,61.674-11.583l2.709-1.369h0.291   v-42.106C321.193,282.694,297.893,259.393,269.25,259.393z M336.371,217.508h-34.156c-0.371,13.667-6.203,25.976-15.434,34.825   c25.459,7.572,44.088,31.184,44.088,59.071v12.973c33.727-1.241,53.164-10.795,54.445-11.442l2.705-1.369h0.289v-42.113   C388.309,240.811,365.006,217.508,336.371,217.508z M180.855,214.75c7.937,0,15.319-2.319,21.576-6.264   c1.989-12.969,8.941-24.303,18.873-32.02c0.04-0.763,0.114-1.514,0.114-2.279c0-22.412-18.164-40.569-40.563-40.569   c-22.411,0-40.569,18.157-40.569,40.569C140.286,196.583,158.444,214.75,180.855,214.75z M217.289,252.333   c-9.18-8.806-14.995-21.043-15.42-34.63c-1.268-0.094-2.519-0.195-3.812-0.195h-34.421c-28.643,0-51.944,23.303-51.944,51.944   v42.107l0.107,0.646l2.899,0.917c21.927,6.844,41.5,9.999,58.498,10.99v-12.709C173.203,283.517,191.822,259.911,217.289,252.333z"/>
</g>
</svg>

  	
<!-- Generator: Adobe Illustrator 19.0.0, SVG Export Plug-In . SVG Version: 6.00 Build 0)  -->
<svg xmlns="http://www.w3.org/2000/svg" xmlns:xlink="http://www.w3.org/1999/xlink" version="1.1" id="dating" x="0px" y="0px" viewBox="0 0 512 512" style="enable-background:new 0 0 512 512;" xml:space="preserve">
<circle style="fill:#FF5722;" cx="256" cy="256" r="256"/>
<path style="fill:#FFE4DE;" d="M255.907,158.413c-32.559-56.976-130.234-36.627-130.234,65.117  c2.025,92.635,130.234,162.797,130.234,162.797s128.219-70.163,130.234-162.797C386.146,121.786,288.47,101.437,255.907,158.413z"/>
<path style="fill:#FFFFFF;" d="M256.535,157.426c-0.2,0.335-0.433,0.647-0.628,0.987c-32.559-56.976-130.234-36.627-130.234,65.117  c2.025,92.635,130.234,162.797,130.234,162.797s0.256-0.14,0.628-0.349L256.535,157.426L256.535,157.426z"/>
<g>
</g>
<g>
</g>
<g>
</g>
<g>
</g>
<g>
</g>
<g>
</g>
<g>
</g>
<g>
</g>
<g>
</g>
<g>
</g>
<g>
</g>
<g>
</g>
<g>
</g>
<g>
</g>
<g>
</g>
</svg>

  	
<!-- Generator: Adobe Illustrator 16.0.4, SVG Export Plug-In . SVG Version: 6.00 Build 0)  -->
<svg xmlns="http://www.w3.org/2000/svg" xmlns:xlink="http://www.w3.org/1999/xlink" version="1.1" id="E" x="0px" y="0px" viewBox="0 0 500 500" enable-background="new 0 0 500 500" xml:space="preserve">
<circle fill="#C5729A" cx="250" cy="250" r="233.443"/>
<g>
	<g>
		<path fill="#FFFFFF" d="M210.152,265.184c0-3.681-2.985-6.66-6.668-6.66h-23.266c-3.679,0-6.664,2.979-6.664,6.66v23.263    c0,3.686,2.985,6.668,6.664,6.668h23.266c3.683,0,6.668-2.982,6.668-6.668V265.184L210.152,265.184z"/>
		<path fill="#FFFFFF" d="M268.296,265.184c0-3.681-2.985-6.66-6.659-6.66h-23.27c-3.679,0-6.664,2.979-6.664,6.66v23.263    c0,3.686,2.985,6.668,6.664,6.668h23.27c3.674,0,6.659-2.982,6.659-6.668V265.184z"/>
		<path fill="#FFFFFF" d="M326.445,265.184c0-3.681-2.986-6.66-6.664-6.66h-23.267c-3.683,0-6.667,2.979-6.667,6.66v23.263    c0,3.686,2.984,6.668,6.667,6.668h23.267c3.678,0,6.664-2.982,6.664-6.668V265.184z"/>
		<path fill="#FFFFFF" d="M210.152,323.335c0-3.686-2.985-6.664-6.668-6.664h-23.266c-3.679,0-6.664,2.979-6.664,6.664v23.26    c0,3.682,2.985,6.662,6.664,6.662h23.266c3.683,0,6.668-2.982,6.668-6.662V323.335L210.152,323.335z"/>
		<path fill="#FFFFFF" d="M268.296,323.335c0-3.686-2.985-6.664-6.659-6.664h-23.27c-3.679,0-6.664,2.979-6.664,6.664v23.26    c0,3.682,2.985,6.662,6.664,6.662h23.27c3.674,0,6.659-2.982,6.659-6.662V323.335z"/>
		<path fill="#FFFFFF" d="M326.445,323.335c0-3.686-2.986-6.664-6.661-6.664h-23.27c-3.683,0-6.667,2.979-6.667,6.664v23.26    c0,3.682,2.984,6.662,6.667,6.662h23.27c3.675,0,6.661-2.982,6.661-6.662V323.335L326.445,323.335z"/>
		<path fill="#FFFFFF" d="M368.047,135.837v35.532c0,16.061-13.029,29.002-29.087,29.002h-18.349    c-16.06,0-29.261-12.941-29.261-29.002v-35.66h-82.703v35.66c0,16.061-13.201,29.002-29.257,29.002h-18.353    c-16.057,0-29.085-12.941-29.085-29.002v-35.532c-14.033,0.423-25.566,12.035-25.566,26.31v208.237    c0,14.543,11.787,26.486,26.329,26.486h234.568c14.521,0,26.33-11.971,26.33-26.486V162.146    C393.613,147.872,382.081,136.26,368.047,135.837z M359.524,357.417c0,6.283-5.096,11.383-11.383,11.383H151.356    c-6.287,0-11.382-5.1-11.382-11.383V249.854c0-6.287,5.095-11.386,11.382-11.386h196.785c6.287,0,11.383,5.099,11.383,11.386    L359.524,357.417L359.524,357.417z"/>
		<path fill="#FFFFFF" d="M160.974,181.322h18.149c5.51,0,9.976-4.46,9.976-9.969v-58.251c0-5.51-4.466-9.973-9.976-9.973h-18.149    c-5.509,0-9.976,4.463-9.976,9.973v58.251C150.999,176.862,155.465,181.322,160.974,181.322z"/>
		<path fill="#FFFFFF" d="M320.378,181.322h18.149c5.506,0,9.973-4.46,9.973-9.969v-58.251c0-5.51-4.467-9.973-9.973-9.973h-18.149    c-5.509,0-9.976,4.463-9.976,9.973v58.251C310.402,176.862,314.869,181.322,320.378,181.322z"/>
	</g>
</g>
</svg>

  	
<!-- Generator: Adobe Illustrator 19.0.0, SVG Export Plug-In . SVG Version: 6.00 Build 0)  -->
<svg xmlns="http://www.w3.org/2000/svg" xmlns:xlink="http://www.w3.org/1999/xlink" version="1.1" id="friendship" x="0px" y="0px" viewBox="0 0 512 512" style="enable-background:new 0 0 512 512;" xml:space="preserve">
<circle style="fill:#FF5722;" cx="256" cy="256" r="256"/>
<path style="fill:#AC2200;" d="M228.091,241.72c-10.473-16.375-41.882-10.529-41.882,18.711  c0.647,26.61,41.882,46.769,41.882,46.769s41.225-20.159,41.872-46.774C269.964,231.191,238.555,225.345,228.091,241.72z"/>
<g>
	<path style="fill:#FFC7B2;" d="M319.39,386.327L319.39,386.327h80.901c0.307,0,0.573,0.121,0.866,0.172   c-4.808-19.954-11.971-39.564-21.821-58.782c-6.591-12.87-17.282-23.175-30.352-29.333l-47.909-22.547   c-7.363-3.463-16.119-1.517-21.327,4.729c-3.491,4.189-4.873,9.751-3.766,15.09c1.117,5.339,4.617,9.877,9.5,12.316l40.336,22.5   H234.98c-7.592,0-15.071-1.853-21.783-5.409l-57.856-30.627c-6.409-3.393-14.336-1.755-18.874,3.919   c-2.718,3.398-3.835,7.82-3.072,12.111c0.773,4.296,3.365,8.048,7.098,10.291l68.547,41.123c6.428,3.859,13.48,6.586,20.838,8.052   l75.874,10.282c4.673,0.638,8.825,3.025,11.762,6.544C318.101,386.499,318.729,386.327,319.39,386.327z"/>
	<path style="fill:#FFC7B2;" d="M326.535,206.262l-42.608-61.971c-11.692-11.697-34.42-23.394-68.166-35.091   c-4.045-1.406-8.429-1.373-12.456,0.093l-77.633,24.474v78.988l17.664-10.119c3.645-1.62,7.708-2.02,11.599-1.159l64.326,14.299   c7.657,1.699,15.346-2.658,17.827-10.091c1.299-3.91,0.963-8.178-0.908-11.832c-1.88-3.663-5.162-6.409-9.1-7.619l-41.784-12.856   c-2.234-0.684-3.77-2.765-3.77-5.115c0-2.956,2.402-5.353,5.353-5.353h55.962c5.399,0,10.529,2.346,14.071,6.428l47.099,54.346   c4.529,5.227,12.162,6.451,18.102,2.886c3.384-2.025,5.762-5.348,6.6-9.197C329.551,213.523,328.765,209.51,326.535,206.262z"/>
</g>
<path style="fill:#FFFFFF;" d="M107.055,220.542c0,1.615,0.838,3.114,2.211,3.961c1.373,0.852,3.081,0.926,4.529,0.205l9.309-4.655  c1.569-0.791,2.569-2.402,2.569-4.166v-82.688c0-1.61-0.838-3.109-2.211-3.956c-1.373-0.847-3.081-0.926-4.529-0.205l-9.309,4.655  c-1.569,0.796-2.569,2.402-2.569,4.161V220.542z"/>
<path style="fill:#D22600;" d="M228.073,241.701c-10.482-16.351-41.863-10.496-41.863,18.725  c0.647,26.568,41.728,46.699,41.863,46.764V241.701z"/>
<path style="fill:#FFE4DE;" d="M348.984,298.384l-47.909-22.547c-7.363-3.463-16.119-1.517-21.327,4.729  c-3.491,4.189-4.873,9.751-3.766,15.09c1.117,5.339,4.617,9.877,9.491,12.316l40.346,22.5H234.98  c-7.601,0-15.071-1.853-21.783-5.409l-57.856-30.627c-6.409-3.393-14.336-1.755-18.874,3.914c-2.718,3.402-3.835,7.824-3.072,12.116  c0.773,4.296,3.365,8.048,7.098,10.291l68.547,41.123c6.437,3.859,13.48,6.586,20.838,8.052l42.007,5.697l100.827-58.219  C366.438,309.346,358.335,302.787,348.984,298.384z"/>
<g>
	<path style="fill:#FFFFFF;" d="M299.38,282.596c-5.283-2.495-11.646-1.294-15.109,2.849c-2.071,2.486-2.811,5.706-2.02,8.83   c0.791,3.119,3.025,5.827,6.135,7.433l2.793,1.434l12.074-18.721L299.38,282.596z"/>
	<path style="fill:#FFFFFF;" d="M219.471,210.963c4.971,1.103,9.975-1.727,11.581-6.558c0.847-2.541,0.638-5.311-0.591-7.689   c-1.229-2.378-3.356-4.161-5.916-4.948l-4.738-1.457l-5.53,19.503L219.471,210.963z"/>
	<path style="fill:#FFFFFF;" d="M404.945,390.982c0-2.569-2.081-4.655-4.655-4.655h-80.91c-1.61,0-3.109,0.838-3.956,2.211   c-0.847,1.368-0.926,3.081-0.2,4.529l4.655,9.309c0.787,1.569,2.402,2.569,4.156,2.569h76.255c2.574,0,4.655-2.085,4.655-4.655   V390.982z"/>
</g>
<g>
</g>
<g>
</g>
<g>
</g>
<g>
</g>
<g>
</g>
<g>
</g>
<g>
</g>
<g>
</g>
<g>
</g>
<g>
</g>
<g>
</g>
<g>
</g>
<g>
</g>
<g>
</g>
<g>
</g>
</svg>

  	
<!-- Generator: Adobe Illustrator 16.0.4, SVG Export Plug-In . SVG Version: 6.00 Build 0)  -->
<svg xmlns="http://www.w3.org/2000/svg" xmlns:xlink="http://www.w3.org/1999/xlink" version="1.1" id="F" x="0px" y="0px" viewBox="0 0 500 500" enable-background="new 0 0 500 500" xml:space="preserve">
<circle fill="#EA5399" cx="250" cy="250" r="233.443"/>
<g>
	<g id="Icons_17_">
		<path fill="#FFFFFF" d="M417.171,281.361c-43.791-35.269-99.194-53.841-155.348-56.155v-19.13    c19.377-5.219,33.689-22.953,33.689-43.966c0-25.1-20.404-45.524-45.512-45.524c-25.104,0-45.534,20.424-45.534,45.524    c0,6.526,5.299,11.819,11.819,11.819c6.534,0,11.82-5.293,11.82-11.819c0-12.068,9.835-21.886,21.896-21.886    c12.063,0,21.875,9.818,21.875,21.886c0,12.067-9.812,21.885-21.875,21.885c-6.521,0-11.819,5.291-11.819,11.818v29.392    c-56.154,2.309-111.557,20.88-155.351,56.156c-10.169,8.189-11.772,23.066-3.577,33.236c8.173,10.164,23.062,11.789,33.232,3.584    c75.834-61.055,199.21-61.055,275.024,0c4.374,3.52,9.612,5.229,14.819,5.229c6.903,0,13.759-3.014,18.421-8.812    C428.945,304.428,427.329,289.551,417.171,281.361z"/>
	</g>
</g>
</svg>

  	
<!-- Generator: Adobe Illustrator 16.0.4, SVG Export Plug-In . SVG Version: 6.00 Build 0)  -->
<svg xmlns="http://www.w3.org/2000/svg" xmlns:xlink="http://www.w3.org/1999/xlink" version="1.1" id="G" x="0px" y="0px" viewBox="0 0 500 500" enable-background="new 0 0 500 500" xml:space="preserve">
<circle fill="#8DA37B" cx="250" cy="250" r="233.443"/>
<g>
	<g>
		<path fill="#FFFFFF" d="M396.167,356.336l-27.87-97.259c-0.858-2.987-3.598-5.046-6.706-5.046h-11.835v49.833    c0,11.526-9.381,20.911-20.911,20.911H171.294c-11.536,0-20.911-9.385-20.911-20.911c0,0-0.102,0.143-0.12,0.172    c0-0.059-0.02-0.111-0.02-0.172v-49.833h-11.834c-3.108,0-5.848,2.059-6.706,5.046l-27.87,97.259    c-0.604,2.104-0.191,4.363,1.132,6.114c1.309,1.749,3.381,2.775,5.562,2.775c0.025,0.003,278.947,0,278.947,0    c2.182,0,4.254-1.026,5.562-2.775C396.358,360.699,396.771,358.44,396.167,356.336z"/>
		<path fill="#FFFFFF" d="M152.194,203.054l97.742-84.038l97.74,84.038c1.971,1.693,4.392,2.525,6.794,2.525    c2.949,0,5.873-1.232,7.939-3.636c3.763-4.382,3.279-10.983-1.112-14.742l-104.549-89.9c-3.909-3.372-9.718-3.372-13.634,0    l-104.554,89.901c-4.379,3.759-4.881,10.361-1.118,14.743C141.225,206.324,147.835,206.824,152.194,203.054z"/>
		<path fill="#FFFFFF" d="M245.38,132.338l-78.782,67.974c-1.524,1.335-2.409,3.259-2.409,5.282v98.272    c0,3.852,3.121,6.967,6.966,6.967h157.551c3.857,0,6.979-3.115,6.979-6.967v-98.272c0-2.023-0.884-3.947-2.429-5.282    l-78.769-67.974C251.875,130.084,247.992,130.084,245.38,132.338z M242.958,280.008c0,3.849-3.121,6.973-6.967,6.973h-24.394    c-3.858,0-6.979-3.124-6.979-6.973V255.59c0-3.849,3.121-6.97,6.979-6.97h24.394c3.846,0,6.967,3.121,6.967,6.97V280.008z     M242.958,227.708c0,3.851-3.121,6.972-6.967,6.972h-24.394c-3.858,0-6.979-3.121-6.979-6.972v-24.416    c0-3.852,3.121-6.973,6.979-6.973h24.394c3.846,0,6.967,3.121,6.967,6.973V227.708z M256.902,203.292    c0-3.852,3.114-6.973,6.979-6.973h24.388c3.845,0,6.965,3.121,6.965,6.973v24.416c0,3.851-3.12,6.972-6.965,6.972h-24.388    c-3.865,0-6.979-3.121-6.979-6.972V203.292z M256.902,255.589c0-3.849,3.114-6.97,6.979-6.97h24.388    c3.845,0,6.965,3.121,6.965,6.97v24.419c0,3.848-3.12,6.972-6.965,6.972h-24.388c-3.865,0-6.979-3.123-6.979-6.972V255.589z"/>
	</g>
</g>
</svg>

  	
<!-- Generator: Adobe Illustrator 16.0.4, SVG Export Plug-In . SVG Version: 6.00 Build 0)  -->
<svg xmlns="http://www.w3.org/2000/svg" xmlns:xlink="http://www.w3.org/1999/xlink" version="1.1" id="H" x="0px" y="0px" viewBox="0 0 500 500" enable-background="new 0 0 500 500" xml:space="preserve">
<circle fill="#3A468D" cx="250" cy="250" r="233.443"/>
<g>
	<g>
		<path fill="#FFFFFF" d="M390.107,211.769c-1.39-1.687-3.459-2.679-5.629-2.679h-27.586c-6.812-17.961-15.679-35.554-25.758-42.188    c-34.88-22.951-127.377-22.951-162.257,0c-10.086,6.648-18.918,24.255-25.765,42.188h-27.587c-2.189,0-4.252,0.992-5.627,2.679    c-1.375,1.688-1.929,3.913-1.482,6.054l4.09,19.804c0.695,3.374,3.672,5.784,7.103,5.784h8.173    c-7.889,9.1-11.71,20.554-11.767,32.023c-0.05,14.176,5.33,26.977,15.169,36.035c0.105,0.085,0.212,0.155,0.318,0.255v27.7    c0,5.996,4.877,10.887,10.887,10.887h25.446c6.011,0,10.888-4.891,10.888-10.887v-11.129h142.552v11.129    c0,5.996,4.877,10.887,10.887,10.887h25.446c5.997,0,10.888-4.891,10.888-10.887v-27.162c10.44-9.555,15.423-22.709,15.486-35.836    c0.05-11.865-3.955-23.745-12.305-33.03h8.719c3.444,0,6.422-2.41,7.102-5.798l4.098-19.79    C392.014,215.682,391.482,213.47,390.107,211.769z M180.834,185.077c27.8-18.287,110.53-18.287,138.315,0    c5.401,3.543,12.347,17.861,18.712,35.396H162.137C168.488,202.952,175.434,188.634,180.834,185.077z M148.273,278.169    c0-11.837,9.597-21.42,21.42-21.42c11.837,0,21.42,9.583,21.42,21.42c0,11.823-9.583,21.42-21.42,21.42    C157.87,299.589,148.273,289.992,148.273,278.169z M330.589,299.589c-11.822,0-21.42-9.597-21.42-21.42    c0-11.837,9.598-21.42,21.42-21.42c11.837,0,21.42,9.583,21.42,21.42C352.009,289.992,342.412,299.589,330.589,299.589z"/>
	</g>
</g>
</svg>

  	
<!-- Generator: Adobe Illustrator 16.0.4, SVG Export Plug-In . SVG Version: 6.00 Build 0)  -->
<svg xmlns="http://www.w3.org/2000/svg" xmlns:xlink="http://www.w3.org/1999/xlink" version="1.1" id="I" x="0px" y="0px" viewBox="0 0 500 500" enable-background="new 0 0 500 500" xml:space="preserve">
<circle fill="#E79F04" cx="250" cy="233.443" r="233.443"/>
<g>
	<g>
		<path fill="#FFFFFF" d="M256.302,126.334c0-13.918-11.316-25.207-25.292-25.207c-13.958,0-25.275,11.282-25.275,25.207    c0,13.997,11.315,25.322,25.275,25.322C244.961,151.655,256.302,140.332,256.302,126.334z"/>
		<path fill="#FFFFFF" d="M359.304,151.018c-0.989-5.405-5.376-8.512-5.639-8.748L215.032,49.858    c-5.488-3.654-12.964-2.186-16.703,3.288l-7.018,10.294c-2.613,4.034-1.47,9.278,2.464,11.891    c3.959,2.648,8.298,0.656,10.846-3.383l5.351-13.336l124.253,83.086l-98.83,18.048c-7.025,1.144-12.072,8.249-10.506,15.159    l21.5,84.146l-69.533,105.512c-4.197,7.201-1.66,16.484,5.542,20.59c7.281,4.185,16.453,1.612,20.645-5.581    c0,0,72.56-110.346,72.833-111.099l3.78,15.418L268.7,371.92c-1.352,8.193,4.209,15.929,12.452,17.313    c8.221,1.396,15.982-4.172,17.382-12.365l11.238-90.347c0.357-2.179-0.089-6.973-0.607-9.031l-24.769-99.738l64.531-11.751    C355.845,164.767,360.493,158.049,359.304,151.018z"/>
	</g>
</g>
</svg>

  	
<!-- Generator: Adobe Illustrator 16.0.4, SVG Export Plug-In . SVG Version: 6.00 Build 0)  -->
<svg xmlns="http://www.w3.org/2000/svg" xmlns:xlink="http://www.w3.org/1999/xlink" version="1.1" id="J" x="0px" y="0px" viewBox="0 0 500 500" enable-background="new 0 0 500 500" xml:space="preserve">
<circle fill="#438CCB" cx="250" cy="250" r="233.443"/>
<g>
	<g>
		<path fill="#FFFFFF" d="M284.521,294.381c0,2.672-0.979,4.984-2.93,6.936c-1.953,1.953-4.266,2.93-6.936,2.93h-49.311    c-2.673,0-4.983-0.977-6.936-2.93c-1.952-1.949-2.928-4.264-2.928-6.936v-24.654H111.927v73.969c0,6.779,2.413,12.58,7.242,17.41    c4.829,4.828,10.634,7.242,17.414,7.242h226.835c6.779,0,12.584-2.414,17.412-7.242c4.832-4.83,7.242-10.631,7.242-17.41v-73.969    H284.521V294.381L284.521,294.381z"/>
		<rect x="230.273" y="269.727" fill="#FFFFFF" width="39.453" height="19.725"/>
		<path fill="#FFFFFF" d="M380.83,178.345c-4.828-4.829-10.633-7.243-17.412-7.243h-54.244v-24.656c0-4.11-1.438-7.602-4.316-10.479    c-2.873-2.875-6.367-4.314-10.475-4.314H205.62c-4.109,0-7.601,1.439-10.478,4.314c-2.878,2.875-4.315,6.368-4.315,10.479v24.656    h-54.244c-6.779,0-12.585,2.414-17.414,7.243s-7.242,10.631-7.242,17.412v59.175h276.145v-59.175    C388.072,188.976,385.662,183.174,380.83,178.345z M289.451,171.102h-78.9v-19.726h78.9V171.102z"/>
	</g>
</g>
</svg>

  	
<!-- Generator: Adobe Illustrator 16.0.4, SVG Export Plug-In . SVG Version: 6.00 Build 0)  -->
<svg xmlns="http://www.w3.org/2000/svg" xmlns:xlink="http://www.w3.org/1999/xlink" version="1.1" id="K" x="0px" y="0px" viewBox="0 0 500 500" enable-background="new 0 0 500 500" xml:space="preserve">
<circle fill="#4FBA9A" cx="250" cy="250" r="233.443"/>
<g>
	<g>
		<g>
			<path fill="#FFFFFF" d="M317.834,245.391c14.561-15.319,23.427-35.594,23.427-57.832c0-11.086-2.206-21.685-6.219-31.424     c12.116-5.082,20.628-17.055,20.628-31.016c0-18.57-15.054-33.623-33.623-33.623c-13.383,0-24.938,7.821-30.35,19.141     c-12.499-6.093-26.673-9.535-41.698-9.535c-15.023,0-29.199,3.442-41.698,9.535c-5.412-11.319-16.967-19.141-30.349-19.141     c-18.569,0-33.622,15.053-33.622,33.622c0,13.962,8.511,25.936,20.628,31.017c-4.015,9.74-6.219,20.337-6.219,31.424     c0,22.238,8.866,42.512,23.427,57.832c-25.531,24.154-66.523,63.011-56.808,101.871c4.492,17.971,16.214,25.084,28.62,25.729     c0.881-22.994,17.724-41.338,38.383-41.338c21.222,0,38.425,19.355,38.425,43.23c0,13.582-5.573,25.697-14.282,33.621     c14.991,0,31.737,0,33.495,0c3.694,0,19.407,0,33.497,0c-8.71-7.924-14.283-20.039-14.283-33.621     c0-23.875,17.202-43.23,38.426-43.23c20.658,0,37.501,18.342,38.383,41.336c12.405-0.645,24.127-7.758,28.62-25.727     C384.355,308.402,343.365,269.547,317.834,245.391z M174.43,139.074c-6.252-1.572-10.887-7.215-10.887-13.957     c0-7.958,6.451-14.41,14.41-14.41c6.525,0,12.031,4.341,13.804,10.291C185.124,126.214,179.283,132.3,174.43,139.074z      M288.425,180.354c3.98,0,7.205,3.226,7.205,7.205s-3.225,7.204-7.205,7.204c-3.979,0-7.204-3.225-7.204-7.204     S284.445,180.354,288.425,180.354z M211.575,180.354c3.98,0,7.204,3.226,7.204,7.205s-3.224,7.204-7.204,7.204     s-7.206-3.225-7.206-7.204S207.595,180.354,211.575,180.354z M250,274.016c-31.832,0-57.638-17.203-57.638-38.425     c0-21.222,25.806-38.426,57.638-38.426c31.833,0,57.639,17.204,57.639,38.426C307.639,256.812,281.833,274.016,250,274.016z      M308.243,121c1.772-5.95,7.279-10.291,13.804-10.291c7.959,0,14.41,6.451,14.41,14.409c0,6.74-4.635,12.384-10.888,13.958     C320.717,132.301,314.877,126.214,308.243,121z"/>
		</g>
	</g>
	<g>
		<g>
			<circle fill="#FFFFFF" cx="191.756" cy="377.284" r="16.812"/>
		</g>
	</g>
	<g>
		<g>
			<circle fill="#FFFFFF" cx="308.233" cy="377.284" r="16.812"/>
		</g>
	</g>
	<g>
		<g>
			<path fill="#FFFFFF" d="M250,216.378c-10.611,0-19.212,1.118-19.212,9.605c0,8.488,8.602,19.213,19.212,19.213     c10.612,0,19.213-10.725,19.213-19.213C269.213,217.496,260.611,216.378,250,216.378z"/>
		</g>
	</g>
</g>
</svg>

  	
<!-- Generator: Adobe Illustrator 16.0.4, SVG Export Plug-In . SVG Version: 6.00 Build 0)  -->
<svg xmlns="http://www.w3.org/2000/svg" xmlns:xlink="http://www.w3.org/1999/xlink" version="1.1" id="L" x="0px" y="0px" viewBox="0 0 500 500" enable-background="new 0 0 500 500" xml:space="preserve">
<circle fill="#83619E" cx="250" cy="250" r="233.443"/>
<g>
	<path fill="#FFFFFF" d="M264.006,216.195c1.759,0,3.455,0.282,5.087,0.753l30.46-37.335c1.945-2.387,5.557-2.826,7.912-0.816   c2.292,1.915,2.605,5.339,0.691,7.662l-30.113,36.928c2.04,2.827,3.265,6.312,3.265,10.079c0,7.004-4.208,13.063-10.206,15.764   h118.163c4.334,0,7.85-3.517,7.85-7.85v-99.386c0-4.333-3.516-7.85-7.85-7.85H239.167c-4.333,0-7.851,3.517-7.851,7.85v65.252   l7.097,8.981h25.592V216.195z"/>
	<circle fill="#FFFFFF" cx="166.096" cy="141.147" r="32.155"/>
	<g>
		<path fill="#FFFFFF" d="M199.068,383.157c0,4.331-3.518,7.851-7.851,7.851h-13.188c-4.333,0-7.851-3.52-7.851-7.851v-65.818    c0-2.322-1.884-4.206-4.208-4.206l0,0c-2.324,0-4.208,1.884-4.208,4.206v65.502c0,4.493-3.673,8.167-8.164,8.167h-12.906    c-4.333,0-7.85-3.52-7.85-7.851l-0.063-158.892c0-2.136-1.727-3.893-3.894-3.893l0,0c-2.136,0-3.894,1.728-3.894,3.893v61.107    c0,4.333-3.516,7.85-7.85,7.85h-6.406c-4.333,0-7.851-3.517-7.851-7.85v-83.779c0-9.955,8.07-17.993,17.993-17.993h71.501    c7.662,0,14.916,3.519,19.688,9.516l19.218,24.242l4.051,5.118c0,0,18.212,0,28.7,0.031c4.333,0,7.85,3.517,7.85,7.85v6.249    c0,4.334-3.517,7.85-7.85,7.85h-33.976c-3.36,0-6.531-1.538-8.604-4.176l-14.319-18.401c-0.722-0.941-1.884-1.507-3.078-1.507    h-0.973c-2.135,0-3.893,1.728-3.893,3.894L199.068,383.157z"/>
	</g>
</g>
</svg>

  	
<!-- Generator: Adobe Illustrator 19.0.0, SVG Export Plug-In . SVG Version: 6.00 Build 0)  -->
<svg xmlns="http://www.w3.org/2000/svg" xmlns:xlink="http://www.w3.org/1999/xlink" version="1.1" id="missed" x="0px" y="0px" viewBox="0 0 512 512" style="enable-background:new 0 0 512 512;" xml:space="preserve">
<circle style="fill:#FF5722;" cx="256" cy="256" r="256"/>
<path style="fill:#2C0900;" d="M234.631,313.809l-82.618,82.618c-10.287,10.287-26.95,10.287-37.236,0s-10.287-26.95,0-37.236  l82.804-82.804C206.746,291.654,219.452,304.5,234.631,313.809z"/>
<path style="fill:#7A1C05;" d="M213.592,297.011l-99.095,99.091c-10.007-10.282-9.914-26.717,0.233-36.911l82.851-82.851  C202.091,283.834,207.495,290.769,213.592,297.011z"/>
<path style="fill:#FFFFFF;" d="M404.936,218.764c0,61.673-50.036,111.709-111.709,111.709c-61.891,0-111.709-50.511-111.709-111.709  c0-61.673,50.036-111.709,111.709-111.709S404.936,157.091,404.936,218.764z"/>
<circle style="fill:#FFC7B2;" cx="293.227" cy="218.764" r="93.091"/>
<path style="fill:#AC2200;" d="M292.361,185.135c-15.043-23.529-60.197-15.127-60.197,26.899  c0.936,38.256,60.197,67.24,60.197,67.24s59.271-28.984,60.207-67.235C352.568,170.007,307.414,161.61,292.361,185.135z"/>
<path style="fill:#D22600;" d="M292.361,185.135c-15.043-23.533-60.197-15.127-60.197,26.899  c0.414,16.863,12.162,31.921,25.176,43.497l78.071-78.075C320.991,168.439,301.335,171.115,292.361,185.135z"/>
<g>
</g>
<g>
</g>
<g>
</g>
<g>
</g>
<g>
</g>
<g>
</g>
<g>
</g>
<g>
</g>
<g>
</g>
<g>
</g>
<g>
</g>
<g>
</g>
<g>
</g>
<g>
</g>
<g>
</g>
</svg>

  	
<!-- Generator: Adobe Illustrator 16.0.4, SVG Export Plug-In . SVG Version: 6.00 Build 0)  -->
<svg xmlns="http://www.w3.org/2000/svg" xmlns:xlink="http://www.w3.org/1999/xlink" version="1.1" id="M" x="0px" y="0px" viewBox="0 0 500 500" enable-background="new 0 0 500 500" xml:space="preserve">
<circle fill="#606D80" cx="250" cy="250" r="233.443"/>
<g>
	<path fill="#FFFFFF" d="M231.022,302.983h-95.507c-2.22,0-4.027-1.809-4.027-4.028V143.569c0-2.22,1.808-4.027,4.027-4.027h228.96   c2.221,0,4.027,1.808,4.027,4.027v34.031c6.706,0.792,12.989,2.989,18.333,6.602v-40.633c0-12.331-10.034-22.361-22.361-22.361   H135.516c-12.326,0-22.361,10.03-22.361,22.361v155.385c0,12.331,10.035,22.362,22.361,22.362h76.743v29.976h-12.102   c-7.592,0-13.751,6.154-13.751,13.75s6.159,13.75,13.751,13.75h38.6c-4.824-6.785-7.733-15.021-7.733-23.964L231.022,302.983   L231.022,302.983z"/>
	<path fill="#FFFFFF" d="M307.972,364.925v-19.806h-40.283V218.617c0-2.668,2.167-4.839,4.834-4.839h91.147   c2.667,0,4.833,2.171,4.833,4.839v39.15h6.867c4.198,0,8.084,1.213,11.466,3.191v-42.342c0-12.779-10.393-23.173-23.167-23.173   h-91.146c-12.773,0-23.167,10.394-23.167,23.173v136.21c0,12.779,10.393,23.172,23.167,23.172h39.585   C309.583,374.374,307.972,369.322,307.972,364.925z"/>
	<path fill="#FFFFFF" d="M375.37,269.227h-44.464c-6.329,0-11.477,5.151-11.477,11.48v84.218c0,6.329,5.147,11.477,11.477,11.477   h44.464c6.329,0,11.476-5.147,11.476-11.477v-84.219C386.846,274.378,381.699,269.227,375.37,269.227z M333.18,282.977h39.916v72.8   H333.18V282.977z M353.143,370.824c-1.263,0-2.39-0.511-3.249-1.298c-0.977-0.887-1.603-2.132-1.603-3.551   c0-2.676,2.166-4.843,4.852-4.843c2.668,0,4.834,2.167,4.834,4.843c0,1.419-0.627,2.664-1.593,3.551   C355.523,370.313,354.396,370.824,353.143,370.824z"/>
</g>
</svg>

  	
<!-- Generator: Adobe Illustrator 16.0.4, SVG Export Plug-In . SVG Version: 6.00 Build 0)  -->
<svg xmlns="http://www.w3.org/2000/svg" xmlns:xlink="http://www.w3.org/1999/xlink" version="1.1" id="N" x="0px" y="0px" viewBox="0 0 500 500" enable-background="new 0 0 500 500" xml:space="preserve">
<circle fill="#447D9C" cx="250" cy="250" r="233.443"/>
<g>
	<g>
		<path fill="#FFFFFF" d="M373.779,331.788V134.287c0-5.839-7.361-7.362-7.361-7.362H214.104c-22.086,0-22.086,23.608-22.086,23.608    v61.179c40.871,6.093,72.35,41.379,72.35,83.774c0,19.801-6.854,38.078-18.277,52.547h96.211c4.316,0,7.87-3.553,7.87-7.869    h15.739C374.287,340.165,373.779,331.788,373.779,331.788z M349.917,325.694V158.657c0-4.315-3.554-7.87-7.87-7.87h-13.454v71.588    c0,0.507-0.254,1.015-0.761,1.269c-0.509,0.254-1.016,0-1.523-0.254l-21.832-22.085l-21.832,21.831    c-0.254,0.254-0.508,0.508-1.016,0.508c-0.254,0-0.254,0-0.508,0c-0.507-0.254-0.762-0.762-0.762-1.269v-71.588h-72.602    c0-5.331,4.569-8.123,8.123-8.123s134.291,0,134.291,0c8.377,0,8.123,7.362,8.123,7.362v169.83l0,0    C358.294,319.856,358.801,325.694,349.917,325.694z"/>
		<path fill="#FFFFFF" d="M178.31,223.391c-39.855,0-72.096,32.24-72.096,71.843c0,39.602,32.24,71.84,71.841,71.84    c39.855,0.254,72.096-31.984,72.096-71.84C250.151,255.631,217.911,223.391,178.31,223.391z M187.956,232.529l-5.077,27.417    c-2.285-0.254-4.315-0.254-6.093-0.254c-1.777,0-3.808,0.508-6.093,1.016l-7.87-26.909    C171.202,231.514,179.833,231.261,187.956,232.529z M178.31,323.665c-15.74,0-28.433-12.693-28.433-28.178    c0-15.74,12.693-28.434,28.433-28.434c15.738,0,28.431,12.693,28.431,28.434C206.488,310.972,193.795,323.665,178.31,323.665z"/>
		<path fill="#FFFFFF" d="M178.31,284.825c-5.839,0-10.408,4.822-10.408,10.408c0,5.584,4.823,10.406,10.408,10.406    c5.838,0,10.408-4.822,10.408-10.406C188.718,289.394,183.895,284.825,178.31,284.825z"/>
	</g>
</g>
</svg>

  	
<!-- Generator: Adobe Illustrator 16.0.4, SVG Export Plug-In . SVG Version: 6.00 Build 0)  -->
<svg xmlns="http://www.w3.org/2000/svg" xmlns:xlink="http://www.w3.org/1999/xlink" version="1.1" id="P" x="0px" y="0px" viewBox="0 0 500 500" enable-background="new 0 0 500 500" xml:space="preserve">
<circle fill="#BE1E2D" cx="250" cy="250" r="233.443"/>
<g>
	<g>
		<path fill="#FFFFFF" d="M249.991,406.342c-310.312-169.276-85.885-379.727,0-237.992    C335.893,26.615,560.333,237.066,249.991,406.342z"/>
	</g>
</g>
</svg>

  	
<!-- Generator: Adobe Illustrator 16.0.4, SVG Export Plug-In . SVG Version: 6.00 Build 0)  -->
<svg xmlns="http://www.w3.org/2000/svg" xmlns:xlink="http://www.w3.org/1999/xlink" version="1.1" id="R1" x="0px" y="0px" viewBox="0 0 500 500" enable-background="new 0 0 500 500" xml:space="preserve">
<circle fill="#3A8E66" cx="250" cy="250" r="233.443"/>
<g>
	<path fill="#FFFFFF" d="M141.166,375.765c0,0-0.267,6.683,6.262,6.683c8.123,0,75.364-0.09,75.364-0.09l0.109-61.751   c0,0-1.062-10.181,8.819-10.181h31.27c11.685,0,10.967,10.181,10.967,10.181l-0.135,61.552c0,0,63.756,0,73.771,0   c8.286,0,7.912-8.32,7.912-8.32V259.99l-103.968-92.479L141.166,259.99V375.765z"/>
	<path fill="#FFFFFF" d="M100.513,251.383c0,0,9.372,17.272,29.808,0l122.136-103.324l114.51,102.682   c23.657,17.062,32.521,0,32.521,0L252.456,117.553L100.513,251.383z"/>
	<polygon fill="#FFFFFF" points="364.19,147.815 334.734,147.815 334.857,183.533 364.19,208.417  "/>
</g>
</svg>

  	
<!-- Generator: Adobe Illustrator 16.0.4, SVG Export Plug-In . SVG Version: 6.00 Build 0)  -->
<svg xmlns="http://www.w3.org/2000/svg" xmlns:xlink="http://www.w3.org/1999/xlink" version="1.1" id="R2" x="0px" y="0px" viewBox="0 0 500 500" enable-background="new 0 0 500 500" xml:space="preserve">
<circle fill="#19B295" cx="250" cy="250" r="233.443"/>
<g>
	<path fill="#FFFFFF" d="M141.166,375.766c0,0-0.267,6.683,6.262,6.683c8.123,0,75.364-0.091,75.364-0.091l0.109-61.75   c0,0-1.062-10.182,8.819-10.182h31.27c11.685,0,10.967,10.182,10.967,10.182l-0.135,61.552c0,0,63.756,0,73.771,0   c8.286,0,7.912-8.32,7.912-8.32V259.99l-103.968-92.479L141.166,259.99V375.766z"/>
	<path fill="#FFFFFF" d="M100.513,251.383c0,0,9.372,17.271,29.808,0l122.136-103.324l114.51,102.682   c23.657,17.062,32.521,0,32.521,0L252.456,117.553L100.513,251.383z"/>
	<polygon fill="#FFFFFF" points="364.19,147.815 334.734,147.815 334.857,183.533 364.19,208.417  "/>
</g>
</svg>

  	
<!-- Generator: Adobe Illustrator 16.0.4, SVG Export Plug-In . SVG Version: 6.00 Build 0)  -->
<svg xmlns="http://www.w3.org/2000/svg" xmlns:xlink="http://www.w3.org/1999/xlink" version="1.1" id="R3" x="0px" y="0px" viewBox="0 0 500 500" enable-background="new 0 0 500 500" xml:space="preserve">
<circle fill="#47B588" cx="250" cy="250" r="233.443"/>
<g>
	<g>
		<path fill="#FFFFFF" d="M410.897,242.569c-10.854-11.23-29.193-11.23-40.057-0.375l-76.366,75.996H135.374    c-15.723,0-28.451,12.729-28.451,28.451c0,15.723,12.727,28.457,28.451,28.457h15.723L135.746,386.7    c-3.369,2.616-4.116,7.114-1.498,10.482c1.498,1.87,3.745,2.998,5.991,2.998c1.497,0,2.993-0.377,4.49-1.498l32.195-23.581h87.225    l32.194,23.581c1.497,1.125,2.994,1.498,4.49,1.498c2.246,0,4.494-1.125,5.992-2.996c2.618-3.368,1.872-7.855-1.498-10.482    l-16.097-11.604h16.845c7.485,0,14.601-2.996,19.839-8.236l84.604-83.85c5.24-5.238,8.236-12.353,8.61-20.214    C419.133,255.297,416.139,248.184,410.897,242.569z"/>
	</g>
</g>
<g>
	<g>
		<path fill="#FFFFFF" d="M238.271,142.958c-20.591,0-37.436,16.846-37.436,37.435c0,20.591,16.844,37.435,37.436,37.435    c20.588,0,37.435-16.471,37.435-37.435C275.706,159.804,258.859,142.958,238.271,142.958z"/>
	</g>
</g>
<g>
	<g>
		<path fill="#FFFFFF" d="M238.271,236.546c-4.119,0-7.487,3.369-7.487,7.486v22.46c0,4.125,3.368,7.488,7.487,7.488    c4.117,0,7.486-3.369,7.486-7.488v-22.46C245.758,239.916,242.388,236.546,238.271,236.546z"/>
	</g>
</g>
<g>
	<g>
		<path fill="#FFFFFF" d="M238.271,87.179c-4.119,0-7.487,3.369-7.487,7.488v22.461c0,4.119,3.368,7.489,7.487,7.489    c4.117,0,7.486-3.37,7.486-7.489V94.667C245.758,90.549,242.388,87.179,238.271,87.179z"/>
	</g>
</g>
<g>
	<g>
		<path fill="#FFFFFF" d="M175.004,172.905h-22.461c-4.119,0-7.489,3.37-7.489,7.487c0,4.119,3.37,7.487,7.489,7.487h22.461    c4.119,0,7.489-3.368,7.489-7.487C182.493,176.275,179.123,172.905,175.004,172.905z"/>
	</g>
</g>
<g>
	<g>
		<path fill="#FFFFFF" d="M323.997,172.905h-22.46c-4.125,0-7.49,3.37-7.49,7.487c0,4.119,3.368,7.487,7.49,7.487h22.46    c4.118,0,7.487-3.368,7.487-7.487C331.484,176.275,328.115,172.905,323.997,172.905z"/>
	</g>
</g>
<g>
	<g>
		<path fill="#FFFFFF" d="M198.59,220.074c-2.994-2.994-7.487-2.994-10.482,0l-15.721,15.724c-2.996,2.994-2.996,7.489,0,10.482    c1.496,1.497,3.368,2.245,5.241,2.245c1.871,0,3.742-0.748,5.239-2.245l15.723-15.723    C201.584,227.562,201.584,223.068,198.59,220.074z"/>
	</g>
</g>
<g>
	<g>
		<path fill="#FFFFFF" d="M304.157,114.882c-2.994-2.995-7.487-2.995-10.483,0l-15.724,15.722c-2.994,2.996-2.994,7.487,0,10.483    c1.497,1.498,3.368,2.245,5.235,2.245c1.869,0,3.748-0.747,5.239-2.245l15.726-15.723    C307.153,122.369,307.153,117.877,304.157,114.882z"/>
	</g>
</g>
<g>
	<g>
		<path fill="#FFFFFF" d="M198.59,130.604l-15.723-15.722c-2.995-2.995-7.489-2.995-10.48,0c-2.996,2.995-2.996,7.488,0,10.481    l15.721,15.723c1.498,1.498,3.37,2.245,5.241,2.245s3.745-0.747,5.241-2.245C201.584,138.089,201.584,133.6,198.59,130.604z"/>
	</g>
</g>
<g>
	<g>
		<path fill="#FFFFFF" d="M304.157,236.173l-15.726-15.723c-2.992-2.996-7.486-2.996-10.481,0c-2.994,2.994-2.994,7.487,0,10.483    l15.724,15.721c1.497,1.498,3.37,2.245,5.24,2.245c1.865,0,3.744-0.746,5.236-2.245    C307.153,243.659,307.153,239.166,304.157,236.173z"/>
	</g>
</g>
</svg>

  	
<!-- Generator: Adobe Illustrator 16.0.4, SVG Export Plug-In . SVG Version: 6.00 Build 0)  -->
<svg xmlns="http://www.w3.org/2000/svg" xmlns:xlink="http://www.w3.org/1999/xlink" version="1.1" id="R" x="0px" y="0px" viewBox="0 0 500 500" enable-background="new 0 0 500 500" xml:space="preserve">
<circle fill="#29665B" cx="250" cy="250" r="233.443"/>
<g>
	<path fill="#FFFFFF" d="M141.166,375.765c0,0-0.267,6.683,6.262,6.683c8.123,0,75.364-0.09,75.364-0.09l0.109-61.751   c0,0-1.062-10.181,8.819-10.181h31.27c11.685,0,10.967,10.181,10.967,10.181l-0.135,61.552c0,0,63.756,0,73.771,0   c8.286,0,7.912-8.32,7.912-8.32V259.99l-103.968-92.479L141.166,259.99V375.765z"/>
	<path fill="#FFFFFF" d="M100.513,251.383c0,0,9.372,17.272,29.808,0l122.136-103.324l114.51,102.682   c23.657,17.062,32.521,0,32.521,0L252.456,117.553L100.513,251.383z"/>
	<polygon fill="#FFFFFF" points="364.19,147.815 334.734,147.815 334.857,183.533 364.19,208.417  "/>
</g>
</svg>

  	
<!-- Generator: Adobe Illustrator 19.0.0, SVG Export Plug-In . SVG Version: 6.00 Build 0)  -->
<svg xmlns="http://www.w3.org/2000/svg" xmlns:xlink="http://www.w3.org/1999/xlink" version="1.1" id="services" x="0px" y="0px" viewBox="0 0 512 512" style="enable-background:new 0 0 512 512;" xml:space="preserve">
<circle style="fill:#FF5722;" cx="256" cy="256" r="256"/>
<g>
	<path style="fill:#AC2200;" d="M297.891,167.564c-23.273,0-23.273,18.618-41.891,18.618s-18.618-18.618-41.891-18.618   S116.364,228.073,107.055,256c9.309,27.927,55.855,0,97.745,0c18.618,0,23.273,9.309,51.2,9.309c23.273,0,32.582-9.309,51.2-9.309   c41.891,0,88.436,27.927,97.745,0C395.636,228.073,321.164,167.564,297.891,167.564z"/>
	<path style="fill:#AC2200;" d="M311.855,279.273c-14.718,0-27.927,9.309-55.855,9.309c-27.927,0-41.137-9.309-55.855-9.309   c-18.618,0-41.891,4.655-79.127,4.655C125.673,297.891,167.564,358.4,256,358.4s130.327-60.509,134.982-74.473   C353.745,283.927,330.473,279.273,311.855,279.273z"/>
</g>
<path style="fill:#D22600;" d="M297.891,167.564c-23.273,0-23.273,18.618-41.891,18.618s-18.618-18.618-41.891-18.618  S116.364,228.073,107.055,256c9.309,27.927,55.855,0,97.745,0c14.708,0,20.741,5.795,36.375,8.234l84.959-84.959  C314.475,172.116,304.263,167.564,297.891,167.564z"/>
<g>
</g>
<g>
</g>
<g>
</g>
<g>
</g>
<g>
</g>
<g>
</g>
<g>
</g>
<g>
</g>
<g>
</g>
<g>
</g>
<g>
</g>
<g>
</g>
<g>
</g>
<g>
</g>
<g>
</g>
</svg>

  	
<!-- Generator: Adobe Illustrator 16.0.4, SVG Export Plug-In . SVG Version: 6.00 Build 0)  -->
<svg xmlns="http://www.w3.org/2000/svg" xmlns:xlink="http://www.w3.org/1999/xlink" version="1.1" id="S" x="0px" y="0px" viewBox="0 0 500 500" enable-background="new 0 0 500 500" xml:space="preserve">
<circle fill="#9760A9" cx="250" cy="250" r="233.443"/>
<g>
	<g>
		<path fill="#FFFFFF" d="M320.661,299.213c-8.869-8.761-19.943-8.761-28.756,0c-6.724,6.663-13.446,13.33-20.055,20.111    c-1.81,1.862-3.333,2.259-5.537,1.017c-4.351-2.375-8.983-4.294-13.164-6.892c-19.492-12.261-35.819-28.023-50.281-45.763    c-7.174-8.812-13.559-18.248-18.024-28.869c-0.902-2.147-0.733-3.56,1.019-5.312c6.724-6.498,13.277-13.163,19.886-19.828    c9.209-9.266,9.209-20.115-0.056-29.435c-5.255-5.312-10.509-10.508-15.761-15.819c-5.425-5.424-10.792-10.904-16.272-16.271    c-8.87-8.645-19.944-8.645-28.757,0.057c-6.778,6.666-13.276,13.502-20.169,20.055c-6.384,6.045-9.604,13.447-10.282,22.09    c-1.073,14.068,2.374,27.344,7.231,40.283c9.944,26.778,25.085,50.562,43.446,72.37c24.803,29.49,54.406,52.825,89.037,69.657    c15.592,7.572,31.751,13.392,49.319,14.353c12.091,0.676,22.601-2.375,31.018-11.811c5.762-6.438,12.26-12.313,18.361-18.473    c9.039-9.151,9.095-20.224,0.113-29.264C342.242,320.681,331.452,309.945,320.661,299.213z"/>
		<path fill="#FFFFFF" d="M309.871,254.183l20.846-3.558c-3.276-19.151-12.316-36.496-26.043-50.281    c-14.521-14.519-32.88-23.671-53.108-26.496l-2.938,20.96c15.65,2.202,29.889,9.265,41.131,20.506    C300.378,225.938,307.329,239.381,309.871,254.183z"/>
		<path fill="#FFFFFF" d="M342.467,163.564c-24.066-24.066-54.518-39.264-88.131-43.953l-2.938,20.959    c29.039,4.068,55.364,17.232,76.155,37.964c19.718,19.718,32.654,44.632,37.344,72.032l20.847-3.558    C380.265,215.258,365.294,186.447,342.467,163.564z"/>
	</g>
</g>
</svg>

  	
<!-- Generator: Adobe Illustrator 26.5.0, SVG Export Plug-In . SVG Version: 6.00 Build 0)  -->
<svg xmlns="http://www.w3.org/2000/svg" xmlns:xlink="http://www.w3.org/1999/xlink" version="1.1" id="T" x="0px" y="0px" viewBox="-170 -170 840 840" style="enable-background:new 0 0 840 840;" xml:space="preserve">
	<circle fill="#86785B" cx="250" cy="250" r="392"/>
	<g>
		<path fill="#FFFFFF" d="m106 282h-90c-8.284 0-15 6.716-15 15v200c0 8.284 6.716 15 15 15h90c8.284 0 15-6.716 15-15v-200c0-8.284-6.716-15-15-15z"/>
		<path fill="#FFFFFF" d="m487.792 300.972c-15.082-6.894-32.857-3.691-44.582 8.035-14.093 14.095-33.597 33.6-50.793 50.799-.161 37.093-30.38 67.223-67.51 67.223h-76.907c-8.284 0-15-6.716-15-15s6.716-15 15-15h76.908c20.719 0 37.516-16.796 37.516-37.516 0-20.724-16.801-37.523-37.525-37.52l-53.357.007c-37.177-21.347-81.33-24.406-120.542-9.136v164.238c35.075 8.161 71.027 12.299 106.988 12.299 34.572 0 69.237-3.833 103.04-11.394 21.271-4.767 40.671-15.419 56.104-30.808l82.197-82.006c19.615-19.569 13.662-52.703-11.537-64.221z"/>
		<path fill="#FFFFFF" d="m174.577 233.971 12.352-7.132c7.49 5.679 15.535 10.359 24.07 14v14.161c0 8.284 6.716 15 15 15h60c8.284 0 15-6.716 15-15v-14.161c8.535-3.641 16.58-8.321 24.07-14l12.352 7.132c7.174 4.142 16.348 1.684 20.49-5.49l30-51.962c4.142-7.174 1.684-16.348-5.49-20.49l-12.3-7.102c.585-4.671.879-9.327.879-13.927s-.294-9.256-.877-13.927l12.3-7.102c7.174-4.142 9.632-13.316 5.49-20.49l-30-51.962c-4.142-7.174-13.316-9.633-20.49-5.49l-12.353 7.131c-7.488-5.678-15.535-10.359-24.07-14v-14.16c0-8.284-6.716-15-15-15h-60c-8.284 0-15 6.716-15 15v14.16c-8.535 3.641-16.582 8.322-24.07 14l-12.352-7.132c-7.174-4.142-16.348-1.684-20.49 5.49l-30 51.962c-4.142 7.174-1.684 16.348 5.49 20.49l12.3 7.102c-.584 4.672-.878 9.328-.878 13.928s.294 9.256.877 13.927l-12.3 7.102c-7.174 4.142-9.632 13.316-5.49 20.49l30 51.962c4.142 7.175 13.316 9.633 20.49 5.49zm81.423-143.971c24.813 0 45 20.187 45 45s-20.187 45-45 45-45-20.187-45-45 20.187-45 45-45z"/>
	</g>
</svg>

  
</svg>