<svg xmlns="http://www.w3.org/2000/svg" xmlns:xlink="http://www.w3.org/1999/xlink" version="1.1" id="premium_top_ad" x="0px" y="0px" viewBox="0 0 100 100" enable-background="new 0 0 100 100" xml:space="preserve">
<circle fill="#FF9933" cx="50.5" cy="49.653" r="49.653"/>
<g>
	<g>
		<g>
			<path fill="#FFFFFF" d="M32.011,39.123h-7.169c-0.985,0-1.791,0.803-1.791,1.791v32.265c0,0.99,0.802,1.792,1.791,1.792h7.169     c0.989,0,1.793-0.802,1.793-1.792V40.914C33.805,39.926,32.998,39.123,32.011,39.123z"/>
		</g>
	</g>
	<g>
		<g>
			<path fill="#FFFFFF" d="M73.474,39.123c-0.287-0.049-13.803,0-13.803,0l1.887-5.151c1.303-3.557,0.46-8.988-3.155-10.919     c-1.175-0.628-2.82-0.945-4.145-0.611c-0.761,0.191-1.429,0.694-1.828,1.369c-0.458,0.776-0.41,1.68-0.573,2.541     c-0.414,2.182-1.443,4.255-3.041,5.812c-2.783,2.714-11.426,10.544-11.426,10.544v28.677h29.873     c4.03,0.005,6.673-4.497,4.685-8.013c2.371-1.519,3.181-4.715,1.792-7.17c2.37-1.517,3.18-4.713,1.794-7.171     C79.619,46.412,78.252,39.931,73.474,39.123z"/>
		</g>
	</g>
</g>
</svg>