<svg xmlns="http://www.w3.org/2000/svg" fill="none" viewBox="0 0 137 137" id="upgrade_ads--white" style="&#10;    fill: #f00;&#10;">
<g clip-path="url(#clip0_260_14010)">
<path d="M122.239 0H14.7607C6.62151 0 0 6.62151 0 14.7617V100.743C0 108.882 6.62151 115.505 14.7607 115.505H53.7383V128.973H47.0049C44.788 128.973 42.9912 130.769 42.9912 132.986C42.9912 135.203 44.788 137 47.0049 137H89.9951C92.212 137 94.0088 135.203 94.0088 132.986C94.0088 130.769 92.212 128.973 89.9951 128.973H83.2607V115.505H122.239C130.378 115.505 137 108.882 137 100.743V14.7617C137 6.62151 130.378 0 122.239 0ZM128.973 100.743C128.973 104.457 125.952 107.478 122.239 107.478H14.7607C11.048 107.478 8.02734 104.457 8.02734 100.743V14.7617C8.02734 11.048 11.048 8.02734 14.7607 8.02734H122.239C125.952 8.02734 128.973 11.048 128.973 14.7617V100.743Z" fill="white" style="&#10;"/>
<path d="M80.6946 51.0101H78.439V64.3284H80.6946C82.2331 64.3284 82.9805 63.4786 82.9805 61.7289V53.6096C82.9805 51.8599 82.2331 51.0101 80.6946 51.0101Z" fill="white"/>
<path d="M108.231 28.0464H28.7688C26.5519 28.0464 24.7551 29.8432 24.7551 32.0601V83.4445C24.7551 85.6604 26.5519 87.4582 28.7688 87.4582H108.232C110.448 87.4582 112.246 85.6604 112.246 83.4445V32.0601C112.245 29.8432 110.448 28.0464 108.231 28.0464ZM63.6721 69.6622C62.1554 69.6622 61.6976 68.85 61.5586 68.365L60.5991 64.8353H54.8023L53.8438 68.3588C53.7037 68.85 53.2449 69.6622 51.7283 69.6622C50.196 69.6622 48.0585 68.6953 48.0585 67.1212C48.0585 66.9603 48.0982 66.8014 48.1369 66.6467L48.1442 66.6206L53.9755 47.4971C54.3591 46.2752 55.8151 45.4882 57.685 45.4882C59.5539 45.4882 61.0099 46.2752 61.3924 47.4929L67.2635 66.6467C67.3021 66.8014 67.3419 66.9603 67.3419 67.1212C67.3429 68.6953 65.2054 69.6622 63.6721 69.6622ZM88.9415 61.7289C88.9415 66.8453 86.0127 69.6622 80.6946 69.6622H75.1455C73.6258 69.6622 72.4791 68.7988 72.4791 67.6543V47.6852C72.4791 46.5396 73.6258 45.6763 75.1455 45.6763H80.6946C86.0127 45.6763 88.9415 48.4942 88.9415 53.6096V61.7289Z" fill="white"/>
<path d="M56.0962 60.0022H59.2726L57.6849 54.1729L56.0962 60.0022Z" fill="white"/>
</g>
<defs>
<clipPath id="clip0_260_14010">
<rect width="137" height="137" fill="white"/>
</clipPath>
</defs>
</svg>