<svg xmlns="http://www.w3.org/2000/svg" fill="none" viewBox="0 0 117 117" id="upgrade_account--white">
<g clip-path="url(#clip0_260_14016)">
<path d="M57.6662 56.3592C65.409 56.3592 72.1136 53.5822 77.5917 48.1032C83.0698 42.6251 85.8468 35.9223 85.8468 28.1787C85.8468 20.4378 83.0698 13.7341 77.5908 8.2542C72.1118 2.77699 65.4081 0 57.6662 0C49.9226 0 43.2197 2.77699 37.7416 8.25509C32.2635 13.7332 29.4856 20.4369 29.4856 28.1787C29.4856 35.9223 32.2635 42.626 37.7425 48.1041C43.2215 53.5813 49.9252 56.3592 57.6662 56.3592Z" fill="white"/>
<path d="M106.975 89.967C106.817 87.6872 106.497 85.2003 106.027 82.5742C105.552 79.9284 104.94 77.4272 104.208 75.1412C103.452 72.7784 102.424 70.445 101.153 68.209C99.8337 65.8881 98.284 63.8672 96.5452 62.2042C94.7269 60.4645 92.5006 59.0657 89.9263 58.0454C87.3608 57.0305 84.5178 56.5163 81.4765 56.5163C80.2822 56.5163 79.1271 57.0064 76.8964 58.4587C75.5235 59.354 73.9177 60.3895 72.1252 61.5347C70.5926 62.5113 68.5163 63.4262 65.9518 64.2546C63.4497 65.0642 60.9092 65.4748 58.4018 65.4748C55.8944 65.4748 53.3548 65.0642 50.8501 64.2546C48.2882 63.4271 46.2119 62.5122 44.6811 61.5356C42.9056 60.4011 41.2988 59.3656 39.9054 58.4578C37.6774 57.0055 36.5214 56.5154 35.3271 56.5154C32.285 56.5154 29.4428 57.0305 26.8783 58.0463C24.3057 59.0648 22.0785 60.4636 20.2584 62.2051C18.5205 63.869 16.97 65.889 15.6524 68.209C14.3822 70.445 13.3539 72.7775 12.5969 75.1421C11.8659 77.4281 11.2544 79.9284 10.7795 82.5742C10.3091 85.1967 9.98952 87.6845 9.83153 89.9696C9.67621 92.2084 9.59766 94.5319 9.59766 96.8786C9.59766 102.986 11.5391 107.93 15.3677 111.577C19.1489 115.175 24.1521 117 30.2364 117H86.5726C92.6568 117 97.6583 115.176 101.44 111.577C105.27 107.933 107.211 102.988 107.211 96.8777C107.21 94.5203 107.131 92.195 106.975 89.967Z" fill="white"/>
</g>
<defs>
<clipPath id="clip0_260_14016">
<rect width="117" height="117" fill="white"/>
</clipPath>
</defs>
</svg>