<svg xmlns="http://www.w3.org/2000/svg" viewBox="0 0 146 146" fill="none" id="wallet--white">
<g clip-path="url(#clip0_260_13996)">
<path d="M118.625 109.5C103.532 109.5 91.25 97.2177 91.25 82.125C91.25 67.0322 103.532 54.75 118.625 54.75H133.833V42.5833C133.833 35.8734 128.377 30.4167 121.667 30.4167H115.583V18.25C115.583 11.5401 110.127 6.08333 103.417 6.08333H18.25C9.22842 6.08333 1.77025 12.6777 0.31025 21.2856C0.176417 21.7844 0 22.2711 0 22.8125V115.583C0 125.645 8.18817 133.833 18.25 133.833H121.667C128.377 133.833 133.833 128.377 133.833 121.667V109.5H118.625ZM12.1667 24.3333C12.1667 20.9814 14.892 18.25 18.25 18.25H103.417V30.4167H18.25C14.892 30.4167 12.1667 27.6852 12.1667 24.3333Z" fill="white"/>
<path d="M141.438 63.875H118.625C108.563 63.875 100.375 72.0632 100.375 82.125C100.375 92.1868 108.563 100.375 118.625 100.375H141.438C143.956 100.375 146 98.331 146 95.8125V68.4375C146 65.919 143.956 63.875 141.438 63.875ZM118.625 88.2083C115.267 88.2083 112.542 85.483 112.542 82.125C112.542 78.767 115.267 76.0417 118.625 76.0417C121.983 76.0417 124.708 78.767 124.708 82.125C124.708 85.483 121.983 88.2083 118.625 88.2083Z" fill="white"/>
</g>
<defs>
<clipPath id="clip0_260_13996">
<rect width="146" height="146" fill="white"/>
</clipPath>
</defs>
</svg>