<svg xmlns="http://www.w3.org/2000/svg" viewBox="0 0 126 126" fill="none" id="time">
<path fill-rule="evenodd" clip-rule="evenodd" d="M0.000976562 63.2C0.000976562 28.5715 28.1739 0.400024 62.801 0.400024C97.4281 0.400024 125.601 28.5715 125.601 63.2C125.601 97.8286 97.4295 126 62.801 126C28.1739 126 0.000976562 97.8286 0.000976562 63.2ZM64.3296 63.1996H84.1933C86.7252 63.1996 88.7772 65.2517 88.7772 67.7835C88.7772 70.3154 86.7252 72.3674 84.1933 72.3674H59.7457C57.2138 72.3674 55.1618 70.3154 55.1618 67.7835V35.6959C55.1618 33.164 57.2138 31.112 59.7457 31.112C62.2776 31.112 64.3296 33.164 64.3296 35.6959V63.1996Z" fill="#333333"/>
</svg>